<svg width="442" height="395" viewBox="0 0 442 395" fill="none" xmlns="http://www.w3.org/2000/svg">
<g clip-path="url(#clip0_69_99)">
<path d="M95.5497 121.626C94.3639 121.626 93.2267 122.098 92.3882 122.937C91.5497 123.777 91.0786 124.916 91.0786 126.104C91.0786 127.292 91.5497 128.431 92.3882 129.271C93.2267 130.11 94.3639 130.582 95.5497 130.582H151.752V128.629C151.751 127.24 152.095 125.874 152.753 124.651C153.41 123.429 154.361 122.389 155.518 121.626H95.5497Z" fill="#E6E6E6"/>
<path d="M146.691 111.55H127.689C126.503 111.55 125.366 111.078 124.527 110.238C123.689 109.398 123.218 108.259 123.218 107.072C123.218 105.884 123.689 104.745 124.527 103.905C125.366 103.065 126.503 102.593 127.689 102.593H146.691C147.877 102.593 149.014 103.065 149.853 103.905C150.691 104.745 151.162 105.884 151.162 107.072C151.162 108.259 150.691 109.398 149.853 110.238C149.014 111.078 147.877 111.55 146.691 111.55Z" fill="#E6E6E6"/>
<path d="M104.073 79.6425H30.2992C29.1134 79.6425 27.9762 79.1707 27.1377 78.3309C26.2992 77.4911 25.8281 76.352 25.8281 75.1643C25.8281 73.9766 26.2992 72.8376 27.1377 71.9977C27.9762 71.1579 29.1134 70.6861 30.2992 70.6861H104.073C105.258 70.6861 106.396 71.1579 107.234 71.9977C108.073 72.8376 108.544 73.9766 108.544 75.1643C108.544 76.352 108.073 77.4911 107.234 78.3309C106.396 79.1707 105.258 79.6425 104.073 79.6425Z" fill="#E6E6E6"/>
<path d="M71.9366 60.6101H62.4355C61.2497 60.6101 60.1124 60.1383 59.2739 59.2985C58.4354 58.4586 57.9644 57.3196 57.9644 56.1319C57.9644 54.9442 58.4354 53.8051 59.2739 52.9653C60.1124 52.1255 61.2497 51.6537 62.4355 51.6537H71.9366C73.1224 51.6537 74.2596 52.1255 75.0981 52.9653C75.9366 53.8051 76.4077 54.9442 76.4077 56.1319C76.4077 57.3196 75.9366 58.4586 75.0981 59.2985C74.2596 60.1383 73.1224 60.6101 71.9366 60.6101Z" fill="#E6E6E6"/>
<path d="M151.191 211.691H81.6437C79.1247 211.688 76.7097 210.685 74.9285 208.901C73.1473 207.117 72.1454 204.698 72.1426 202.175V91.9883C72.1454 89.4653 73.1473 87.0464 74.9285 85.2624C76.7097 83.4784 79.1247 82.4749 81.6437 82.472H192.736C195.255 82.4749 197.67 83.4784 199.451 85.2624C201.232 87.0464 202.234 89.4653 202.237 91.9883V119.298H201.119V91.9883C201.117 89.7621 200.233 87.6278 198.661 86.0537C197.089 84.4796 194.959 83.5941 192.736 83.5916H81.6437C79.4211 83.5941 77.2902 84.4796 75.7186 86.0537C74.1469 87.6278 73.2629 89.7621 73.2604 91.9883V202.175C73.2629 204.401 74.1469 206.535 75.7186 208.109C77.2902 209.683 79.4211 210.569 81.6437 210.571H151.191V211.691Z" fill="#CCCCCC"/>
<path d="M72.7014 145.729H22.005C19.486 145.726 17.071 144.723 15.2899 142.939C13.5087 141.155 12.5067 138.736 12.5039 136.213V46.6157C12.5067 44.0927 13.5087 41.6739 15.2899 39.8898C17.071 38.1058 19.486 37.1023 22.005 37.0995H112.367C114.886 37.1023 117.301 38.1058 119.082 39.8898C120.863 41.6739 121.865 44.0927 121.868 46.6157V83.0318H120.75V46.6157C120.748 44.3895 119.864 42.2553 118.292 40.6811C116.72 39.107 114.589 38.2215 112.367 38.219H22.005C19.7824 38.2215 17.6515 39.107 16.0799 40.6811C14.5083 42.2553 13.6242 44.3895 13.6217 46.6157V136.213C13.6242 138.439 14.5083 140.573 16.0799 142.147C17.6515 143.722 19.7824 144.607 22.005 144.61H72.7014V145.729Z" fill="#CCCCCC"/>
<path d="M298.985 121.626C300.143 122.389 301.093 123.429 301.751 124.651C302.408 125.874 302.752 127.24 302.752 128.629V130.582H358.954C360.14 130.582 361.277 130.11 362.116 129.271C362.954 128.431 363.425 127.292 363.425 126.104C363.425 124.916 362.954 123.777 362.116 122.937C361.277 122.098 360.14 121.626 358.954 121.626H298.985Z" fill="#E6E6E6"/>
<path d="M303.342 107.072C303.343 105.884 303.815 104.746 304.653 103.907C305.491 103.067 306.628 102.595 307.813 102.593H326.815C328.001 102.593 329.138 103.065 329.977 103.905C330.815 104.745 331.286 105.884 331.286 107.072C331.286 108.259 330.815 109.398 329.977 110.238C329.138 111.078 328.001 111.55 326.815 111.55H307.813C306.628 111.548 305.491 111.076 304.653 110.237C303.815 109.397 303.343 108.259 303.342 107.072Z" fill="#E6E6E6"/>
<path d="M345.96 75.1643C345.961 73.977 346.433 72.8388 347.271 71.9992C348.109 71.1597 349.246 70.6875 350.431 70.6861H424.204C425.39 70.6861 426.527 71.1579 427.366 71.9977C428.204 72.8376 428.675 73.9766 428.675 75.1643C428.675 76.352 428.204 77.4911 427.366 78.3309C426.527 79.1707 425.39 79.6425 424.204 79.6425H350.431C349.246 79.6412 348.109 79.1689 347.271 78.3294C346.433 77.4899 345.961 76.3516 345.96 75.1643Z" fill="#E6E6E6"/>
<path d="M378.096 56.1319C378.098 54.9446 378.569 53.8063 379.407 52.9668C380.245 52.1273 381.382 51.655 382.567 51.6537H392.068C393.254 51.6537 394.391 52.1255 395.23 52.9653C396.068 53.8051 396.539 54.9442 396.539 56.1319C396.539 57.3196 396.068 58.4586 395.23 59.2985C394.391 60.1383 393.254 60.6101 392.068 60.6101H382.567C381.382 60.6088 380.245 60.1365 379.407 59.297C378.569 58.4574 378.098 57.3192 378.096 56.1319Z" fill="#E6E6E6"/>
<path d="M303.313 211.691H372.86C375.379 211.688 377.794 210.685 379.575 208.901C381.356 207.117 382.358 204.698 382.361 202.175V91.9883C382.358 89.4653 381.356 87.0464 379.575 85.2624C377.794 83.4784 375.379 82.4749 372.86 82.472H261.768C259.249 82.4749 256.834 83.4784 255.053 85.2624C253.271 87.0464 252.269 89.4653 252.267 91.9883V119.298H253.384V91.9883C253.387 89.7621 254.271 87.6278 255.843 86.0537C257.414 84.4796 259.545 83.5941 261.768 83.5916H372.86C375.083 83.5941 377.213 84.4796 378.785 86.0537C380.357 87.6278 381.241 89.7621 381.243 91.9883V202.175C381.241 204.401 380.357 206.535 378.785 208.109C377.213 209.683 375.083 210.569 372.86 210.571H303.313V211.691Z" fill="#CCCCCC"/>
<path d="M381.803 145.729H432.499C435.018 145.726 437.433 144.723 439.214 142.939C440.996 141.155 441.997 138.736 442 136.213V46.6157C441.997 44.0927 440.996 41.6739 439.214 39.8898C437.433 38.1058 435.018 37.1023 432.499 37.0995H342.137C339.618 37.1023 337.203 38.1058 335.422 39.8898C333.641 41.6739 332.639 44.0927 332.636 46.6157V83.0318H333.754V46.6157C333.757 44.3895 334.641 42.2553 336.212 40.6811C337.784 39.107 339.915 38.2215 342.137 38.219H432.499C434.722 38.2215 436.853 39.107 438.424 40.6811C439.996 42.2553 440.88 44.3895 440.883 46.6157V136.213C440.88 138.439 439.996 140.573 438.424 142.147C436.853 143.722 434.722 144.607 432.499 144.61H381.803V145.729Z" fill="#CCCCCC"/>
<path d="M294.134 119.112H160.135C157.617 119.117 155.203 120.122 153.422 121.905C151.641 123.689 150.639 126.106 150.634 128.629V261.57C150.636 264.093 151.638 266.512 153.419 268.296C155.201 270.08 157.616 271.084 160.135 271.086H294.134C296.653 271.084 299.068 270.08 300.849 268.296C302.63 266.512 303.632 264.093 303.635 261.57V128.629C303.632 126.106 302.63 123.687 300.849 121.903C299.068 120.119 296.653 119.115 294.134 119.112ZM302.517 261.57C302.514 263.796 301.63 265.93 300.059 267.505C298.487 269.079 296.356 269.964 294.134 269.967H160.135C157.912 269.964 155.782 269.079 154.21 267.505C152.638 265.93 151.754 263.796 151.752 261.57V128.629C151.755 126.403 152.639 124.269 154.211 122.695C155.782 121.121 157.913 120.235 160.135 120.232H294.134C296.356 120.235 298.487 121.12 300.059 122.694C301.63 124.268 302.514 126.403 302.517 128.629V261.57Z" fill="#3F3D56"/>
<path d="M283.582 170.886H170.686C169.501 170.886 168.363 170.414 167.525 169.575C166.686 168.735 166.215 167.596 166.215 166.408C166.215 165.22 166.686 164.081 167.525 163.241C168.363 162.402 169.501 161.93 170.686 161.93H283.582C284.768 161.93 285.905 162.402 286.743 163.241C287.582 164.081 288.053 165.22 288.053 166.408C288.053 167.596 287.582 168.735 286.743 169.575C285.905 170.414 284.768 170.886 283.582 170.886Z" fill="#CCCCCC"/>
<path d="M251.446 151.854H202.823C201.637 151.854 200.5 151.382 199.661 150.542C198.823 149.702 198.352 148.563 198.352 147.376C198.352 146.188 198.823 145.049 199.661 144.209C200.5 143.369 201.637 142.897 202.823 142.897H251.446C252.632 142.897 253.769 143.369 254.608 144.209C255.446 145.049 255.917 146.188 255.917 147.376C255.917 148.563 255.446 149.702 254.608 150.542C253.769 151.382 252.632 151.854 251.446 151.854Z" fill="#17BDC6"/>
<path d="M219.03 197.756H170.407C169.221 197.756 168.084 197.284 167.246 196.444C166.407 195.604 165.936 194.465 165.936 193.277C165.936 192.09 166.407 190.951 167.246 190.111C168.084 189.271 169.221 188.799 170.407 188.799H219.03C220.216 188.799 221.353 189.271 222.192 190.111C223.03 190.951 223.502 192.09 223.502 193.277C223.502 194.465 223.03 195.604 222.192 196.444C221.353 197.284 220.216 197.756 219.03 197.756Z" fill="#CCCCCC"/>
<path d="M219.03 217.348H170.407C169.221 217.348 168.084 216.876 167.246 216.036C166.407 215.196 165.936 214.057 165.936 212.87C165.936 211.682 166.407 210.543 167.246 209.703C168.084 208.863 169.221 208.391 170.407 208.391H219.03C220.216 208.391 221.353 208.863 222.192 209.703C223.03 210.543 223.502 211.682 223.502 212.87C223.502 214.057 223.03 215.196 222.192 216.036C221.353 216.876 220.216 217.348 219.03 217.348Z" fill="#CCCCCC"/>
<path d="M219.03 236.94H170.407C169.221 236.94 168.084 236.468 167.246 235.628C166.407 234.789 165.936 233.649 165.936 232.462C165.936 231.274 166.407 230.135 167.246 229.295C168.084 228.455 169.221 227.984 170.407 227.984H219.03C220.216 227.984 221.353 228.455 222.192 229.295C223.03 230.135 223.502 231.274 223.502 232.462C223.502 233.649 223.03 234.789 222.192 235.628C221.353 236.468 220.216 236.94 219.03 236.94Z" fill="#CCCCCC"/>
<path d="M279.673 201.595C284.281 201.595 288.017 197.853 288.017 193.238C288.017 188.622 284.281 184.881 279.673 184.881C275.065 184.881 271.329 188.622 271.329 193.238C271.329 197.853 275.065 201.595 279.673 201.595Z" fill="#17BDC6"/>
<path d="M278.846 196.426C278.658 196.426 278.476 196.365 278.326 196.252L278.316 196.245L276.355 194.743C276.172 194.602 276.052 194.394 276.022 194.165C275.991 193.935 276.053 193.703 276.194 193.519C276.335 193.336 276.542 193.215 276.771 193.185C277.001 193.155 277.232 193.217 277.416 193.358L278.686 194.333L281.687 190.411C281.757 190.32 281.844 190.244 281.943 190.187C282.042 190.129 282.151 190.092 282.264 190.077C282.378 190.062 282.493 190.07 282.604 190.099C282.714 190.129 282.818 190.18 282.908 190.25L282.909 190.25L282.89 190.276L282.909 190.25C283.092 190.391 283.212 190.599 283.242 190.828C283.273 191.058 283.211 191.29 283.07 191.473L279.54 196.084C279.458 196.19 279.353 196.276 279.233 196.335C279.113 196.394 278.981 196.425 278.847 196.425L278.846 196.426Z" fill="white"/>
<path d="M67.186 25.9788C64.621 25.9788 62.1137 25.217 59.981 23.7897C57.8483 22.3624 56.186 20.3337 55.2045 17.9602C54.2229 15.5867 53.9661 12.9749 54.4665 10.4553C54.9669 7.93556 56.2021 5.62108 58.0158 3.80448C59.8295 1.98789 62.1403 0.750776 64.656 0.249582C67.1717 -0.251612 69.7793 0.0056221 72.149 0.988761C74.5188 1.9719 76.5442 3.63679 77.9692 5.77288C79.3942 7.90898 80.1549 10.4203 80.1549 12.9894C80.1509 16.4332 78.7833 19.7349 76.352 22.17C73.9208 24.6051 70.6244 25.9749 67.186 25.9788ZM67.186 1.11955C64.8421 1.11957 62.5508 1.81573 60.602 3.12002C58.6531 4.4243 57.1341 6.27812 56.2372 8.44705C55.3402 10.616 55.1055 13.0026 55.5628 15.3051C56.0201 17.6077 57.1488 19.7227 58.8062 21.3827C60.4636 23.0427 62.5752 24.1732 64.8741 24.6312C67.1729 25.0892 69.5558 24.8541 71.7213 23.9557C73.8867 23.0573 75.7376 21.5359 77.0398 19.5839C78.342 17.6319 79.0371 15.337 79.0371 12.9894C79.0335 9.8424 77.7838 6.82532 75.5621 4.60006C73.3403 2.3748 70.328 1.1231 67.186 1.11955Z" fill="#CCCCCC"/>
<path d="M65.9563 17.7309C65.6772 17.7314 65.4054 17.6409 65.182 17.4732L65.1682 17.4628L62.2517 15.2282C62.1166 15.1245 62.0032 14.9951 61.9181 14.8475C61.8329 14.6999 61.7776 14.537 61.7553 14.368C61.733 14.199 61.7442 14.0272 61.7882 13.8625C61.8321 13.6978 61.9081 13.5434 62.0116 13.4082C62.1152 13.2729 62.2443 13.1593 62.3917 13.074C62.5391 12.9887 62.7017 12.9333 62.8705 12.911C63.0392 12.8887 63.2107 12.8999 63.3751 12.9439C63.5395 12.988 63.6937 13.064 63.8288 13.1678L65.7178 14.6187L70.1818 8.78565C70.2854 8.65041 70.4144 8.53692 70.5617 8.45166C70.7091 8.36639 70.8717 8.31101 71.0404 8.2887C71.209 8.26639 71.3804 8.27757 71.5448 8.3216C71.7091 8.36564 71.8632 8.44167 71.9982 8.54535L71.9986 8.54563L71.9709 8.58416L71.9994 8.54563C72.2718 8.75532 72.45 9.06467 72.4949 9.40582C72.5398 9.74696 72.4478 10.092 72.239 10.3653L66.9884 17.2231C66.8669 17.3812 66.7107 17.509 66.5319 17.5968C66.3532 17.6846 66.1566 17.73 65.9575 17.7294L65.9563 17.7309Z" fill="#CCCCCC"/>
<path d="M149.452 71.3208C146.887 71.3207 144.38 70.5589 142.247 69.1316C140.114 67.7043 138.452 65.6756 137.471 63.3021C136.489 60.9286 136.232 58.3169 136.733 55.7972C137.233 53.2775 138.468 50.963 140.282 49.1464C142.096 47.3298 144.406 46.0927 146.922 45.5915C149.438 45.0903 152.045 45.3476 154.415 46.3307C156.785 47.3139 158.81 48.9788 160.235 51.1149C161.66 53.2509 162.421 55.7623 162.421 58.3314C162.417 61.7752 161.049 65.0769 158.618 67.512C156.187 69.9471 152.89 71.3169 149.452 71.3208ZM149.452 46.4615C147.108 46.4615 144.817 47.1577 142.868 48.462C140.919 49.7663 139.4 51.6201 138.503 53.7891C137.606 55.958 137.372 58.3446 137.829 60.6471C138.286 62.9497 139.415 65.0646 141.072 66.7247C142.73 68.3847 144.841 69.5152 147.14 69.9731C149.439 70.4311 151.822 70.1961 153.987 69.2977C156.153 68.3993 158.004 66.8779 159.306 64.9259C160.608 62.9739 161.303 60.679 161.303 58.3314C161.3 55.1844 160.05 52.1673 157.828 49.942C155.606 47.7167 152.594 46.465 149.452 46.4615Z" fill="#CCCCCC"/>
<path d="M148.222 63.0729C147.943 63.0734 147.671 62.9829 147.448 62.8152L147.434 62.8047L144.518 60.5702C144.245 60.3607 144.066 60.0513 144.021 59.7099C143.976 59.3686 144.069 59.0234 144.278 58.7501C144.487 58.4769 144.796 58.2981 145.137 58.253C145.477 58.2079 145.822 58.3002 146.095 58.5097L147.984 59.9607L152.448 54.1276C152.551 53.9924 152.681 53.8789 152.828 53.7936C152.975 53.7084 153.138 53.653 153.306 53.6307C153.475 53.6084 153.647 53.6195 153.811 53.6636C153.975 53.7076 154.129 53.7836 154.264 53.8873L154.265 53.8876L154.237 53.9261L154.265 53.8876C154.538 54.0973 154.716 54.4066 154.761 54.7478C154.806 55.0889 154.714 55.434 154.505 55.7072L149.254 62.5651C149.133 62.7231 148.977 62.851 148.798 62.9388C148.619 63.0266 148.423 63.0719 148.224 63.0714L148.222 63.0729Z" fill="#CCCCCC"/>
<path d="M279.673 221.187C284.281 221.187 288.017 217.445 288.017 212.83C288.017 208.214 284.281 204.473 279.673 204.473C275.065 204.473 271.329 208.214 271.329 212.83C271.329 217.445 275.065 221.187 279.673 221.187Z" fill="#17BDC6"/>
<path d="M278.846 216.018C278.658 216.018 278.476 215.957 278.326 215.845L278.316 215.838L276.355 214.335C276.265 214.265 276.188 214.178 276.131 214.079C276.074 213.98 276.037 213.87 276.022 213.757C276.007 213.643 276.014 213.528 276.044 213.417C276.073 213.306 276.124 213.202 276.194 213.111C276.264 213.02 276.35 212.944 276.45 212.887C276.549 212.829 276.658 212.792 276.771 212.777C276.885 212.762 277 212.77 277.111 212.799C277.221 212.829 277.325 212.88 277.416 212.95L278.686 213.925L281.687 210.004C281.757 209.913 281.844 209.836 281.943 209.779C282.042 209.722 282.151 209.684 282.264 209.669C282.378 209.654 282.493 209.662 282.604 209.692C282.714 209.721 282.818 209.772 282.908 209.842L282.909 209.842L282.89 209.868L282.909 209.842C283.092 209.983 283.212 210.191 283.242 210.421C283.273 210.65 283.211 210.882 283.07 211.066L279.54 215.676C279.458 215.783 279.353 215.869 279.233 215.928C279.113 215.987 278.981 216.017 278.847 216.017L278.846 216.018Z" fill="white"/>
<path d="M279.673 240.819C284.281 240.819 288.017 237.077 288.017 232.462C288.017 227.846 284.281 224.105 279.673 224.105C275.065 224.105 271.329 227.846 271.329 232.462C271.329 237.077 275.065 240.819 279.673 240.819Z" fill="#17BDC6"/>
<path d="M278.846 235.65C278.658 235.65 278.476 235.589 278.325 235.476L278.316 235.469L276.355 233.967C276.172 233.826 276.052 233.618 276.022 233.389C275.992 233.159 276.054 232.927 276.194 232.744C276.335 232.56 276.543 232.44 276.771 232.41C277 232.379 277.232 232.441 277.415 232.582L278.686 233.557L281.687 229.635C281.757 229.545 281.843 229.468 281.942 229.411C282.041 229.354 282.151 229.316 282.264 229.301C282.378 229.286 282.493 229.294 282.603 229.323C282.714 229.353 282.817 229.404 282.908 229.474L282.908 229.474L282.89 229.5L282.909 229.474C283.092 229.615 283.212 229.823 283.242 230.052C283.272 230.282 283.21 230.514 283.07 230.697L279.54 235.308C279.458 235.415 279.353 235.501 279.233 235.56C279.113 235.619 278.981 235.649 278.847 235.649L278.846 235.65Z" fill="white"/>
<path d="M227.146 107.706C218.344 107.556 214.344 100.867 214.345 94.7158C214.345 88.5645 218.346 81.8765 227.128 81.7275H227.147C235.93 81.8776 239.93 88.5665 239.93 94.7177C239.93 100.869 235.929 107.557 227.146 107.706ZM227.137 82.847C219.116 82.9876 215.463 89.097 215.463 94.7158C215.462 100.337 219.118 106.45 227.146 106.587C235.155 106.451 238.812 100.339 238.812 94.7177C238.812 89.0989 235.159 82.9895 227.137 82.847Z" fill="#17BDC6"/>
<path d="M230.048 95.4223C232.292 99.3259 226.133 100.85 223.777 98.4989L224.367 97.2359C228.198 100.55 231.573 94.8095 225.722 95.3551V93.9712C231.08 94.404 228.071 89.0023 224.502 92.1978L223.925 90.9351C226.834 87.9114 233.364 91.5676 228.754 94.5892C229.268 94.7097 229.725 95.0039 230.048 95.4223Z" fill="#17BDC6"/>
<path d="M305.941 71.3208C303.376 71.3207 300.868 70.5589 298.736 69.1316C296.603 67.7043 294.941 65.6756 293.959 63.3021C292.978 60.9286 292.721 58.3169 293.221 55.7972C293.722 53.2775 294.957 50.963 296.771 49.1464C298.584 47.3298 300.895 46.0927 303.411 45.5915C305.927 45.0903 308.534 45.3476 310.904 46.3307C313.274 47.3139 315.299 48.9788 316.724 51.1149C318.149 53.2509 318.91 55.7623 318.91 58.3314C318.906 61.7752 317.538 65.0769 315.107 67.512C312.676 69.9471 309.379 71.3169 305.941 71.3208ZM305.941 46.4615C303.597 46.4615 301.306 47.1577 299.357 48.462C297.408 49.7663 295.889 51.6201 294.992 53.7891C294.095 55.958 293.86 58.3446 294.318 60.6471C294.775 62.9497 295.904 65.0646 297.561 66.7247C299.218 68.3847 301.33 69.5152 303.629 69.9731C305.928 70.4311 308.311 70.1961 310.476 69.2977C312.642 68.3993 314.493 66.8779 315.795 64.9259C317.097 62.9739 317.792 60.679 317.792 58.3314C317.788 55.1844 316.539 52.1673 314.317 49.942C312.095 47.7167 309.083 46.465 305.941 46.4615Z" fill="#CCCCCC"/>
<path d="M309.542 61.2467H308.187V63.114H306.497V61.2467H302.339V59.9568L306.806 53.5486H308.187V59.8899H309.542V61.2467ZM306.497 59.8899V56.2488L303.976 59.8899H306.497Z" fill="#CCCCCC"/>
<path d="M387.318 25.9788C384.753 25.9788 382.245 25.2169 380.113 23.7896C377.98 22.3623 376.318 20.3336 375.336 17.9601C374.355 15.5866 374.098 12.9749 374.598 10.4552C375.099 7.93551 376.334 5.62104 378.148 3.80445C379.961 1.98786 382.272 0.750755 384.788 0.249568C387.304 -0.25162 389.911 0.00562281 392.281 0.988764C394.651 1.97191 396.676 3.63679 398.101 5.77288C399.526 7.90898 400.287 10.4203 400.287 12.9894C400.283 16.4332 398.915 19.7349 396.484 22.17C394.053 24.6051 390.756 25.9749 387.318 25.9788ZM387.318 1.11955C384.974 1.11958 382.683 1.81575 380.734 3.12004C378.785 4.42434 377.266 6.27816 376.369 8.4471C375.472 10.616 375.237 13.0027 375.695 15.3052C376.152 17.6077 377.281 19.7227 378.938 21.3827C380.595 23.0427 382.707 24.1732 385.006 24.6312C387.305 25.0892 389.688 24.8541 391.853 23.9557C394.019 23.0573 395.869 21.5359 397.172 19.5839C398.474 17.6319 399.169 15.337 399.169 12.9894C399.165 9.84239 397.916 6.82529 395.694 4.60003C393.472 2.37477 390.46 1.12307 387.318 1.11955Z" fill="#CCCCCC"/>
<path d="M389.249 11.9886C389.699 12.2371 390.067 12.6103 390.309 13.0633C390.566 13.5537 390.696 14.1013 390.685 14.6552C390.696 15.2373 390.548 15.8114 390.255 16.3145C389.963 16.7998 389.533 17.1876 389.021 17.4295C388.439 17.7038 387.801 17.8394 387.157 17.8258C386.554 17.8252 385.955 17.7231 385.386 17.5235C384.858 17.3524 384.37 17.076 383.951 16.7109L384.528 15.4478C385.277 16.0676 386.212 16.4177 387.184 16.4422C387.683 16.4764 388.176 16.315 388.559 15.992C388.868 15.6383 389.037 15.1834 389.035 14.7132C389.032 14.243 388.858 13.7899 388.545 13.4394C388.37 13.2768 388.164 13.1508 387.939 13.0689C387.715 12.987 387.476 12.9508 387.237 12.9625C386.874 12.9601 386.513 13.0309 386.178 13.1708C385.847 13.3096 385.549 13.518 385.306 13.7819H384.26V8.15295H390.242V9.49636H385.95V12.1026C386.457 11.764 387.057 11.5905 387.667 11.6056C388.218 11.594 388.764 11.726 389.249 11.9886Z" fill="#CCCCCC"/>
<path d="M82.8241 291.56C82.4849 290.811 82.3139 289.996 82.3231 289.173C82.3323 288.35 82.5216 287.539 82.8775 286.797C83.2335 286.056 83.7474 285.401 84.3832 284.88C85.0191 284.359 85.7612 283.984 86.5575 283.781L88.2517 263.849L96.3999 270.287L93.5418 288.228C93.7934 289.59 93.5372 290.998 92.8219 292.183C92.1066 293.369 90.9819 294.251 89.6608 294.662C88.3397 295.073 86.914 294.984 85.654 294.412C84.3939 293.841 83.387 292.826 82.8241 291.56H82.8241Z" fill="#FFB8B8"/>
<path d="M88.0644 281.689C87.478 281.611 86.9378 281.329 86.5388 280.892C86.1397 280.454 85.9074 279.89 85.8827 279.298L84.9394 256.679C84.6003 248.55 86.2523 240.46 89.7512 233.117L98.1166 215.559C98.677 214.504 99.4808 213.597 100.461 212.914C101.442 212.232 102.571 211.794 103.754 211.636C104.903 211.474 106.074 211.592 107.167 211.981C108.26 212.37 109.244 213.018 110.033 213.869C110.434 214.298 110.794 214.763 111.108 215.258C111.739 216.284 112.105 217.451 112.171 218.653C112.238 219.856 112.003 221.057 111.489 222.146L98.6619 257.244L97.6751 280.109C97.6601 280.456 97.5738 280.795 97.4217 281.107C97.2696 281.418 97.0549 281.695 96.7911 281.92C96.5273 282.144 96.22 282.312 95.8885 282.412C95.5571 282.512 95.2085 282.543 94.8647 282.502L88.0977 281.693L88.0644 281.689Z" fill="#17BDC6"/>
<path d="M64.0654 380.515L70.3395 383.274L83.9473 360.348L74.6877 356.277L64.0654 380.515Z" fill="#FFB8B8"/>
<path d="M63.3641 377.76L75.7199 383.192L75.7204 383.193C76.7544 383.647 77.6889 384.301 78.4705 385.118C79.2522 385.934 79.8656 386.897 80.2758 387.95C80.686 389.004 80.8849 390.129 80.8613 391.259C80.8376 392.39 80.5918 393.505 80.1378 394.541L80.0255 394.797L59.7954 385.903L63.3641 377.76Z" fill="#2F2E41"/>
<path d="M148.297 388.145H155.149L158.408 361.674L148.295 361.674L148.297 388.145Z" fill="#FFB8B8"/>
<path d="M146.549 385.904L160.043 385.904H160.043C161.172 385.904 162.291 386.126 163.334 386.559C164.377 386.992 165.325 387.626 166.124 388.426C166.922 389.226 167.556 390.176 167.988 391.221C168.42 392.265 168.642 393.385 168.642 394.517V394.796L146.549 394.797L146.549 385.904Z" fill="#2F2E41"/>
<path d="M79.2839 380.619C79.0204 380.619 78.7585 380.577 78.5078 380.496L66.8899 376.756C66.2624 376.551 65.7399 376.108 65.4342 375.522C65.1286 374.936 65.064 374.254 65.2542 373.621L103.781 250.741L132.639 245.074L132.741 245.239C151.82 276.334 158.188 323.833 162.228 374.16C162.278 374.817 162.069 375.468 161.648 375.974C161.226 376.48 160.625 376.802 159.97 376.87L147.269 378.143C146.676 378.205 146.081 378.053 145.59 377.715C145.099 377.376 144.745 376.873 144.592 376.297L121.335 293.893C121.29 293.725 121.193 293.576 121.059 293.465C120.924 293.354 120.759 293.288 120.585 293.276C120.412 293.264 120.239 293.306 120.09 293.396C119.942 293.487 119.825 293.621 119.756 293.781L81.5869 379.095C81.3941 379.547 81.0731 379.933 80.6637 380.203C80.2543 380.474 79.7745 380.619 79.2839 380.619Z" fill="#2F2E41"/>
<path d="M118.691 201.537C126.272 201.537 132.418 195.381 132.418 187.788C132.418 180.195 126.272 174.039 118.691 174.039C111.11 174.039 104.964 180.195 104.964 187.788C104.964 195.381 111.11 201.537 118.691 201.537Z" fill="#FFB8B8"/>
<path d="M101.327 254.38L101.232 254.183C101.169 254.049 94.8442 240.611 95.4327 225.111C95.6276 220.024 97.7561 215.203 101.383 211.636C105.01 208.068 109.86 206.024 114.942 205.92C119.626 205.829 124.192 207.395 127.836 210.344C131.48 213.293 133.968 217.435 134.862 222.041C136.625 231.053 136.58 239.588 134.731 247.409L134.69 247.583L134.515 247.619L101.327 254.38Z" fill="#17BDC6"/>
<path d="M171.313 273.776C170.5 273.655 169.723 273.358 169.038 272.904C168.352 272.451 167.774 271.852 167.344 271.151C166.914 270.45 166.644 269.662 166.55 268.845C166.457 268.027 166.544 267.199 166.805 266.419L150.995 254.197L160.811 250.824L174.32 262.947C175.6 263.473 176.643 264.451 177.251 265.695C177.858 266.94 177.989 268.364 177.619 269.699C177.248 271.034 176.401 272.186 175.239 272.938C174.077 273.689 172.68 273.987 171.313 273.776H171.313Z" fill="#FFB8B8"/>
<path d="M132.513 246.832L132.476 246.773L115.808 219.737C115.226 218.693 114.9 217.526 114.858 216.331C114.816 215.135 115.06 213.948 115.568 212.866C116.054 211.811 116.788 210.889 117.706 210.179C118.625 209.469 119.701 208.992 120.844 208.788C121.42 208.683 122.005 208.632 122.591 208.636C123.793 208.66 124.971 208.984 126.017 209.579C127.062 210.175 127.943 211.022 128.579 212.045L151.089 241.855L169.745 255.069C170.028 255.27 170.266 255.526 170.445 255.823C170.625 256.12 170.741 256.45 170.786 256.794C170.832 257.138 170.806 257.488 170.711 257.821C170.615 258.154 170.452 258.464 170.231 258.731L165.888 263.991C165.508 264.454 164.976 264.766 164.387 264.87C163.798 264.974 163.192 264.863 162.677 264.559L132.513 246.832Z" fill="#17BDC6"/>
<path d="M116.237 186.935C117.248 185.268 119.481 184.797 121.419 184.987C123.358 185.177 125.243 185.86 127.19 185.845C132.598 185.803 136.772 179.201 134.499 174.287C132.634 170.256 127.977 168.486 123.764 167.097C114.932 164.185 104.785 161.386 96.7702 166.109C94.216 167.658 92.1211 169.862 90.7019 172.494C89.2826 175.125 88.5906 178.089 88.6972 181.078C88.8775 184.794 90.2985 188.612 89.0967 192.132C87.7102 196.194 83.3141 198.373 79.1596 199.427C71.8769 201.275 64.1984 200.978 56.8701 202.635C49.5419 204.293 42.0325 208.693 40.0571 215.953C38.7596 220.722 40.1135 225.855 42.3556 230.258C44.6432 234.75 47.8222 238.727 51.6981 241.946C55.5739 245.164 60.0648 247.557 64.8959 248.976C69.727 250.395 74.7966 250.812 79.7941 250.2C84.7915 249.588 89.6117 247.961 93.9594 245.419C102.819 240.237 109.215 231.48 113.028 221.941C115.19 216.377 116.712 210.584 117.565 204.674C118.419 199.142 117.694 193.552 116.147 188.173C116.074 187.972 116.044 187.758 116.06 187.544C116.075 187.331 116.135 187.123 116.237 186.935Z" fill="#2F2E41"/>
<path d="M213.495 395H0.558888C0.410662 395 0.268506 394.941 0.163694 394.836C0.0588823 394.731 0 394.589 0 394.44C0 394.292 0.0588823 394.149 0.163694 394.044C0.268506 393.939 0.410662 393.88 0.558888 393.88H213.495C213.644 393.88 213.786 393.939 213.891 394.044C213.995 394.149 214.054 394.292 214.054 394.44C214.054 394.589 213.995 394.731 213.891 394.836C213.786 394.941 213.644 395 213.495 395Z" fill="#3F3D56"/>
</g>
<defs>
<clipPath id="clip0_69_99">
<rect width="442" height="395" fill="white"/>
</clipPath>
</defs>
</svg>
