<svg width="320" height="218" viewBox="0 0 320 218" fill="none" xmlns="http://www.w3.org/2000/svg">
<rect width="320" height="218" rx="10" fill="#86E7CF"/>
<path d="M202.142 46.6132L98.9545 106.12C90.4217 111.056 91.2403 123.681 100.368 127.427L128.72 139.16V160.095C128.72 171.604 143.405 176.342 150.201 167.189L161.065 152.529L188.822 163.989C190.285 164.584 191.823 164.882 193.361 164.882C195.395 164.882 197.404 164.361 199.215 163.344C202.39 161.558 204.573 158.383 205.143 154.786L219.877 58.7427C221.39 48.7961 210.724 41.6771 202.142 46.6132ZM140.626 160.095V144.071L149.705 147.816L140.626 160.095ZM193.361 152.976L155.212 137.225L189.988 87.0449C192.642 83.2002 187.631 78.7353 184.109 81.7863L131.647 127.501L104.908 116.438L208.095 56.9072L193.361 152.976Z" fill="#158F96"/>
</svg>
