<svg width="320" height="218" viewBox="0 0 320 218" fill="none" xmlns="http://www.w3.org/2000/svg">
<rect width="320" height="218" rx="10" fill="#86E7CF"/>
<path d="M202.779 57H117.221C116.248 57 115.325 57.4844 114.79 58.3077L90.4837 93.956C89.7788 95.0216 89.8518 96.4262 90.6539 97.3949L157.74 179.928C158.906 181.357 161.094 181.357 162.26 179.928L229.346 97.3949C230.148 96.402 230.221 95.0216 229.516 93.956L205.234 58.3077C204.675 57.4844 203.776 57 202.779 57ZM198.088 68.6244L213.474 91.8733H196.848L184.282 68.6244H198.088ZM148.965 68.6244H171.011L183.577 91.8733H136.423L148.965 68.6244ZM121.912 68.6244H135.718L123.152 91.8733H106.526L121.912 68.6244ZM111.46 103.498H123.954L140.555 142.246L111.46 103.498ZM136.471 103.498H183.529L160 162.419L136.471 103.498ZM179.445 142.246L196.022 103.498H208.516L179.445 142.246Z" fill="#158F96"/>
</svg>
