<svg width="320" height="218" viewBox="0 0 320 218" fill="none" xmlns="http://www.w3.org/2000/svg">
<rect width="320" height="218" rx="10" fill="#86E7CF"/>
<path d="M157 76.7812C153.835 76.8282 150.693 77.305 147.671 78.1973C149.069 80.5289 149.814 83.1616 149.833 85.8438C149.833 87.9264 149.401 89.9887 148.56 91.9129C147.72 93.837 146.488 95.5853 144.935 97.058C143.383 98.5307 141.539 99.6989 139.51 100.496C137.481 101.293 135.307 101.703 133.111 101.703C130.283 101.685 127.507 100.979 125.048 99.6527C123.109 106.033 123.335 112.83 125.695 119.081C128.054 125.333 132.428 130.721 138.197 134.484C143.965 138.247 150.836 140.193 157.835 140.047C164.835 139.9 171.608 137.669 177.196 133.669C182.784 129.669 186.904 124.103 188.971 117.759C191.038 111.415 190.948 104.615 188.714 98.3224C186.48 92.0297 182.215 86.5631 176.523 82.6969C170.831 78.8308 164.001 76.7612 157 76.7812ZM241.961 104.365C225.767 74.3995 193.708 54.125 157 54.125C120.292 54.125 88.2237 74.4137 72.039 104.368C71.3559 105.65 71 107.065 71 108.501C71 109.937 71.3559 111.353 72.039 112.635C88.2327 142.6 120.292 162.875 157 162.875C193.708 162.875 225.776 142.586 241.961 112.632C242.644 111.35 243 109.935 243 108.499C243 107.063 242.644 105.647 241.961 104.365ZM157 149.281C127.542 149.281 100.535 133.705 85.9513 108.5C100.535 83.2949 127.539 67.7188 157 67.7188C186.461 67.7188 213.464 83.2949 228.048 108.5C213.467 133.705 186.461 149.281 157 149.281Z" fill="#158F96"/>
</svg>
