<svg width="1600" height="1200" viewBox="0 0 1600 1200" fill="none" xmlns="http://www.w3.org/2000/svg">
<path d="M507.351 995.607C510.64 997.142 509.073 997.231 508.337 1000.01C506.878 1005.5 505.213 1010.96 503.035 1016.22C503.035 1016.22 503.071 1016.64 501.876 1017.42L500.311 1017.42L499.208 1016.32C499.208 1016.32 499.394 1014.37 500.012 1012.76C501.928 1007.68 503.491 1002.48 504.837 997.22C504.837 997.22 504.703 996.825 505.803 995.836C505.803 995.836 506.469 995.565 507.351 995.607ZM512.933 958.403C514.412 959.44 514.142 960.306 514.142 960.306C514.004 965.193 513.65 970.076 513.089 974.934C512.976 975.914 512.853 976.893 512.724 977.872C512.596 978.842 512.529 979.777 511.733 980.663C511.733 980.663 510.891 982.049 508.868 980.27C508.868 980.27 509.249 973.355 509.672 967.646C509.849 965.258 509.971 962.867 510.044 960.476C510.044 960.476 509.635 960.253 510.692 958.779L512.154 958.228C512.414 958.286 512.673 958.344 512.933 958.403ZM509.521 921.058C510.766 922.216 510.92 924.416 511.322 926.398C512.297 931.205 513.008 936.064 513.492 940.952C513.492 940.952 513.68 942.814 511.673 943.407L510.175 942.953C510.175 942.953 509.012 936.881 508.161 931.79C507.681 928.92 507.107 926.064 506.444 923.23C506.444 923.23 506.007 922.434 507.249 921.128L508.773 920.779C509.023 920.872 509.271 920.965 509.521 921.058ZM495.141 885.78C496.761 886.583 497.472 888.628 498.425 890.409C500.765 894.779 502.842 899.286 504.676 903.898C504.676 903.898 505.003 904.165 504.688 905.567L503.556 906.636C503.556 906.636 502.075 908.257 500.016 903.276C497.927 898.289 495.527 893.428 492.823 888.732L492.628 887.196L493.588 885.973C493.588 885.973 494.26 885.718 495.141 885.78ZM341.258 890.621C347.234 890.975 353.243 890.561 359.127 889.371L360.717 889.645L361.602 890.921L361.314 892.442L360.023 893.319C353.656 894.648 347.091 895.055 340.561 894.629L339.066 893.928L338.573 892.46C339.291 889.878 340.76 890.588 340.76 890.588C340.926 890.601 341.091 890.61 341.258 890.621ZM306.333 877.237C307.784 878.092 309.276 879.543 310.722 880.557C314.413 883.151 318.489 885.199 322.727 886.766C322.727 886.766 323.639 886.844 324.055 888.589L323.507 890.04C323.507 890.04 322.315 890.959 320.368 890.204C314.51 887.932 309.006 884.789 304.319 880.68L303.606 879.248L304.13 877.789C304.868 877.245 304.426 876.962 306.333 877.237ZM393.691 871.999C395.177 873.027 394.914 873.894 394.914 873.894L394.284 875.312C389.556 879.795 384.245 883.641 378.456 886.719C378.456 886.719 378.065 886.988 376.888 886.868L375.683 885.88C375.683 885.88 374.339 884.912 376.535 883.147C376.535 883.147 385.146 878.371 391.453 872.392L392.911 871.829C393.171 871.886 393.43 871.943 393.691 871.999ZM471.968 856.171C476.927 859.364 481.31 865.487 485.503 870.753L485.986 872.33C485.416 874.032 484.499 874.031 484.499 874.031L482.946 873.84C480.355 871.627 478.589 868.724 476.309 866.216C474.208 863.905 472.026 861.667 469.779 859.496C469.779 859.496 468.976 859.061 469.308 857.297C469.308 857.297 469.569 855.729 471.968 856.171ZM295.288 842.851L296.275 844.053C296.8 849.562 296.202 856.235 297.74 862.92C297.74 862.92 298.175 863.715 296.927 865.018C296.927 865.018 294.392 866.657 293.643 863.35C292.291 857.378 291.657 851.197 292.209 845.141C292.437 842.646 293.731 842.694 293.731 842.694C293.731 842.694 294.443 842.594 295.288 842.851ZM414.055 840.439C417.051 842.317 415.653 842.059 414.5 844.868C414.029 846.014 413.538 847.154 413.027 848.284C411.189 852.352 409.079 856.301 406.689 860.088L405.29 861.176L403.746 860.916L402.841 859.653C402.801 858.236 403.814 857.014 404.605 855.681C407.219 851.242 409.442 846.588 411.328 841.806L412.49 840.477C412.49 840.477 413.184 840.29 414.055 840.439ZM442.078 833.354C447.396 836.579 452.538 840.017 457.536 843.77C458.564 844.541 459.204 845.303 458.386 846.954L457.032 847.732C457.032 847.732 451.677 844.421 447.383 841.542C444.94 839.903 442.454 838.328 439.938 836.801L439.019 835.549C439.019 835.549 438.072 834.23 440.532 833.11C440.532 833.11 441.249 833.05 442.078 833.354ZM315.186 812.474C316.813 813.267 316.685 814.163 316.685 814.163C316.498 816.987 316.113 815.876 314.117 817.117C309.537 820.007 305.489 823.658 302.413 828.082L301.052 829.018C299.237 829.008 298.956 828.147 298.956 828.147C298.27 826.487 298.967 825.9 298.967 825.9C302.694 820.44 307.853 816.025 313.622 812.684C313.622 812.684 314.298 812.417 315.186 812.474ZM422.763 803.847C424.16 804.992 423.824 805.835 423.824 805.835C423.248 811.355 422.423 816.856 421.291 822.292C421.863 822.558 422.428 822.827 422.998 823.099C427.28 825.152 426.558 825.275 426.123 826.872L424.945 827.89L419.706 826.026L418.33 826.229L417.048 825.341L416.791 824.683C413.348 823.13 409.868 821.653 406.358 820.239L404.988 819.054C404.435 816.434 406.07 816.401 406.07 816.401L407.635 816.387C410.943 817.705 414.223 819.094 417.474 820.546C418.461 815.605 419.202 810.59 419.74 805.558L420.5 804.056L422.001 803.615C422.255 803.692 422.508 803.77 422.763 803.847ZM370.84 805.396C377.15 806.416 383.379 807.907 389.476 809.83C389.476 809.83 390.395 809.58 390.983 811.62L390.501 813.094L389.109 813.801C389.109 813.801 383.061 812.044 377.833 810.864C375.301 810.292 372.751 809.804 370.187 809.39C370.187 809.39 369.303 809.77 368.409 807.844L368.657 806.316L369.925 805.407C369.925 805.407 370.577 805.355 370.84 805.396ZM352.171 804.006L353.279 805.101V806.649L352.173 807.744C348.523 808.463 344.461 808.023 340.523 808.461C337.978 808.744 335.453 809.161 332.953 809.7L331.333 809.451C330.021 808.212 330.415 807.395 330.415 807.395C331.071 805.723 331.986 805.77 331.986 805.77C338.324 804.372 344.843 803.877 351.366 803.853C351.366 803.853 351.845 803.943 352.171 804.006ZM423.088 766.01C425.072 767.164 424.468 767.961 424.51 768.713C424.57 769.787 424.625 770.862 424.674 771.937C424.888 776.733 424.974 781.531 424.923 786.331L424.3 788.235L422.847 788.81L421.408 788.199L420.827 786.761C420.905 780.542 420.737 774.284 420.373 768.036C420.373 768.036 420.077 767.18 421.525 766.099C421.525 766.099 422.214 765.89 423.088 766.01ZM418.467 728.467C420.121 729.205 420.024 730.105 420.024 730.105C421.045 736.159 421.944 742.236 422.683 748.322C422.772 749.049 423.181 749.652 421.718 750.885L420.163 751.068C420.163 751.068 418.818 750.403 418.478 747.629C417.767 741.989 416.933 736.368 415.989 730.771L416.341 729.263L417.669 728.443C417.935 728.451 418.201 728.459 418.467 728.467ZM411.222 691.766C412.746 693.137 412.778 695.508 413.309 697.707C414.313 701.855 415.268 706.014 416.172 710.193C416.855 713.355 416.776 712.766 415.603 713.561C413.271 715.146 412.758 713.04 412.758 713.04C412.758 713.04 411.316 707.013 410 701.444C409.272 698.361 408.182 693.988 408.182 693.988L408.414 692.456L409.673 691.537C409.673 691.537 410.39 691.471 411.222 691.766ZM400.795 655.364L401.8 656.552C403.66 662.427 405.419 668.343 407.12 674.273C407.12 674.273 407.671 674.386 407.057 676.244L405.827 677.201C405.827 677.201 405.044 677.671 403.666 676.504C403.666 676.504 400.554 666.21 397.911 657.81L398.035 656.219C399.639 654.252 399.916 655.109 400.795 655.364ZM387.213 619.934C387.88 620.356 387.888 620.365 388.341 621.008C388.737 621.9 389.128 622.794 389.517 623.691C391.613 628.539 393.601 633.432 395.478 638.365L395.513 640.143L394.367 641.199C392.577 641.489 392.155 640.685 392.155 640.685C392.155 640.685 389.867 635.095 387.944 630.45C386.912 627.956 385.848 625.476 384.76 623.006L384.563 621.082C385.94 618.953 386.309 619.775 387.213 619.934ZM369.869 586.15C371.718 587.064 372.473 589.477 373.621 591.536C375.708 595.279 377.725 599.058 379.682 602.869C379.682 602.869 380.023 603.295 380.386 604.589L379.893 606.059L378.496 606.755C378.496 606.755 377.634 607.062 376.518 605.648C373.704 600.12 370.752 594.687 367.674 589.312C367.674 589.312 366.689 588.891 367.713 586.862L369.073 586.094C369.339 586.113 369.605 586.132 369.869 586.15ZM349.903 554.567C354.725 559.074 358.936 565.138 361.484 571.584L361.149 573.097L359.83 573.93C359.83 573.93 359.028 574.1 358.3 573.598C357.074 572.752 356.331 570.844 355.244 569.197C352.682 565.34 350.056 561.527 347.368 557.757L346.798 555.941L347.631 554.63C348.47 554.258 348.102 553.887 349.903 554.567ZM326.199 524.761C327.921 526.088 329.11 527.876 330.501 529.514C333.392 532.924 336.222 536.383 339.002 539.882C339.002 539.882 339.346 540.201 339.436 541.394C339.436 541.394 339.572 542.289 337.952 543.097L336.398 542.908C336.398 542.908 332.364 538.063 328.78 533.789C327.144 531.838 325.486 529.906 323.815 527.983C323.815 527.983 323.418 527.828 323.241 526.421C323.241 526.421 322.911 523.864 326.199 524.761ZM299.759 497.3C301.746 498.552 303.317 500.475 305.063 502.185C308.038 505.099 310.962 508.061 313.848 511.059L314.522 512.625L313.883 514.038L312.421 514.591L310.992 513.96C310.473 513.419 309.954 512.882 309.433 512.344C305.638 508.44 301.771 504.612 297.831 500.861L296.973 499.228C297.288 497.462 298.195 497.334 298.195 497.334C298.195 497.334 298.889 497.147 299.759 497.3ZM270.734 472.506C272.657 473.462 274.268 475.05 276.008 476.437C279.413 479.156 282.764 481.937 286.074 484.769C286.074 484.769 286.49 484.605 286.962 486.316C286.962 486.316 287.268 487.17 285.834 488.267C285.834 488.267 284.571 488.834 283.393 487.824C282.917 487.417 282.438 487.01 281.961 486.602C277.805 483.083 273.557 479.636 269.233 476.282C269.233 476.282 268.76 476.497 268.16 474.703C268.16 474.703 267.807 473.869 269.18 472.696C269.18 472.696 269.852 472.442 270.734 472.506ZM239.743 451.387C245.262 454.569 250.632 458.001 255.898 461.572C255.898 461.572 256.325 461.695 256.816 462.919C256.816 462.919 257.69 464.285 255.174 465.273L253.643 464.948C248.469 461.419 243.153 458.058 237.713 454.899C237.713 454.899 237.275 454.743 236.735 453.65C236.735 453.65 236.273 452.869 237.475 451.525L238.989 451.131C239.24 451.216 239.492 451.302 239.743 451.387Z" fill="#DCD6E3"/>
<path d="M1159.77 352.54C1161.65 352.667 1162.42 355.912 1160.15 356.525C1155.09 357.778 1149.34 360.831 1148.48 357.591C1147.68 354.563 1154.12 353.741 1159.26 352.579C1159.41 352.551 1159.43 352.53 1159.77 352.54Z" fill="#DCD6E3"/>
<path d="M998.149 1009.26C1001.66 1009.48 998.425 1017.1 996.561 1021.14C995.563 1023.09 991.866 1022.38 993.225 1018.45C993.825 1016.74 994.442 1015.04 995.084 1013.34C995.824 1011.4 996.394 1009.22 998.149 1009.26Z" fill="#DCD6E3"/>
<path d="M656.27 536.722C658.296 537.015 659.31 539.217 655.568 541.344C636.043 552.505 618.442 566.901 602.832 583.097C602.832 583.097 601.326 584.16 600.189 583.366C597.364 581.391 603.532 576.492 608.11 572.11C622.12 558.7 637.649 546.809 654.577 537.255C654.577 537.255 655.329 536.681 656.27 536.722Z" fill="#3B1B6A"/>
<path d="M1046.01 806.791C1047.7 807.027 1048.23 808.745 1046.94 810.939C1035.42 830.416 1018.2 851.803 997.984 847.756C995.145 847.188 994.865 842.945 998.592 843.75C1009.97 846.089 1020.86 837.201 1028.03 829.688C1029.63 828.011 1031.16 826.27 1032.63 824.481C1036.92 819.263 1040.67 813.631 1044.05 807.8C1044.05 807.8 1044.69 806.733 1046.01 806.791Z" fill="#3B1B6A"/>
<path fill-rule="evenodd" clip-rule="evenodd" d="M1003.64 699.389C1003.64 699.389 1000.17 700.429 994.063 702.949C989.727 704.742 984.081 707.277 977.386 710.702V710.715C976.95 710.944 976.499 711.173 976.049 711.403C974.999 711.943 973.922 712.508 972.831 713.102C971.631 713.749 970.39 714.423 969.136 715.124C967.922 715.798 966.681 716.499 965.427 717.227C957.245 721.933 949.609 726.976 943.227 731.494C943.145 731.546 943.077 731.6 942.995 731.654C939.149 734.351 935.768 736.845 932.999 738.962C931.677 739.96 930.49 740.878 929.468 741.686C926.509 744.005 924.831 745.407 924.831 745.407C918.218 732.114 909.913 713.708 909.34 712.778C909.354 712.845 909.218 716.85 909.286 717.025L900.449 891.861H669.259L668.918 885.281L659.945 713.762C659.945 713.762 654.927 727.582 645.654 746.513C645.613 746.486 645.586 746.445 645.545 746.418C644.44 745.515 643.131 744.504 641.631 743.398C640.731 742.751 639.79 742.063 638.781 741.349C638.522 741.146 638.236 740.958 637.963 740.755C637.581 740.499 637.199 740.23 636.831 739.96C632.972 737.25 628.472 734.216 623.604 731.115C619.104 728.257 614.304 725.373 609.395 722.648C607.186 721.434 604.963 720.248 602.727 719.115C602.168 718.832 601.609 718.549 601.063 718.279C599.399 717.457 597.736 716.662 596.072 715.92C595.854 715.812 595.636 715.717 595.418 715.623C595.199 715.515 594.981 715.421 594.763 715.326C593.331 714.693 591.218 713.789 588.777 712.737C585.968 711.537 582.749 710.149 579.668 708.841C579.095 708.598 578.522 708.355 577.963 708.113C572.195 705.645 567.327 703.582 567.327 703.582C567.327 703.582 567.79 702.72 568.663 701.142C570.286 698.203 573.327 692.742 577.459 685.623C578.127 684.463 578.822 683.263 579.545 682.023C582.245 677.439 585.313 672.288 588.681 666.76C590.563 663.659 592.554 660.436 594.627 657.119C610.063 632.499 630.054 603.187 649.254 582.868C670.309 560.567 695.29 553.434 716.086 552.221C726.613 551.6 736.077 552.504 743.386 553.717C751.077 554.985 758.822 555.902 766.581 556.508C774.34 557.102 782.14 557.385 789.94 557.385C800.522 557.385 811.09 556.764 821.604 555.511C828.559 554.675 838.063 553.946 848.822 554.203C849.818 554.23 850.813 554.257 851.836 554.297C876.586 555.281 907.09 561.713 928.418 583.852C950.249 606.517 969.804 637.043 983.495 661.016C996.013 682.94 1003.64 699.389 1003.64 699.389Z" fill="#158F96"/>
<path d="M723.308 548.648C728.054 548.671 732.803 548.948 737.519 549.49C765.625 552.72 793.581 555.324 822.552 552.006C862.195 547.613 904.594 553.639 932.442 583.159C963.74 616.335 987.477 657.062 1006.64 697.781L1007.04 699.366L1006.75 700.757L1005.9 701.906L1004.65 702.607C1004.46 702.666 1004.26 702.73 1004.07 702.792C995.394 705.646 987.133 709.524 979.026 713.657C979.026 713.657 973.93 716.295 969.448 718.822C954.409 727.297 940.097 737.16 927.02 747.991C927.02 747.991 923.537 750.457 921.459 746.263C918.733 740.763 916.09 735.182 913.472 729.607L912.875 728.33L912.201 726.888L903.854 892.029C903.445 893.681 902.41 894.858 900.449 895.231H669.259C667.57 894.91 666.331 893.949 665.854 892.033L665.513 885.455L657.342 729.257C654.875 734.973 652.296 740.611 649.585 746.209C649.574 746.23 648.736 747.96 648.724 747.978C648.452 748.386 648.111 748.744 647.804 749.128L646.479 749.783L644.997 749.82L643.521 749.146C641.353 747.313 639.035 745.707 636.743 744.05C624.055 734.876 609.646 725.848 594.614 718.966C585.147 714.633 576.061 710.96 566.833 707.04L564.837 705.883L564.11 704.698L563.927 703.326C563.927 703.326 566.005 698.897 568.088 695.182C570.702 690.521 573.369 685.889 576.053 681.266L576.595 680.333C596.721 646.217 617.806 612.114 644.474 583.025C663.944 561.789 691.79 549.104 721.369 548.659C722.015 548.648 722.661 548.648 723.308 548.648ZM905.935 712.935L906.769 710.565C908.416 709.291 910.194 708.677 912.302 711.108C912.722 711.836 912.77 712.017 912.983 712.463C917.365 721.651 921.556 730.931 926.005 740.089C926.005 740.089 931.086 736.098 935.563 732.817C948.224 723.54 961.602 715.053 975.473 707.902C975.473 707.902 982.896 704.12 988.714 701.561C992.076 700.082 995.479 698.69 998.931 697.43C979.598 657.506 957.211 619.297 927.456 587.758C900.437 559.118 855.038 555.378 818.016 559.303C792.544 561.905 766.918 560.79 741.464 556.823C710.765 552.126 677.862 559.705 654.878 581.992C636.035 600.266 621.175 622.462 606.617 644.697C594.452 663.275 583.009 682.332 572.326 701.543L572.105 701.944C575.854 703.539 579.601 705.139 583.348 706.738C602.451 714.917 621.023 724.795 638.067 736.694C640.461 738.366 643.658 740.688 643.658 740.688L644.419 741.252C648.875 731.915 653.084 722.445 656.684 712.765C656.684 712.765 657.869 710.485 659.781 710.395C661.093 710.333 662.451 710.071 663.35 713.588L672.323 885.107L672.497 888.49H897.207L905.869 717.092C905.774 715.338 905.919 712.598 905.935 712.935Z" fill="#3B1B6A"/>
<g style="mix-blend-mode:overlay">
<path d="M992.314 684.288L998.93 697.413C998.93 697.413 992.768 699.565 981.185 705.222C981.185 705.222 975.674 693.569 966.389 674.291C957.106 655.014 927.165 601.081 897.223 580.425C867.398 559.851 830.259 557.935 830.259 557.935C830.259 557.935 849.432 555.868 872.66 559.999C895.887 564.131 916.255 574.286 930.703 591.155C945.152 608.024 958.021 624.354 981.695 664.766L992.125 683.916L992.314 684.288Z" fill="black" fill-opacity="0.25"/>
</g>
<g style="mix-blend-mode:overlay">
<path d="M869.274 888.589L897.279 888.357L899.078 851.579L902.269 789.213L905.983 713.535L898.614 696.035C898.614 696.035 884.592 787.723 881.112 814.06C877.738 839.573 869.274 888.589 869.274 888.589Z" fill="black" fill-opacity="0.25"/>
</g>
<path fill-rule="evenodd" clip-rule="evenodd" d="M813.323 590.26C796.228 595.32 777.044 594.607 756.613 589.904C725.945 582.866 716.02 561.913 716.087 552.219C726.616 551.598 736.078 552.502 743.387 553.715C751.078 554.983 758.825 555.9 766.584 556.506C774.343 557.1 782.142 557.383 789.942 557.383C800.524 557.383 811.092 556.762 821.607 555.509C828.56 554.673 838.066 553.945 848.825 554.201C849.819 554.228 850.816 554.255 851.839 554.295C850.787 562.318 843.486 573.682 835.727 579.278C834.764 579.974 833.791 580.642 832.808 581.283" fill="#FFCE93"/>
<path d="M723.31 548.647C728.061 548.669 732.807 548.946 737.521 549.488C765.624 552.72 793.585 555.323 822.554 552.004C832.231 550.932 841.91 550.569 851.582 550.912C851.582 550.912 852.899 550.883 853.857 551.578C857.119 553.948 854.369 560.059 851.465 565.587C847.689 572.771 842.211 579.067 835.453 583.588C833.442 584.935 831.024 584.974 829.854 582.965C828.098 579.95 832.929 577.375 835.647 575.022C840.979 570.408 845.144 564.41 847.476 557.792C847.476 557.792 846.392 557.529 845.807 557.524C840.235 557.489 834.665 557.692 829.112 558.143C800.998 560.421 772.959 561.834 744.289 557.277C736.28 556.003 728.17 555.237 720.07 555.424L719.844 555.43C723.299 572.013 741.314 583.116 759.261 587.041C776.56 590.825 794.661 592.015 811.577 587.253L812.772 586.933C814.658 586.747 815.139 587.208 815.867 588.017C817.584 589.921 816.379 592.912 813.042 593.85C792.314 599.568 769.7 597.7 750.087 591.644C732.819 586.314 716.406 573.905 713.087 556.391C712.896 555.384 712.763 554.365 712.707 553.341C712.57 550.856 713.588 548.958 717.402 548.773C719.372 548.687 721.344 548.645 723.31 548.647Z" fill="#3B1B6A"/>
<path d="M996.106 691.786C996.106 691.786 941.08 706.583 922.171 732.112L918.415 724.077L917.908 723.031L914.485 715.633C937.032 689.024 988.789 677.66 988.789 677.66L990.659 681.175L993.286 686.167L996.106 691.786Z" fill="white" fill-opacity="0.3"/>
<path d="M580.482 687.142L584.297 680.658C584.297 680.658 632.318 690.864 654.864 717.471L651.444 725.692L651.316 726.021L647.56 734.432C628.651 708.903 576.043 694.945 576.043 694.945L580.06 687.889L580.482 687.142Z" fill="white" fill-opacity="0.3"/>
<path d="M900.41 687.968C901.725 688.046 902.894 688.857 903.436 690.075L912.422 711.645C913.682 714.889 908.188 718.696 906.199 714.237L897.213 692.667C896.961 692.017 896.949 691.776 896.949 691.343C896.948 689.496 897.935 687.948 900.41 687.968Z" fill="#3B1B6A"/>
<path d="M668.227 689.873C669.752 690.01 669.914 690.389 670.362 690.832C671.311 691.771 671.667 693.003 671.13 694.492L662.545 716.569C661.173 719.853 654.792 718.21 656.262 714.126L664.846 692.049C665.423 690.669 666.389 689.803 668.227 689.873Z" fill="#3B1B6A"/>
<path fill-rule="evenodd" clip-rule="evenodd" d="M626.249 433.941C626.224 434.243 626.198 434.544 626.17 434.843C623.292 466.676 641.776 496.425 670.997 506.553C673.876 507.551 676.884 508.56 680.029 509.576C692.884 513.731 706.992 517.945 722.654 520.386C742.216 523.465 763.858 524.82 786.898 524.82C809.233 524.82 830.24 523.542 849.312 520.668C864.951 518.316 879.275 514.893 891.949 510.215C944.738 490.755 968.914 449.661 939.883 374.273C938.879 371.679 937.85 369.136 936.786 366.658C929.635 349.931 921.613 335.876 913.112 324.094C896.038 300.43 877.003 285.876 858.996 277.008C832.895 264.179 808.958 263.311 796.259 264.09C789.912 264.474 783.598 264.474 777.249 264.09C764.335 263.297 739.729 264.23 713.078 277.736C695.083 286.873 676.131 301.759 659.213 325.755C659.213 325.755 632.406 360.251 626.249 433.941Z" fill="#00D3AE"/>
<path d="M803.386 260.516C841.618 260.669 878.494 278.92 904.208 307.601C932.479 339.135 950.871 380.846 955.022 419.313C957.342 440.806 953.548 463.692 940.197 481.213C923.92 502.576 897.054 513.873 870.514 520.076C836.997 527.908 802.198 529.09 767.682 527.861C735.713 526.72 704.264 521.367 673.189 510.872C641.12 500.04 619.829 468.133 622.814 434.103C626.097 396.677 633.553 358.738 654.212 327.013C680.697 286.34 726.979 258.372 776.174 260.656C784.936 261.116 793.707 260.566 802.614 260.516C802.87 260.516 803.128 260.516 803.386 260.516ZM802.641 267.257C793.182 267.31 783.92 267.668 774.237 267.322C729.955 265.875 687.879 291.135 661.971 327.737C654.916 337.003 650.052 348.325 645.759 359.588C636.598 383.623 631.819 409.062 629.607 434.686C627.023 463.708 643.355 493.312 672.128 503.374C719.022 519.558 771.452 524.154 823.922 520.117C850.085 518.104 876.418 513.952 900.087 503.246C922.186 493.251 941.586 475.486 947.053 450.187C954.759 414.527 939.684 376.872 923.929 347.797C907.977 318.361 884.511 291.829 852.741 277.82C837.016 270.886 819.878 267.217 802.641 267.257Z" fill="#3B1B6A"/>
<path d="M679 439.156C681.578 439.548 680.009 443.688 679.241 447.014C676.432 459.159 679.162 472.274 686.511 482.637C686.511 482.637 687.373 486.255 684.585 485.849C682.813 485.59 681.554 482.642 680.357 480.575C673.558 468.843 672.419 454.301 676.681 441.122C676.681 441.122 677.322 439.053 679 439.156Z" fill="#3B1B6A"/>
<path d="M777.417 247.003C779.63 247.232 781.298 249.497 783.051 251.451C785.224 253.872 786.91 256.716 787.951 259.792C787.951 259.792 793.369 255.814 794.914 251.594C794.914 251.594 795.396 250.604 796.232 250.349C797.938 249.829 799.782 251.52 798.08 254.359C795.586 258.52 791.828 261.919 788.166 265.352C788.166 265.352 785.209 266.636 784.602 263.141C783.668 258.091 780.257 253.666 776.065 250.657C776.065 250.657 775.355 250.09 775.242 249.306C775.067 248.095 775.824 246.935 777.417 247.003Z" fill="#3B1B6A"/>
<path d="M692.798 375.018C696.495 375.248 697.838 381.099 691.014 382.09C684.509 383.033 677.873 383.13 671.281 382.906C671.281 382.906 668.821 382.441 668.187 380.66C667.301 378.174 669.695 376.13 673.39 376.223C679.599 376.354 685.894 376.379 691.954 375.092C691.954 375.092 691.953 375.009 692.798 375.018Z" fill="#3B1B6A"/>
<path d="M876.13 375.147C876.13 375.147 877.159 375.305 878.056 375.444C884.254 376.382 890.506 376.98 896.77 377.221C896.77 377.221 900.023 378.083 900.055 380.554C900.077 382.319 898.536 383.896 896.689 383.959C896.344 383.955 896.345 383.951 895.988 383.938C889.092 383.649 882.21 382.987 875.423 381.85C875.423 381.85 873.114 381.239 872.599 379.404C872.014 377.324 873.434 375.013 876.13 375.147Z" fill="#3B1B6A"/>
<path d="M844.148 289.298C847.83 289.585 855.364 294.335 861.435 299.044C861.435 299.044 862.449 300.094 862.144 301.178C861.285 304.218 855.973 299.765 851.125 296.99C848.6 295.543 845.972 294.28 843.271 293.19C843.271 293.19 841.94 292.403 842.001 291.215C842.057 290.133 842.612 289.263 844.148 289.298Z" fill="#3B1B6A"/>
<g style="mix-blend-mode:overlay">
<path d="M867.227 514.329C867.227 514.329 867.788 514.181 868.76 513.913C872.999 512.745 885.734 509.645 893.314 506.435C902.629 502.487 927.084 492.398 939.227 471.151C953.292 446.54 948.432 420.902 948.432 420.902C948.432 420.902 946.768 388.224 921.925 343.978C893.676 293.66 858.711 281.09 858.711 281.09C858.711 281.09 915.679 323.993 929.495 416.462C932.705 437.938 924.755 465.719 911.059 482.686C901.086 495.038 888.804 502.987 868.76 513.913" fill="black" fill-opacity="0.25"/>
</g>
<path d="M819.772 328.598C821.46 328.841 821.136 329.236 822.053 330.946C833.463 351.784 854.936 367.083 876.691 376.932C876.691 376.932 878.594 378.515 877.517 379.991C876.686 381.129 874.994 380.614 873.529 379.938C851.847 369.853 831.706 355.198 819.505 334.654C818.752 333.386 817.771 331.475 817.771 331.475C817.221 330.136 818.194 328.537 819.772 328.598Z" fill="#3B1B6A"/>
<path d="M889.977 439.151C892.25 439.428 892.621 443.076 893.314 446.073C896.327 459.104 893.546 473.235 885.907 484.281C884.775 485.916 881.975 486.593 881.733 484.027C881.582 482.415 883.668 480.418 884.769 478.518C891.092 467.605 891.978 454.025 887.903 441.852C887.903 441.852 887.893 439.089 889.977 439.151Z" fill="#3B1B6A"/>
<path fill-rule="evenodd" clip-rule="evenodd" d="M827.038 521.277V556.765C827.038 557.075 827.011 557.385 826.956 557.669C826.669 559.142 825.767 560.478 824.402 561.504C824.116 561.72 823.842 561.91 823.528 562.085C810.185 569.702 796.939 572.185 785.11 572.037C784.619 572.037 784.114 572.023 783.623 571.997C766.236 571.51 752.116 565.475 745.588 562.179C745.369 562.058 745.123 561.937 744.932 561.774C744.249 561.383 743.689 560.884 743.225 560.357C743.129 560.262 743.061 560.168 743.005 560.072C742.624 559.668 742.378 559.208 742.201 558.722C742.131 558.655 742.104 558.588 742.104 558.507C741.981 558.249 741.913 557.966 741.845 557.669C741.763 557.344 741.722 557.007 741.722 556.67V521.25C741.722 521.25 741.736 521.25 741.736 521.263C747.623 524.396 753.481 527.096 758.93 529.325C770.061 533.903 779.579 536.455 784.4 536.455C787.049 536.455 791.12 535.699 796.092 534.24C804.586 531.77 815.785 527.286 827.038 521.277Z" fill="#FFD0C2"/>
<path d="M742.04 517.894L743.476 518.362C755.593 524.782 768.29 530.91 781.708 532.854C787.27 533.662 792.959 531.765 798.335 530.019C807.695 526.977 816.724 522.937 825.422 518.308C825.422 518.308 826.774 517.677 828.023 518.05C829.418 518.466 830.374 519.806 830.447 521.277V556.783C830.359 564.871 819.554 568.54 810.947 571.416C789.462 578.593 764.646 575.369 744.698 565.512C744.297 565.313 743.894 565.118 743.509 564.891C741.957 563.978 740.474 562.369 740.474 562.369C739.486 561.112 738.364 560.02 738.313 556.696V521.25C738.409 519.326 739.984 517.804 742.04 517.894ZM745.131 556.645C745.172 559.3 746.735 558.956 747.182 559.2C758.27 564.767 770.594 568.131 782.941 568.602C796.464 569.117 810.159 565.851 821.901 559.122C823.055 558.426 823.629 556.748 823.629 556.748V526.834C812.005 532.599 799.919 538.073 787.384 539.623C781.604 540.336 775.724 538.712 770.033 536.947C761.47 534.293 753.204 530.775 745.164 526.819L745.131 526.803C745.131 536.751 745.131 546.697 745.131 556.645Z" fill="#3B1B6A"/>
<g style="mix-blend-mode:overlay">
<path d="M805.795 565.901C810.906 564.355 814.989 562.805 820.482 559.982C820.722 559.859 822.293 558.972 822.495 558.808C823.107 558.307 823.291 558.046 823.577 557.093C823.645 556.865 823.599 555.542 823.599 555.282V526.711C818.417 529.606 813.597 531.294 808.992 533.377L809.044 556.07C809.044 558.209 808.734 560.346 808.01 562.386C807.436 564.007 806.978 565.023 805.795 565.901Z" fill="black" fill-opacity="0.25"/>
</g>
<path fill-rule="evenodd" clip-rule="evenodd" d="M692.607 406.107V445.163C687.089 445.551 681.178 443.728 676.341 439.678C667.24 432.025 665.443 419.365 672.305 411.368C677.188 405.688 685.139 403.911 692.607 406.107Z" fill="#FFD0C2"/>
<path d="M686.663 401.827C688.932 401.863 691.19 402.203 693.377 402.818C693.377 402.818 695.942 403.937 696.016 406.108V445.163C695.965 446.615 695.74 446.621 695.389 447.111C694.394 448.5 692.399 448.632 690.421 448.574C672.304 448.04 655.911 424.584 669.984 408.871C674.112 404.261 680.352 401.776 686.663 401.827ZM686.286 408.567C679.157 408.628 672.4 414.02 671.634 421.228C670.619 430.777 678.834 440.478 689.076 441.724L689.198 408.79C688.966 408.755 688.734 408.722 688.501 408.694C687.766 408.61 687.027 408.567 686.286 408.567Z" fill="#3B1B6A"/>
<path d="M682.614 419.989C686.327 420.317 682.666 430.797 691.191 433.199C691.191 433.199 692.155 433.557 692.493 434.402C693.199 436.163 691.282 437.683 688.433 436.593C682.815 434.442 679.583 427.7 680.51 421.644C680.714 420.648 681.381 419.942 682.614 419.989Z" fill="#3B1B6A"/>
<path fill-rule="evenodd" clip-rule="evenodd" d="M892.191 440.01C887.353 444.06 881.443 445.883 875.924 445.495V406.44C883.393 404.242 891.344 406.022 896.228 411.701C903.089 419.698 901.291 432.357 892.191 440.01Z" fill="#FFD0C2"/>
<path d="M882.355 402.146C894.094 402.199 904.561 412.698 903.681 424.717C902.71 437.985 889.941 449.571 876.171 449.007C874.225 448.928 872.493 448.005 872.421 445.619L872.594 406.482C872.732 402.908 878.368 402.163 882.355 402.146ZM882.002 408.905C880.926 408.928 879.387 409.139 879.387 409.139L879.241 442.156C879.429 442.135 879.618 442.11 879.805 442.083C891.796 440.272 902.175 425.721 894.354 414.773C891.628 410.957 886.863 408.844 882.002 408.905Z" fill="#3B1B6A"/>
<path d="M885.918 420.321C889.796 420.567 888.16 430.505 883.783 434.543C881.245 436.883 877.144 438.623 875.946 436.5C874.673 434.244 879.544 433.272 881.526 431.075C883.545 428.836 884.146 425.627 883.808 422.653C883.655 421.432 884.44 420.301 885.918 420.321Z" fill="#3B1B6A"/>
<path fill-rule="evenodd" clip-rule="evenodd" d="M917.502 1103.29H649.315L665.147 934.928L669.197 891.861H900.374L906.92 972.586L908.42 991.166L917.502 1103.29Z" fill="#86E7CF"/>
<path d="M900.936 888.536C903.278 889.124 903.424 889.493 903.773 891.591L910.318 972.318L911.818 990.897L920.9 1103.02C920.896 1104.63 920.65 1104.69 920.353 1105.14C919.787 1105.99 919.344 1106.51 917.502 1106.66H649.315C647.683 1106.53 647.641 1106.28 647.211 1105.94C646.394 1105.31 645.904 1104.82 645.921 1102.98L661.753 934.616L665.803 891.55C665.803 891.55 666.208 888.733 669.197 888.49H900.375C900.561 888.505 900.749 888.521 900.936 888.536ZM672.304 895.232L668.541 935.239L653.056 1099.92H913.809L905.022 991.434L903.522 972.854L897.227 895.232C822.253 895.232 747.279 895.232 672.304 895.232Z" fill="#3B1B6A"/>
<g style="mix-blend-mode:overlay">
<path d="M772.834 895.281H795.812V977.901H772.834V895.281Z" fill="black" fill-opacity="0.25"/>
</g>
<path d="M858.233 904.984C860.247 905.138 860.909 908.819 858.233 909.024C853.674 909.14 849.111 909.026 844.551 909.026C842.544 908.975 841.497 904.981 844.551 904.981C849.111 904.98 853.674 904.868 858.233 904.984Z" fill="#3B1B6A"/>
<path d="M833.267 905.012C835.313 905.554 835.329 908.816 832.913 909.025H668.138C665.998 908.841 665.507 905.208 668.138 904.98H832.913C833.031 904.991 833.15 905.001 833.267 905.012Z" fill="#3B1B6A"/>
<path d="M719.916 919.943C722.944 920.351 720.458 925.534 718.267 929.437C709.554 944.952 694.467 957.619 676.572 959.942C676.572 959.942 674.785 959.922 674.332 958.62C673.897 957.365 674.368 956.189 676.685 955.825C694.953 952.769 710.378 938.198 717.848 921.17C717.848 921.17 718.699 919.89 719.916 919.943Z" fill="#3B1B6A"/>
<path d="M847.262 919.944C849.058 920.188 849.055 921.389 849.46 922.285C857.196 939.143 872.409 953.726 890.773 955.918C890.773 955.918 892.681 956.584 892.586 958.087C892.424 960.641 887.855 959.66 884.359 958.636C867.123 953.588 852.878 939.932 845.406 923.152C845.406 923.152 844.827 919.833 847.262 919.944Z" fill="#3B1B6A"/>
<g style="mix-blend-mode:overlay">
<path d="M873.22 1099.96H913.317L896.779 895.131H869.274L873.22 1099.96Z" fill="black" fill-opacity="0.25"/>
</g>
<path fill-rule="evenodd" clip-rule="evenodd" d="M876.055 378.584V450.403C876.055 479.187 851.387 504.776 827.228 521.346C827.228 521.346 827.214 521.346 827.214 521.359V521.332C815.956 527.336 804.762 531.821 796.265 534.295C791.3 535.75 787.221 536.51 784.577 536.51C779.755 536.51 770.229 533.959 759.1 529.386C753.654 527.156 747.803 524.451 741.912 521.32C741.912 521.307 741.899 521.307 741.899 521.307C717.728 504.724 693.072 479.148 693.072 450.403L692.837 378.454C738.265 369.948 772.797 340.325 781.952 331.812C783.166 330.683 785.048 330.682 786.263 331.811C795.462 340.363 830.299 370.234 876.055 378.584Z" fill="#FFD0C2"/>
<path d="M784.257 327.596C786.242 327.664 787.93 328.748 789.512 330.197C814.004 352.439 843.769 369.199 876.681 375.27C876.681 375.27 879.248 375.809 879.464 378.584C879.464 402.644 879.545 426.704 879.463 450.764C879.222 474.564 862.982 496.049 845.702 511.28C840.449 515.909 835.16 520.533 829.1 524.159C829.1 524.159 827.847 524.824 826.685 525.428C814.639 531.633 802.033 537.464 788.653 539.524C772.585 541.999 755.41 532.198 741.422 524.883C740.969 524.646 732.964 519.323 726.208 513.637C723.383 511.258 720.636 508.786 717.991 506.213C702.469 491.119 689.736 472.308 689.663 450.414L689.428 378.466C689.645 375.569 690.717 375.441 693.756 374.843C725.007 368.558 754 352.322 777.654 331.148C779.588 329.415 781.551 327.567 784.257 327.596ZM783.829 334.693C759.2 357.277 728.952 374.384 696.256 381.218C696.331 404.489 696.252 427.761 696.485 451.032C696.815 470.848 709.562 488.696 723.279 501.897C729.471 507.857 736.22 513.247 743.288 518.155L743.728 518.458C755.821 524.86 768.456 530.965 781.883 532.91C787.45 533.716 793.133 531.82 798.508 530.073C807.869 527.028 816.887 522.991 825.572 518.379C826.033 518.061 826.493 517.741 826.952 517.419C849.837 501.266 871.339 479.627 872.594 452.603C872.63 451.868 872.644 451.133 872.646 450.398V381.362C839.457 374.577 808.906 357.172 784.389 334.694C784.389 334.694 784.362 334.2 783.829 334.693ZM738.579 522.162L738.752 522.58C738.752 522.58 738.437 520.974 738.579 522.162Z" fill="#3B1B6A"/>
<g style="mix-blend-mode:overlay">
<path d="M872.63 381.164C872.695 381.815 872.63 382.484 872.63 383.111L872.545 448.036C872.659 468.556 863.037 484.556 849.23 498.619C836.038 512.057 823.948 522.888 792.951 531.364C806.84 527.8 826.888 509.577 836.389 499.502C848.338 486.834 858.653 469.792 858.654 448.079L858.545 377.627C858.545 377.627 862.926 378.902 864.991 379.423C867.057 379.943 870.619 380.725 871.438 380.917C872.256 381.108 872.63 381.164 872.63 381.164Z" fill="black" fill-opacity="0.25"/>
</g>
<path d="M741.83 419.711C749.727 419.711 749.739 407.576 741.83 407.576C733.933 407.576 733.919 419.711 741.83 419.711Z" fill="#3B1B6A"/>
<path d="M827.071 419.711C834.969 419.711 834.981 407.576 827.071 407.576C819.174 407.576 819.162 419.711 827.071 419.711Z" fill="#3B1B6A"/>
<path d="M789.206 434.433C791.823 434.582 793.329 438.573 788.945 440.094C784.478 441.644 776.961 441.085 777.576 436.775C777.847 434.881 780.107 434.241 782.104 435.031C784.718 436.029 787.673 434.4 789.206 434.433Z" fill="#3B1B6A"/>
<path d="M757.931 367.911C761.09 368.129 762.993 373.36 758.56 374.558L731.436 381.087C728.084 381.797 725.173 375.799 729.858 374.532L756.982 368.003C757.369 367.921 757.479 367.905 757.931 367.911Z" fill="#3B1B6A"/>
<path d="M815.107 369.11C815.293 369.129 815.472 369.157 815.653 369.195L840.992 375.273C843.587 375.97 843.393 376.846 843.576 378.076C843.896 380.227 841.748 382.322 839.42 381.828L814.081 375.75C811.602 375.087 811.764 374.277 811.529 373.128C811.108 371.079 812.473 368.984 815.107 369.11Z" fill="#3B1B6A"/>
<path d="M749.11 443.77C749.11 449.677 741.721 454.465 732.605 454.465C723.49 454.465 716.101 449.676 716.101 443.769C716.101 437.862 723.49 433.074 732.606 433.074C741.722 433.074 749.11 437.863 749.11 443.77Z" fill="white" fill-opacity="0.3"/>
<path d="M852.23 443.772C852.23 449.679 844.84 454.467 835.724 454.467C826.61 454.467 819.22 449.678 819.22 443.771C819.22 437.864 826.61 433.076 835.726 433.076C844.842 433.076 852.231 437.865 852.23 443.772Z" fill="white" fill-opacity="0.3"/>
<g style="mix-blend-mode:overlay">
<path d="M851.494 413.203C851.494 427.827 839.504 439.681 824.728 439.681C823.033 439.681 821.379 439.526 819.775 439.217C818.537 438.997 817.325 438.689 816.152 438.29C814.615 437.774 813.143 437.13 811.761 436.37C809.468 435.12 807.396 433.548 805.584 431.718C800.867 426.95 797.948 420.406 797.948 413.203C797.948 399.249 808.869 387.807 822.721 386.815C823.385 386.75 824.05 386.725 824.728 386.725C826.694 386.725 828.624 386.931 830.473 387.343C832.051 387.678 833.575 388.155 835.034 388.774C836.195 389.238 837.302 389.792 838.37 390.435C846.229 395.036 851.494 403.514 851.494 413.203Z" fill="black" fill-opacity="0.25"/>
</g>
<g style="mix-blend-mode:overlay">
<path d="M769.735 413.203C769.735 427.827 757.746 439.681 742.97 439.681C741.275 439.681 739.621 439.526 738.017 439.217C736.78 438.997 735.568 438.689 734.395 438.29C732.857 437.774 731.384 437.13 730.003 436.37C727.711 435.12 725.638 433.548 723.827 431.718C719.11 426.95 716.191 420.406 716.191 413.203C716.191 399.249 727.111 387.807 740.963 386.815C741.628 386.75 742.292 386.725 742.97 386.725C744.938 386.725 746.866 386.931 748.716 387.343C750.293 387.678 751.817 388.155 753.278 388.774C754.437 389.238 755.544 389.792 756.613 390.435C764.47 395.036 769.735 403.514 769.735 413.203Z" fill="black" fill-opacity="0.25"/>
</g>
<path d="M830.475 387.344L811.761 436.37C809.469 435.12 807.396 433.549 805.585 431.72L822.721 386.816C823.386 386.752 824.05 386.727 824.728 386.727C826.696 386.727 828.624 386.932 830.475 387.344Z" fill="white" fill-opacity="0.3"/>
<path d="M838.371 390.437L819.777 439.219C818.539 438.999 817.326 438.69 816.154 438.291L835.036 388.775C836.195 389.238 837.304 389.792 838.371 390.437Z" fill="white" fill-opacity="0.3"/>
<path d="M748.716 387.344L730.003 436.37C727.711 435.12 725.638 433.549 723.827 431.72L740.963 386.816C741.628 386.752 742.292 386.727 742.97 386.727C744.938 386.727 746.866 386.932 748.716 387.344Z" fill="white" fill-opacity="0.3"/>
<path d="M756.613 390.437L738.017 439.219C736.78 438.999 735.568 438.69 734.395 438.291L753.278 388.775C754.437 389.238 755.544 389.792 756.613 390.437Z" fill="white" fill-opacity="0.3"/>
<path d="M743.549 383.059C757.188 383.189 770.048 393.724 772.669 407.536C775.266 421.225 767.145 436.206 754.298 441.334C738.929 447.467 719.215 438.163 714.594 421.324C709.792 403.821 723.376 383.376 742.972 383.061C743.164 383.059 743.357 383.059 743.549 383.059ZM743.207 389.877C732.716 389.978 722.777 398.046 720.693 408.677C718.078 422.012 729.317 436.434 743.057 436.61C753.12 436.738 762.809 429.512 765.585 419.638C769.364 406.195 759.06 390.415 744.102 389.889C743.804 389.879 743.505 389.877 743.207 389.877Z" fill="#3B1B6A"/>
<path d="M825.308 383.194C838.962 383.325 851.807 393.859 854.427 407.671C857 421.239 849.073 436.088 836.393 441.331C821.105 447.653 801.177 438.622 796.402 421.639C791.458 404.049 805.346 383.508 824.73 383.197C824.922 383.194 825.115 383.194 825.308 383.194ZM824.965 390.012C814.473 390.113 804.535 398.183 802.451 408.813C799.841 422.129 811.009 436.568 824.815 436.745C834.916 436.874 844.644 429.609 847.381 419.636C851.055 406.246 840.86 390.552 825.86 390.024C825.562 390.015 825.264 390.012 824.965 390.012Z" fill="#3B1B6A"/>
<path d="M784.351 407.358C790.321 407.437 796.628 409.624 800.731 413.521C803.209 415.875 799.982 421.277 795.646 418.148C789 413.427 779.637 412.81 772.779 418.024C769.969 420.161 770.082 419.913 768.257 418.87C765.685 417.4 766.764 413.713 770.545 411.36C774.7 408.774 779.247 407.327 784.351 407.358Z" fill="#3B1B6A"/>
<path d="M692.809 393.739C693.394 393.798 693.747 393.855 694.474 394.318L718.477 410.515C721.34 412.556 718.69 418.643 714.707 416.103L690.703 399.907C688.208 398.127 688.945 393.551 692.809 393.739Z" fill="#3B1B6A"/>
<path d="M876.043 393.628C878.883 393.785 880.603 397.799 877.794 399.803L853.789 416.003C850.888 417.852 845.843 413.391 850.018 410.414L874.023 394.215C874.589 393.853 874.585 393.623 876.043 393.628Z" fill="#3B1B6A"/>
<path d="M785.041 458.272C791.589 458.37 798.471 460.035 802.924 464.595C805.476 467.21 801.606 472.544 797.642 468.917C790.711 462.803 776.832 463.609 771.297 469.338C771.297 469.338 769.87 470.587 768.293 470.339C765.704 469.929 764.435 466.45 766.943 464.113C771.424 459.938 778.018 458.367 784.332 458.272C784.688 458.271 784.686 458.271 785.041 458.272Z" fill="#3B1B6A"/>
<path fill-rule="evenodd" clip-rule="evenodd" d="M636.83 739.96C636.83 739.96 633.421 746.122 627.339 755.265C617.671 769.799 601.28 791.899 581.166 808.807C582.407 807.742 583.662 806.432 584.957 804.895C584.971 804.882 584.971 804.87 584.984 804.855C599.998 786.868 599.357 754.2 596.071 715.92C597.734 716.663 599.398 717.458 601.062 718.279C601.621 718.549 602.18 718.832 602.725 719.115C604.962 720.248 607.184 721.435 609.394 722.648C614.303 725.373 619.103 728.257 623.603 731.115C628.471 734.217 632.971 737.25 636.83 739.96Z" fill="#FFD0C2"/>
<path d="M596.458 712.57C597.132 712.682 597.275 712.771 597.479 712.849C611.89 719.313 625.191 727.731 638.065 736.694C638.065 736.694 641.314 738.979 639.164 742.733C624.586 767.931 606.49 791.58 584.334 810.561C584.334 810.561 581.915 812.883 579.711 811.854C577.229 810.696 577.351 807.77 579.739 805.529C591.218 794.509 593.72 776.949 594.404 761.291C595.062 746.245 593.948 731.201 592.674 716.201C592.674 716.201 593.271 712.375 596.458 712.57ZM599.983 721.886C601.731 744.295 603.522 767.326 597.144 788.55L597.095 788.712C610.482 774.132 622.193 758.062 632.248 741.096L632.333 740.953C621.98 733.83 611.454 727.231 599.956 721.497C599.956 721.497 599.971 721.731 599.983 721.886Z" fill="#3B1B6A"/>
<path fill-rule="evenodd" clip-rule="evenodd" d="M574.221 616.418C577.57 629.102 580.727 641.835 583.654 654.62C587.563 671.71 590.684 680.765 593.459 698.261C593.994 701.632 596.124 715.61 596.409 718.926C599.697 757.206 599.995 786.867 584.982 804.854C584.968 804.868 584.968 804.88 584.954 804.894C583.659 806.432 582.404 807.739 581.164 808.805L580.836 809.087C580.741 809.183 580.645 809.262 580.55 809.316V809.329C571.782 816.529 564.404 812.998 559.304 808.913C535.836 790.131 526.317 742.314 524.203 709.267C523.189 693.419 521.305 667.511 521.069 637.893L518.678 561.147C518.333 555.449 518.248 554.819 517.641 551.025C516.257 542.356 512.894 539.811 507.582 537.357C507.535 537.335 507.488 537.314 507.441 537.292C497.316 532.696 483.754 526.422 467.697 512.154C462.173 507.258 462.194 505.895 460.213 501.942C459.699 500.942 458.69 500.37 457.964 499.932C456.595 499.078 455.447 497.894 454.682 496.481C450.017 487.762 447.398 469.174 447.209 467.761C447.189 467.71 447.173 467.663 447.152 467.611C443.9 462.701 440.899 455.342 441.481 452.08C442.339 447.327 445.872 448.57 446.845 449.118C446.882 449.142 446.909 449.149 446.949 449.16C447.14 449.211 447.364 449.141 447.478 448.984C448.247 447.98 449.495 447.404 450.769 447.542C457.564 448.2 457.641 457.217 457.614 458.765C457.603 458.907 457.67 459.039 457.774 459.14C459.713 460.893 460.003 466.672 460.036 467.731C460.037 467.832 460.078 467.944 460.159 468.023C460.898 468.838 465.389 473.361 479.084 480.922C490.693 487.324 499.805 488.727 503.438 489.017C503.935 489.063 504.164 488.435 503.761 488.154C496.914 483.408 488.146 476.251 487.261 470.142C485.796 459.962 493.328 463.32 495.954 465.488C498.568 467.653 521.417 485.714 535.184 493.279C547.182 499.856 554.841 512.487 551.758 530.048C551.349 532.375 563.304 575.032 563.894 577.305L574.221 616.418Z" fill="#FFD0C2"/>
<path d="M450.546 444.153C456.668 444.341 460.733 451.318 461.007 457.581C461.007 457.581 463.01 461.92 463.362 466.19C463.362 466.19 469.389 471.291 475.092 474.725C480.366 477.902 485.799 480.82 491.635 482.893C491.635 482.893 492.025 483.211 490.539 481.718C486.085 477.155 481.884 471.144 484.167 464.312C484.853 462.261 486.505 460.537 488.701 460.002C492.92 458.97 496.959 461.978 499.96 464.366C511.99 473.888 524.243 483.215 537.447 490.673C539.349 491.769 539.841 492.122 540.962 492.929C552.343 501.11 557.503 515.955 555.192 530.187C555.192 530.187 557.082 538.966 559.089 546.593C568.712 583.15 578.964 619.561 587.519 656.212C592.566 677.669 598.104 698.083 600.106 722.219C601.622 741 603.077 759.993 599.772 778.573C597.991 788.587 594.518 798.515 587.987 806.544C585.973 809.022 584.717 810.228 583.159 811.558C582.587 812.047 582.499 812.113 582.263 812.297C577.03 816.416 569.743 818.013 563.556 815.443C552.214 810.732 544.654 798.962 538.853 787.126C525.415 759.71 521.997 728.21 520.037 697.703C518.802 678.261 517.879 658.771 517.673 639.313L517.66 637.96L515.271 561.302C514.873 554.783 514.723 547.39 511.04 543.54C508.793 541.192 505.583 540.172 502.549 538.769C487.941 531.977 473.945 523.581 462.676 512.079C460.356 509.711 458.772 506.725 457.326 503.779C456.801 502.709 455.469 502.386 454.662 501.709C453.876 501.051 453.169 500.3 452.564 499.475C448.892 494.462 447.647 487.852 446.18 481.223C445.289 477.201 444.553 473.145 443.952 469.072C443.952 469.072 437.776 458.462 438.006 452.609C438.175 448.325 441.797 444.385 446.387 445.375C446.387 445.375 448.221 444.122 450.546 444.153ZM450.392 450.894C449.899 450.917 449.832 451.502 449.334 451.847C446.783 453.62 444.152 449.66 444.938 454.17C445.628 458.127 447.522 461.861 449.729 465.344L450.589 467.313C450.644 467.726 450.704 468.139 450.766 468.551C452.147 477.677 453.237 487.611 457.827 495.133C457.989 495.4 458.176 495.654 458.382 495.891C459.82 497.549 462.118 498.3 463.25 500.412C464.405 502.74 463.161 501.613 465.788 505.308C468.358 508.922 472.16 511.649 475.748 514.526C485.879 522.654 497.443 528.919 509.288 534.427C518.101 538.581 521.292 548.052 522.084 560.994L524.479 637.828C524.811 675.402 524.619 713.082 533.989 752.258C538.689 771.914 545.128 792.377 560.443 805.463C560.844 805.805 561.252 806.141 561.666 806.467C565.111 809.173 569.788 811.143 574.259 809.289C576.83 808.223 579.609 805.711 578.489 806.646C578.489 806.646 582.681 802.724 585.209 798.837C594.219 784.976 594.983 767.617 594.824 751.464C594.718 740.653 593.971 729.864 593 719.075C589.739 685.484 580.377 653.276 571.235 618.457C563.803 590.257 554.961 562.483 548.856 533.611C547.774 528.491 549.451 523.212 548.732 517.918C547.358 507.801 539.421 499.759 530.75 494.636C518.185 487.151 506.439 478.211 495.055 469.118C493.591 467.947 490.604 466.557 490.604 466.557C489.088 472.264 496.198 478.215 501.533 482.339C503.326 483.725 505.985 485.594 505.985 485.594C507.313 486.789 507.267 487.305 507.357 488.125C507.629 490.595 505.703 492.64 502.339 492.303C486.224 490.591 471.184 482.211 459.545 472.111C458.728 471.402 457.619 470.277 457.619 470.277C456.816 469.352 456.879 470.536 456.545 466.478C456.358 464.425 455.614 461.765 455.431 461.59C452.899 459.16 455.701 461.361 453.661 454.347C453.601 454.139 453.534 453.931 453.459 453.728C452.858 452.082 450.593 450.894 450.392 450.894Z" fill="#3B1B6A"/>
<path d="M507.505 507.105C508.449 507.188 508.558 507.43 508.951 507.6C512.093 508.92 515.605 508.782 518.994 508.024C520.648 507.67 520.966 507.639 521.918 507.523C528.777 506.686 535.34 509.419 541.187 513.857C543.237 515.392 541.802 519.391 538.707 517.073C533.016 512.754 526.355 510.606 518.599 512.262C514.521 513.093 510.229 512.775 506.526 510.952C504.924 510.163 504.934 507.264 507.346 507.104C507.399 507.104 507.452 507.104 507.505 507.105Z" fill="#3B1B6A"/>
<path d="M447.747 445.629C448.423 445.7 448.622 445.789 448.985 445.966C451.57 447.227 450.407 451.091 450.231 454.714C452.75 453.499 453.053 453.935 454.208 454.041C456.306 454.234 458.297 455.193 459.94 456.529C459.94 456.529 461.654 458.367 461.004 460.235C460.269 462.348 457.392 463.082 455.428 461.592C454.412 460.843 453.599 459.457 452.78 462.558C451.786 466.324 451.648 470.303 451.674 474.256C451.674 474.256 451.054 477.37 448.633 477.629C446.506 477.858 445.078 476.058 444.64 473.136C443.431 464.9 442.259 456.43 444.137 448.3C444.137 448.3 444.809 445.477 447.747 445.629Z" fill="#3B1B6A"/>
<path d="M466.051 475.84C472.261 476.03 474.354 485.006 473.923 490.664C473.802 492.259 473.443 494.537 473.443 494.537C473.65 494.742 473.855 494.948 474.058 495.156C475.258 496.391 476.875 498.187 476.875 498.187C477.024 498.219 477.173 498.256 477.32 498.294C482.217 499.57 488.286 501.652 486.546 505.645C485.764 507.439 483.475 508.08 481.489 507.131C476.633 504.809 477.426 505.37 474.724 504.606C472.062 503.793 470.435 501.132 468.358 499.043C468.358 499.043 466.325 496.015 466.825 492.756C467.393 488.94 467.406 484.078 465.944 482.669C462.773 486.989 461.476 495.106 463.437 500.872C463.437 500.872 463.898 503.27 462.413 504.516C460.531 506.095 457.529 505.08 456.651 501.993C454.534 494.553 456.385 486.094 459.754 479.781C460.967 477.508 463.304 475.821 466.051 475.84Z" fill="#3B1B6A"/>
<path d="M460.215 464.225C461.727 464.329 463.029 465.448 463.37 466.948C464.271 471.833 464.975 476.753 465.776 481.657C466.253 485.016 460.226 487.637 459.148 482.882C458.246 477.997 457.544 473.077 456.743 468.173C456.446 466.096 457.803 464.163 460.215 464.225Z" fill="#3B1B6A"/>
<g style="mix-blend-mode:overlay">
<path d="M626.279 736.896L632.338 740.957C632.338 740.957 629.179 746.384 624.036 754.06L623.754 754.49C616.883 764.748 606.884 778.536 597.118 788.648L599.339 779.689L599.6 777.852L600.297 772.746C616.311 746.927 621.028 733.494 621.028 733.494L625.731 736.531L626.279 736.896Z" fill="black" fill-opacity="0.25"/>
</g>
<g style="mix-blend-mode:overlay">
<path d="M591.301 784.909C586.896 797.759 584.919 799.486 579.464 805.795C574.01 812.105 566.933 810.38 562.992 807.63C604.842 780.001 571.438 637.445 567.976 623.57C564.242 608.606 549.178 535.997 548.742 533.26C550.037 538.168 559.446 573.898 560.196 577.093C561.014 580.545 572.619 623.799 574.133 630.001C575.633 636.19 584.455 672.69 584.455 672.69C584.455 672.69 587.796 685.619 590.837 704.591C593.619 721.944 594.314 736.019 594.546 743.14C594.546 743.14 595.719 772.061 591.301 784.909Z" fill="black" fill-opacity="0.25"/>
</g>
<path fill-rule="evenodd" clip-rule="evenodd" d="M551.814 529.996C551.814 529.996 549.571 535.676 546.1 539.165Z" fill="#FFD0C2"/>
<path d="M551.877 526.559C554.898 526.658 555.596 530.161 553.589 534.087C551.504 538.17 548.58 543.809 544.788 542.282C542.63 541.412 542.113 538.457 544.071 536.338C547.289 532.763 547.91 526.559 551.877 526.559Z" fill="#3B1B6A"/>
<path d="M575.613 796.589C577.425 796.691 578.283 798.942 576.232 800.735C573.316 803.288 568.718 804.358 565.34 801.884C563.745 800.717 563.568 797.765 566.092 797.821C567.347 797.849 568.157 799.236 569.59 799.397C572.124 799.679 573.551 796.561 575.613 796.589Z" fill="#3B1B6A"/>
<path d="M994.245 796.844C996.867 797.033 998.462 801.169 1002.51 798.405C1004.45 797.198 1008.39 800.118 1003.23 802.837C999.805 804.639 995.263 803.159 992.587 800.169C991.559 798.917 992.398 796.789 994.245 796.844Z" fill="#3B1B6A"/>
<path fill-rule="evenodd" clip-rule="evenodd" d="M987.49 808.805C968.44 792.787 952.718 772.117 942.9 757.623C935.836 747.187 931.827 739.959 931.827 739.959C932.222 739.676 932.618 739.338 933 738.961C935.768 736.845 939.15 734.35 942.995 731.653C943.077 731.599 943.144 731.545 943.227 731.493C949.609 726.976 957.245 721.932 965.427 717.227C966.681 716.499 967.921 715.798 969.136 715.124C970.39 714.423 971.631 713.749 972.831 713.102C972.736 714.153 972.654 715.124 972.586 715.918C969.354 753.578 968.686 785.801 982.963 803.965C983.195 804.261 983.427 804.558 983.672 804.853C983.686 804.868 983.686 804.881 983.699 804.895C984.995 806.431 986.249 807.74 987.49 808.805Z" fill="#FFD0C2"/>
<path d="M973.228 709.754C975.878 710.199 976.231 713.308 975.983 716.202C974.264 736.437 972.429 756.765 975.805 776.856C977.627 787.694 981.115 798.721 989.626 806.174C989.626 806.174 991.314 807.956 990.752 809.786C989.982 812.292 986.829 812.706 983.92 810.216C961.647 791.017 943.3 767.256 928.892 741.677C928.892 741.677 928.179 738.92 930.61 736.557C930.61 736.557 934.375 733.663 937.521 731.393C948.001 723.837 958.894 716.815 970.284 710.637C971.106 710.191 971.989 709.675 973.228 709.754ZM968.534 719.341C957.492 725.654 946.936 732.723 936.684 740.415L936.218 740.768C946.231 757.742 958.004 773.83 971.274 788.399L971.573 788.724C971.458 788.35 971.348 787.975 971.239 787.601C964.982 765.724 967.019 742.316 968.893 719.161C968.893 719.161 968.665 719.265 968.534 719.341Z" fill="#3B1B6A"/>
<path fill-rule="evenodd" clip-rule="evenodd" d="M1121.51 467.611C1121.48 467.665 1121.47 467.706 1121.44 467.76C1121.26 469.175 1118.63 487.755 1113.97 496.479C1113.21 497.895 1112.06 499.081 1110.7 499.93C1109.96 500.362 1108.95 500.942 1108.45 501.939C1106.47 505.89 1106.48 507.252 1100.96 512.16C1084.9 526.425 1071.34 532.695 1061.21 537.292C1061.17 537.306 1061.11 537.333 1061.07 537.36C1056.6 539.423 1053.51 541.553 1051.81 547.337C1051.5 548.429 1051.23 549.643 1051.01 551.018C1050.41 554.82 1050.33 555.441 1049.97 561.144L1049.91 563.355L1047.59 637.89C1047.36 667.512 1045.47 693.414 1044.45 709.27C1042.34 742.317 1032.82 790.128 1009.35 808.91C1004.25 812.996 996.874 816.528 988.105 809.328V809.315C988.01 809.261 987.915 809.18 987.819 809.086L987.492 808.802C986.252 807.737 984.996 806.429 983.701 804.892C983.687 804.879 983.687 804.865 983.674 804.852C983.428 804.555 983.196 804.259 982.964 803.961C968.687 785.8 969.355 753.575 972.587 715.917C972.655 715.121 972.737 714.151 972.833 713.099C972.957 711.751 973.092 710.253 973.243 708.784C973.474 706.587 973.719 704.429 973.964 702.892C976.378 687.616 980.005 675.252 983.496 661.014C984.001 658.924 984.519 656.807 985.01 654.623C987.928 641.827 991.092 629.099 994.434 616.411L1004.77 577.297C1005.08 576.083 1008.64 563.328 1011.83 551.355C1013.37 545.584 1014.82 540.002 1015.77 535.984C1016.54 532.748 1016.99 530.537 1016.91 530.052C1013.81 512.483 1021.47 499.85 1033.47 493.283C1047.23 485.706 1070.09 467.652 1072.71 465.481C1075.32 463.324 1082.86 459.966 1081.39 470.146C1080.51 476.254 1071.74 483.4 1064.89 488.146C1064.5 488.429 1064.71 489.063 1065.22 489.009C1068.85 488.726 1077.97 487.324 1089.57 480.919C1103.26 473.355 1107.76 468.838 1108.5 468.016C1108.58 467.948 1108.62 467.827 1108.62 467.733C1108.65 466.668 1108.94 460.897 1110.89 459.13C1110.98 459.036 1111.05 458.901 1111.04 458.766C1111.01 457.216 1111.09 448.196 1117.88 447.535C1119.16 447.4 1120.41 447.98 1121.18 448.978C1121.29 449.139 1121.51 449.207 1121.7 449.153C1121.74 449.153 1121.77 449.139 1121.81 449.112C1122.78 448.573 1126.32 447.319 1127.17 452.079C1127.76 455.342 1124.76 462.703 1121.51 467.611Z" fill="#FFD0C2"/>
<path d="M1078.51 459.807C1085.03 460.1 1086.92 469.89 1082.03 477.055C1080.55 479.218 1078.74 481.143 1076.85 482.95C1077.19 482.831 1077.53 482.709 1077.87 482.585C1087.87 478.878 1097.52 473.56 1105.21 466.505C1105.21 466.505 1105.46 460.89 1107.62 457.75C1107.62 457.75 1108.32 446.014 1116.42 444.349C1118.85 443.852 1121.92 445.434 1122.6 445.304C1130.24 443.999 1132.68 456.121 1124.86 468.683C1124.86 468.683 1123.58 476.451 1122.21 482.381C1120.54 489.621 1119.36 497.931 1113.19 502.331C1109.73 504.803 1109.99 507.128 1108.2 509.524C1105.51 513.132 1101.86 515.965 1098.32 518.864C1088.1 527.212 1076.64 533.947 1064.58 539.469C1059.77 541.673 1055.47 544.673 1054.38 551.544C1053.96 554.163 1053.67 556.8 1053.5 559.445C1053.49 559.563 1053.38 561.216 1053.38 561.299C1053.35 562.019 1053.33 562.739 1053.31 563.459L1051 637.956C1050.61 682.312 1050.28 728.308 1037.08 768.905C1031.82 785.087 1024.19 801.367 1011.5 811.53C1006.75 815.331 1000.64 817.831 994.554 816.408C991.55 815.705 988.795 814.186 986.393 812.295C986.028 812.009 981.999 808.296 979.913 805.565C967.761 789.663 966.882 767.517 967.318 746.932C967.768 725.691 969.376 704.478 974.548 682.704C984.565 640.544 995.376 599.096 1006.73 557.221C1009.05 548.628 1011.62 540.074 1013.31 531.352C1013.51 530.331 1013.46 530.299 1013.21 528.452C1011.34 513.771 1017.56 498.683 1030.91 490.848C1045.29 482.574 1058.55 471.821 1071.07 462.465C1073.29 460.869 1075.46 459.74 1078.51 459.807ZM1118.24 450.887C1113.73 451.324 1114.45 458.966 1114.45 458.966C1114.3 460.769 1112.84 461.931 1112.45 463.991C1112.15 465.5 1112.36 466.401 1111.93 468.594C1111.93 468.594 1110.68 470.602 1110.93 470.384C1111.32 470.045 1097.98 480.71 1087.36 485.872C1080.6 489.155 1073.36 491.663 1065.88 492.337C1061.78 492.705 1059.48 488.076 1062.85 485.443C1069.17 481.049 1077.17 476.639 1078.07 469.274C1078.1 469.035 1078.12 468.797 1078.14 468.558C1078.2 467.749 1078.05 466.558 1078.05 466.558C1076.6 466.73 1075.32 467.725 1074.14 468.681C1061.55 478.774 1048.45 488.717 1034.62 496.517C1023.38 502.979 1018 516.287 1020.27 529.536C1020.27 529.536 1018.96 537.534 1017.07 544.84C1007.39 582.284 996.529 619.948 987.959 657.005C987.77 657.814 987.578 658.622 987.384 659.429C982.926 677.907 977.721 695.823 975.984 716.2C974.067 738.694 971.83 761.888 977.112 783.189C978.863 790.248 981.775 797.15 986.338 802.749C986.95 803.5 991.427 807.465 989.907 806.452C989.907 806.452 994.566 810.344 998.881 810.087C1004.79 809.736 1009.2 804.98 1012.78 800.951C1028.77 782.962 1034.62 757.577 1038.43 732.985C1043.31 701.467 1043.91 669.198 1044.18 637.824L1046.5 563.252L1046.57 560.989C1047.23 550.434 1048.44 539.498 1059.45 534.39C1059.45 534.39 1064.69 532.045 1069 529.873C1080.66 523.997 1091.79 516.749 1100.92 507.551C1102.69 505.766 1103.92 503.508 1105.02 501.202C1105.58 500.041 1104.75 501.065 1106.08 499.358C1107.75 497.229 1110.29 496.585 1111.8 493.161C1115.32 485.115 1116.84 476.241 1118.04 467.5L1118.65 465.778C1121.27 461.784 1124.28 457.142 1123.82 452.742C1123.61 450.674 1122.18 452.506 1122.18 452.506C1121.54 452.533 1122.14 452.702 1120.89 452.486C1119.2 452.194 1118.58 450.861 1118.24 450.887Z" fill="#3B1B6A"/>
<path d="M1061.47 507.115C1062.97 507.333 1062.91 507.747 1063.16 508.405C1064.63 512.211 1054.58 513.1 1047.98 511.812C1041.46 510.603 1035.72 512.825 1029.56 517.357C1027.58 518.787 1024.49 516.112 1027.63 513.727C1033.88 508.923 1041.55 506.252 1049.66 508.025C1053.21 508.801 1056.85 508.95 1060.37 507.298C1060.37 507.298 1060.72 507.064 1061.47 507.115Z" fill="#3B1B6A"/>
<path d="M1121.27 445.619C1121.87 445.653 1122.04 445.711 1122.36 445.827C1124.61 446.649 1124.89 449.767 1125.12 452.647C1125.7 460.022 1124.92 467.465 1123.75 474.799C1123.75 474.799 1122.63 477.772 1120.2 477.643C1114.64 477.349 1118.08 466.107 1115.22 460.767L1113.1 461.69C1111.01 463.375 1107.33 461.818 1107.47 458.98C1107.65 455.16 1114.11 452.636 1118.42 454.714C1118.4 454.398 1118.39 454.083 1118.37 453.768C1118.23 451.832 1116.93 450.191 1118.04 447.651C1118.59 446.408 1119.17 445.615 1121.27 445.619Z" fill="#3B1B6A"/>
<path d="M1102.93 475.841C1107.83 476.051 1110.11 481.965 1111.51 487.068C1112.92 492.188 1113.45 497.698 1111.74 502.83C1110.59 506.275 1103.76 505.698 1105.39 500.304C1107.09 494.478 1105.83 487.526 1102.76 482.744C1101.92 481.485 1101.2 488.825 1102 493.81C1102 493.81 1101.8 497.504 1099.49 499.843C1098.26 501.111 1096.57 502.998 1096.57 502.998C1094.13 505.433 1090.24 505.614 1086.75 507.329C1086.75 507.329 1083.53 508.179 1082.27 505.971C1080.39 502.69 1086.06 499.541 1091.69 498.204C1091.69 498.204 1093.46 496.285 1095.11 494.629C1095.11 494.629 1094.36 489.086 1094.76 485.373C1095.13 482.001 1096.35 478.398 1099.64 476.594C1100.29 476.238 1101.7 475.82 1102.93 475.841Z" fill="#3B1B6A"/>
<path d="M1108.79 464.211C1110.69 464.321 1112.19 466.092 1112 468.022C1111.3 472.94 1110.4 477.828 1109.6 482.732C1108.97 486.164 1102.5 486.048 1102.93 481.784C1103.63 476.867 1104.53 471.978 1105.33 467.074C1105.63 465.406 1106.82 464.181 1108.79 464.211Z" fill="#3B1B6A"/>
<g style="mix-blend-mode:overlay">
<path d="M1048.62 546.306C1048.62 546.306 1046.29 549.327 1042.99 570.842C1039.68 592.359 1036.54 656.905 1032.19 698.216C1031.25 707.158 1028.01 755.533 1010.43 789.27C1001.72 805.992 986.583 803.212 986.583 803.212C996.368 813.18 1000.51 811.99 1009.56 804.245C1018.61 796.499 1023.84 784.279 1029.76 768.958C1035.67 753.64 1038.63 730.576 1040.03 720.419C1041.42 710.265 1043.51 659.143 1043.51 659.143C1043.51 659.143 1045.6 588.055 1046.29 568.089C1046.99 548.122 1048.95 545.541 1048.95 545.541" fill="black" fill-opacity="0.25"/>
</g>
<path fill-rule="evenodd" clip-rule="evenodd" d="M1051.81 547.337C1051.5 548.429 1051.23 549.643 1051.01 551.018C1050.41 554.82 1050.33 555.441 1049.97 561.144L1049.91 563.355L1011.83 551.355C1013.37 545.584 1014.82 540.002 1015.77 535.984L1051.81 547.337Z" fill="#5DBBFF"/>
<path d="M1015.93 532.617C1016.32 532.647 1016.42 532.665 1016.81 532.773L1052.85 544.125C1056.54 545.424 1054 551.8 1053.5 559.446C1053.49 559.557 1053.38 561.221 1053.38 561.299C1053.34 562.298 1053.3 563.677 1053.3 563.677C1053.1 565.177 1052.78 565.252 1052.39 565.669C1051.5 566.595 1050.44 567.004 1048.87 566.567L1010.8 554.567C1010.15 554.338 1010.06 554.247 1009.8 554.061C1007.62 552.458 1008.91 549.094 1009.67 546.237C1010.63 542.568 1011.57 538.897 1012.46 535.208C1012.46 535.208 1013.66 532.591 1015.93 532.617ZM1018.06 540.981C1017.38 543.654 1016.69 546.322 1015.99 548.989L1046.71 558.809C1046.75 558.13 1046.8 557.452 1046.85 556.775C1047.05 554.351 1047.26 552.617 1047.78 549.667L1018.23 540.295C1018.17 540.524 1018.11 540.752 1018.06 540.981Z" fill="#3B1B6A"/>
<path d="M833.072 789.101C833.65 789.141 834.169 789.395 834.558 789.824L852.683 811.144C854.035 812.841 851.556 815.922 849.601 813.764L831.477 792.444C829.201 789.589 831.702 789.092 833.072 789.101Z" fill="#3B1B6A"/>
<path d="M845.591 789.946C847.597 790.056 849.542 793.493 851.587 795.978C852.856 797.625 850.143 800.345 848.506 798.597C845.666 795.359 841.718 791.539 844.646 790.141C844.943 790 845.112 789.936 845.591 789.946Z" fill="#3B1B6A"/>
<path d="M829.449 798.676C829.963 798.727 830.434 798.952 830.797 799.326C834.134 803.069 837.296 806.965 840.543 810.786C841.856 812.405 839.223 815.214 837.525 813.476C834.189 809.733 831.027 805.837 827.779 802.016C826.738 800.733 827.531 798.578 829.449 798.676Z" fill="#3B1B6A"/>
<path fill-rule="evenodd" clip-rule="evenodd" d="M645.654 746.514C645.654 746.514 641.099 758.77 627.34 755.264C633.422 746.123 636.831 739.961 636.831 739.961C637.199 740.231 637.581 740.5 637.963 740.755C638.236 740.959 638.522 741.147 638.781 741.35C639.79 742.064 640.731 742.752 641.631 743.398C643.131 744.505 644.44 745.516 645.545 746.419C645.586 746.446 645.613 746.485 645.654 746.514Z" fill="#5DBBFF"/>
<path d="M636.955 736.592C639.254 736.727 640.513 738.422 642.256 739.676L643.658 740.687C644.72 741.474 645.773 742.271 646.809 743.09C648.568 744.481 649.572 746.317 648.372 748.77C644.799 756.078 636.384 760.552 627.77 758.819C624.553 758.173 622.772 756.06 626.114 750.948C628.805 746.806 631.439 742.626 633.849 738.326C633.849 738.326 634.925 736.565 636.955 736.592ZM637.874 744.94C636.407 747.402 634.896 749.838 633.357 752.257C633.357 752.257 638.504 751.503 641.273 747.48C641.273 747.48 638.108 744.546 637.874 744.94Z" fill="#3B1B6A"/>
<path fill-rule="evenodd" clip-rule="evenodd" d="M941.326 755.276C927.261 755.276 924.83 745.407 924.83 745.407C924.83 745.407 926.509 744.005 929.468 741.686C930.49 740.877 931.677 739.96 933 738.961C932.616 739.34 932.221 739.677 931.825 739.96C931.825 739.96 934.261 744.841 941.326 755.276Z" fill="#5DBBFF"/>
<path d="M933.158 735.594C935.494 735.752 937.112 738.378 936.014 740.533C938.525 744.926 941.316 749.193 944.161 753.403C944.161 753.403 944.918 754.661 944.674 755.913C944 759.362 938.011 758.981 933.314 757.505C927.771 755.763 922.18 751.674 921.447 745.822C921.083 742.919 924.774 741.071 927.344 739.048C928.874 737.846 930.927 736.284 930.927 736.284C931.581 735.811 932.011 735.566 933.158 735.594ZM930.548 745.144C929.871 745.679 928.996 746.381 928.996 746.381C930.19 748.287 932.045 749.732 934.146 750.63C934.146 750.63 932.462 747.896 930.983 745.406C930.983 745.406 930.917 744.853 930.548 745.144Z" fill="#3B1B6A"/>
<path d="M1377.96 1099.93C1380.78 1100.33 1380.82 1101.52 1381.01 1102.81C1381.29 1104.72 1379.64 1106.57 1377.64 1106.66H1295.49C1291.87 1106.49 1290.85 1100.14 1295.49 1099.92H1377.64C1377.75 1099.92 1377.85 1099.93 1377.96 1099.93Z" fill="#3B1B6A"/>
<path d="M1264.17 1100.18C1265.27 1100.9 1265.28 1100.91 1266.02 1102L1266.28 1103.29L1266.02 1104.58L1265.28 1105.67L1264.17 1106.41L1262.87 1106.66H311.293L309.988 1106.41C308.89 1105.68 308.878 1105.67 308.143 1104.58L307.884 1103.29L308.143 1102L308.882 1100.91C309.981 1100.18 309.998 1100.17 311.293 1099.92H1262.87C1263.3 1100 1263.74 1100.09 1264.17 1100.18Z" fill="#3B1B6A"/>
<path d="M284.423 1099.93C288.093 1100.4 287.767 1102.62 287.467 1104C287.137 1105.51 286.124 1106.58 284.134 1106.66H221.358C219.467 1106.58 219.308 1106.09 218.798 1105.52C217.063 1103.57 218.265 1100.05 221.358 1099.92H284.134C284.231 1099.92 284.327 1099.93 284.423 1099.93Z" fill="#3B1B6A"/>
<path d="M737.375 131.875V153.945H634.934L633.566 136.855L692.844 42.8125H715.207L690.988 83.3398L661.496 131.875H737.375ZM721.262 42.8125V185H693.137V42.8125H721.262ZM848.312 101.406V126.016C848.312 136.693 847.173 145.905 844.895 153.652C842.616 161.335 839.328 167.65 835.031 172.598C830.799 177.48 825.754 181.094 819.895 183.438C814.035 185.781 807.525 186.953 800.363 186.953C794.634 186.953 789.296 186.237 784.348 184.805C779.4 183.307 774.94 180.996 770.969 177.871C767.062 174.746 763.677 170.807 760.812 166.055C758.013 161.237 755.865 155.508 754.367 148.867C752.87 142.227 752.121 134.609 752.121 126.016V101.406C752.121 90.7292 753.26 81.582 755.539 73.9648C757.883 66.2826 761.171 60 765.402 55.1172C769.699 50.2344 774.777 46.6536 780.637 44.375C786.496 42.0312 793.007 40.8594 800.168 40.8594C805.897 40.8594 811.203 41.6081 816.086 43.1055C821.034 44.5378 825.493 46.7839 829.465 49.8438C833.436 52.9036 836.822 56.8424 839.621 61.6602C842.421 66.4128 844.569 72.1094 846.066 78.75C847.564 85.3255 848.312 92.8776 848.312 101.406ZM820.09 129.727V97.5977C820.09 92.4544 819.797 87.9622 819.211 84.1211C818.69 80.2799 817.876 77.0247 816.77 74.3555C815.663 71.6211 814.296 69.4076 812.668 67.7148C811.04 66.0221 809.185 64.7852 807.102 64.0039C805.018 63.2227 802.707 62.832 800.168 62.832C796.978 62.832 794.146 63.4505 791.672 64.6875C789.263 65.9245 787.212 67.9102 785.52 70.6445C783.827 73.3138 782.525 76.8945 781.613 81.3867C780.767 85.8138 780.344 91.2174 780.344 97.5977V129.727C780.344 134.87 780.604 139.395 781.125 143.301C781.711 147.207 782.557 150.56 783.664 153.359C784.836 156.094 786.203 158.34 787.766 160.098C789.393 161.79 791.249 163.027 793.332 163.809C795.48 164.59 797.824 164.98 800.363 164.98C803.488 164.98 806.255 164.362 808.664 163.125C811.138 161.823 813.221 159.805 814.914 157.07C816.672 154.271 817.974 150.625 818.82 146.133C819.667 141.641 820.09 136.172 820.09 129.727ZM967.062 131.875V153.945H864.621L863.254 136.855L922.531 42.8125H944.895L920.676 83.3398L891.184 131.875H967.062ZM950.949 42.8125V185H922.824V42.8125H950.949Z" fill="black"/>
</svg>
