<svg width="750" height="500" viewBox="1 1 426 492" fill="none" xmlns="http://www.w3.org/2000/svg">
<path d="M50.5833 414.467L45.9507 397.428C37.737 394.182 29.3335 391.37 20.7802 389.007L20.1955 396.925L17.8241 388.201C7.21649 385.373 0 384.129 0 384.129C0 384.129 9.74533 418.697 30.1922 445.124L54.0146 449.027L35.5077 451.515C38.0796 454.401 40.8437 457.133 43.7834 459.696C73.5244 485.441 106.651 497.253 117.772 486.078C128.894 474.904 113.8 444.976 84.0592 419.234C74.8393 411.252 63.2572 404.848 51.663 399.806L50.5833 414.467Z" fill="#F2F2F2"/>
<path d="M94.6396 395.96L100.118 379.141C94.8867 372.403 89.2518 365.945 83.2404 359.799L78.3507 366.295L81.1557 357.684C73.6412 350.153 68.1534 345.609 68.1534 345.609C68.1534 345.609 57.3382 379.899 60.1912 412.377L78.4214 427.202L61.1961 420.411C61.7988 424.121 62.6512 427.793 63.7483 431.405C74.9385 467.78 96.749 493.86 112.463 489.656C128.177 485.451 131.845 452.555 120.655 416.18C117.186 404.903 110.82 393.837 103.69 383.933L94.6396 395.96Z" fill="#F2F2F2"/>
<path d="M367.04 116.555H364.151V42.7298C364.151 37.1184 362.965 31.562 360.663 26.3778C358.36 21.1936 354.985 16.4831 350.73 12.5153C346.476 8.54745 341.425 5.4 335.866 3.25262C330.306 1.10525 324.348 1.52588e-05 318.331 1.52588e-05H150.607C138.455 1.52588e-05 126.801 4.50189 118.208 12.5153C109.615 20.5287 104.788 31.3972 104.788 42.7298V447.748C104.788 453.36 105.973 458.916 108.276 464.1C110.579 469.285 113.954 473.995 118.208 477.963C122.463 481.931 127.514 485.078 133.073 487.226C138.632 489.373 144.59 490.478 150.607 490.478H318.331C330.483 490.478 342.137 485.976 350.73 477.963C359.323 469.949 364.15 459.081 364.15 447.748V169.105H367.04L367.04 116.555Z" fill="#E6E6E6"/>
<path d="M320.18 11.1126H298.288C299.295 13.4147 299.679 15.9124 299.407 18.3856C299.135 20.8589 298.215 23.2317 296.728 25.2951C295.24 27.3586 293.232 29.0492 290.879 30.2182C288.526 31.3872 285.901 31.9985 283.235 31.9984H187.148C184.482 31.9983 181.857 31.3868 179.505 30.2177C177.152 29.0487 175.143 27.358 173.656 25.2946C172.169 23.2312 171.249 20.8584 170.977 18.3853C170.705 15.9122 171.09 13.4146 172.096 11.1126H151.648C142.573 11.1126 133.87 14.4746 127.453 20.4589C121.036 26.4432 117.431 34.5597 117.431 43.0228V447.453C117.431 455.916 121.036 464.033 127.453 470.017C133.87 476.002 142.573 479.363 151.648 479.363H320.18C329.255 479.363 337.958 476.002 344.375 470.017C350.792 464.033 354.397 455.916 354.397 447.453V43.0222C354.397 34.5592 350.792 26.4429 344.375 20.4587C337.958 14.4745 329.255 11.1126 320.18 11.1126Z" fill="white"/>
<path d="M214.439 172.217C214.438 169.39 215.236 166.613 216.752 164.165C218.268 161.717 220.449 159.685 223.075 158.273C220.451 156.859 217.473 156.115 214.442 156.114C211.411 156.114 208.433 156.858 205.808 158.271C203.183 159.684 201.003 161.717 199.487 164.165C197.972 166.613 197.174 169.389 197.174 172.216C197.174 175.043 197.972 177.82 199.487 180.268C201.003 182.716 203.183 184.748 205.808 186.161C208.433 187.575 211.411 188.318 214.442 188.318C217.473 188.318 220.451 187.573 223.075 186.16C220.449 184.748 218.269 182.716 216.753 180.268C215.236 177.821 214.438 175.044 214.439 172.217Z" fill="#CCCCCC"/>
<path d="M236.145 172.217C236.144 169.39 236.942 166.613 238.458 164.165C239.974 161.717 242.155 159.685 244.781 158.273C242.157 156.859 239.179 156.115 236.148 156.114C233.117 156.114 230.139 156.858 227.514 158.271C224.889 159.684 222.709 161.717 221.193 164.165C219.678 166.613 218.88 169.389 218.88 172.216C218.88 175.043 219.678 177.82 221.193 180.268C222.709 182.716 224.889 184.748 227.514 186.161C230.139 187.575 233.117 188.318 236.148 188.318C239.179 188.318 242.157 187.573 244.781 186.16C242.156 184.748 239.975 182.716 238.459 180.268C236.942 177.821 236.144 175.044 236.145 172.217Z" fill="#CCCCCC"/>
<path d="M257.358 188.318C266.894 188.318 274.624 181.109 274.624 172.217C274.624 163.324 266.894 156.115 257.358 156.115C247.822 156.115 240.092 163.324 240.092 172.217C240.092 181.109 247.822 188.318 257.358 188.318Z" fill="#17BDC6"/>
<path d="M286.214 222.509H185.582C184.624 222.508 183.706 222.153 183.028 221.521C182.351 220.889 181.97 220.033 181.969 219.139V125.294C181.97 124.4 182.351 123.544 183.028 122.912C183.706 122.28 184.624 121.925 185.582 121.924H286.214C287.172 121.925 288.09 122.28 288.768 122.912C289.445 123.544 289.826 124.4 289.827 125.294V219.139C289.826 220.033 289.445 220.889 288.768 221.521C288.09 222.153 287.172 222.508 286.214 222.509ZM185.582 123.272C185.007 123.273 184.456 123.486 184.05 123.865C183.643 124.244 183.415 124.758 183.414 125.294V219.14C183.415 219.676 183.643 220.19 184.05 220.569C184.456 220.948 185.007 221.161 185.582 221.162H286.214C286.788 221.161 287.34 220.948 287.746 220.569C288.152 220.19 288.381 219.676 288.382 219.14V125.294C288.381 124.758 288.152 124.244 287.746 123.865C287.34 123.486 286.788 123.273 286.214 123.272H185.582Z" fill="#CCCCCC"/>
<path d="M308.683 294.446H154.345V295.794H308.683V294.446Z" fill="#CCCCCC"/>
<path d="M159.219 286.03C161.911 286.03 164.093 283.995 164.093 281.485C164.093 278.974 161.911 276.939 159.219 276.939C156.527 276.939 154.345 278.974 154.345 281.485C154.345 283.995 156.527 286.03 159.219 286.03Z" fill="#17BDC6"/>
<path d="M308.683 339.898H154.345V341.246H308.683V339.898Z" fill="#CCCCCC"/>
<path d="M159.219 331.482C161.911 331.482 164.093 329.447 164.093 326.937C164.093 324.426 161.911 322.391 159.219 322.391C156.527 322.391 154.345 324.426 154.345 326.937C154.345 329.447 156.527 331.482 159.219 331.482Z" fill="#17BDC6"/>
<path d="M305.859 391.656H257.084C256.242 391.656 255.434 391.343 254.838 390.788C254.242 390.232 253.907 389.479 253.906 388.693V372.75C253.907 371.965 254.242 371.211 254.838 370.656C255.434 370.1 256.242 369.788 257.084 369.787H305.859C306.702 369.788 307.509 370.1 308.105 370.656C308.701 371.211 309.036 371.965 309.037 372.75V388.693C309.036 389.479 308.701 390.232 308.105 390.788C307.509 391.343 306.702 391.656 305.859 391.656Z" fill="#17BDC6"/>
<path d="M175.118 286.03C177.81 286.03 179.992 283.995 179.992 281.485C179.992 278.974 177.81 276.939 175.118 276.939C172.426 276.939 170.244 278.974 170.244 281.485C170.244 283.995 172.426 286.03 175.118 286.03Z" fill="#17BDC6"/>
<path d="M191.018 286.03C193.709 286.03 195.892 283.995 195.892 281.485C195.892 278.974 193.709 276.939 191.018 276.939C188.326 276.939 186.144 278.974 186.144 281.485C186.144 283.995 188.326 286.03 191.018 286.03Z" fill="#17BDC6"/>
<path d="M175.118 331.482C177.81 331.482 179.992 329.447 179.992 326.937C179.992 324.426 177.81 322.391 175.118 322.391C172.426 322.391 170.244 324.426 170.244 326.937C170.244 329.447 172.426 331.482 175.118 331.482Z" fill="#17BDC6"/>
<path d="M191.018 331.482C193.709 331.482 195.892 329.447 195.892 326.937C195.892 324.426 193.709 322.391 191.018 322.391C188.326 322.391 186.144 324.426 186.144 326.937C186.144 329.447 188.326 331.482 191.018 331.482Z" fill="#17BDC6"/>
<path d="M524.035 492H17.0047C15.9192 492 15.04 491.64 15.04 491.198C15.04 490.755 15.9192 490.395 17.0047 490.395H524.035C525.12 490.395 526 490.755 526 491.198C526 491.641 525.12 492 524.035 492Z" fill="#3F3D56"/>
<path d="M398.766 322.343C399.112 322.491 399.446 322.664 399.762 322.861L431.436 310.254L432.567 302.473L445.223 302.401L444.475 320.247L402.669 330.557C402.581 330.828 402.476 331.094 402.353 331.353C401.749 332.556 400.777 333.565 399.559 334.255C398.341 334.944 396.933 335.282 395.51 335.227C394.086 335.172 392.712 334.727 391.56 333.946C390.408 333.165 389.529 332.084 389.033 330.839C388.537 329.594 388.447 328.24 388.774 326.947C389.101 325.654 389.83 324.48 390.87 323.572C391.909 322.664 393.214 322.064 394.619 321.845C396.023 321.626 397.466 321.799 398.766 322.343Z" fill="#FFB8B8"/>
<path d="M449.825 484.06H441.167L437.049 452.918L449.827 452.919L449.825 484.06Z" fill="#FFB8B8"/>
<path d="M434.983 481.753H451.68V491.557H424.47C424.47 488.957 425.577 486.463 427.549 484.625C429.52 482.786 432.194 481.753 434.983 481.753Z" fill="#2F2E41"/>
<path d="M483.496 481.779L474.88 482.571L467.507 451.955L480.223 450.787L483.496 481.779Z" fill="#FFB8B8"/>
<path d="M468.484 480.84L485.1 479.314L486.131 489.071L459.052 491.558C458.917 490.277 459.053 488.983 459.454 487.751C459.855 486.519 460.512 485.373 461.388 484.377C462.263 483.382 463.341 482.557 464.558 481.95C465.776 481.344 467.11 480.966 468.484 480.84Z" fill="#2F2E41"/>
<path d="M452.235 269.443C461.814 269.443 469.58 262.201 469.58 253.267C469.58 244.334 461.814 237.092 452.235 237.092C442.656 237.092 434.891 244.334 434.891 253.267C434.891 262.201 442.656 269.443 452.235 269.443Z" fill="#FFB8B8"/>
<path d="M439.232 477.762C438.488 477.764 437.767 477.521 437.197 477.075C436.627 476.63 436.243 476.011 436.114 475.327C431.633 452.129 416.985 376.276 416.635 374.175C416.627 374.126 416.624 374.077 416.624 374.029V368.373C416.623 368.167 416.692 367.966 416.821 367.799L418.756 365.271C418.848 365.149 418.969 365.049 419.109 364.978C419.249 364.906 419.405 364.866 419.564 364.859C430.596 364.377 466.726 362.964 468.471 364.997C470.224 367.041 469.605 373.234 469.463 374.454L469.47 374.582L485.702 471.388C485.829 472.16 485.625 472.947 485.134 473.58C484.643 474.213 483.905 474.64 483.079 474.769L472.94 476.327C472.185 476.44 471.412 476.297 470.76 475.923C470.109 475.549 469.623 474.97 469.391 474.29C466.256 464.946 455.741 433.513 452.097 421.35C452.075 421.273 452.023 421.206 451.951 421.163C451.879 421.119 451.793 421.101 451.708 421.112C451.623 421.123 451.546 421.163 451.49 421.223C451.434 421.284 451.404 421.362 451.405 421.441C451.587 433.036 452.027 462.617 452.179 472.834L452.195 473.934C452.202 474.679 451.909 475.4 451.374 475.953C450.839 476.506 450.1 476.852 449.305 476.922L439.529 477.75C439.43 477.758 439.33 477.762 439.232 477.762Z" fill="#2F2E41"/>
<path d="M441.228 275.803C438.201 277.481 436.39 280.564 435.35 283.702C433.426 289.512 432.268 295.518 431.901 301.589L430.803 319.765L417.205 367.952C428.99 377.252 435.789 375.138 451.653 367.532C467.518 359.925 469.33 370.068 469.33 370.068L472.503 329.067L477.035 284.263C476.018 283.12 474.866 282.088 473.602 281.185C469.413 278.146 464.539 276.035 459.347 275.009C454.155 273.982 448.781 274.069 443.63 275.261L441.228 275.803Z" fill="#17BDC6"/>
<path d="M436.811 332.075C437.177 332.203 437.531 332.358 437.871 332.539L469.189 317.92L469.709 310.001L482.628 309.17L483.32 327.223L441.467 340.131C441.126 341.497 440.346 342.735 439.231 343.678C438.117 344.622 436.721 345.227 435.229 345.412C433.737 345.598 432.22 345.356 430.88 344.718C429.539 344.08 428.439 343.076 427.724 341.841C427.01 340.605 426.716 339.196 426.882 337.801C427.047 336.406 427.664 335.091 428.651 334.031C429.637 332.971 430.946 332.216 432.404 331.866C433.862 331.517 435.399 331.59 436.811 332.075Z" fill="#FFB8B8"/>
<path d="M476.809 284.468C484.514 287.004 485.872 314.481 485.872 314.481C476.807 309.832 465.928 317.44 465.928 317.44C465.928 317.44 463.662 310.254 460.942 300.955C460.121 298.339 460.023 295.572 460.657 292.912C461.291 290.251 462.636 287.783 464.568 285.738C464.568 285.738 469.103 281.93 476.809 284.468Z" fill="#17BDC6"/>
<path d="M467.787 257.545C465.627 255.933 462.678 258.863 462.678 258.863L460.949 244.353C460.949 244.353 450.144 245.56 443.228 243.95C436.313 242.34 435.233 249.795 435.233 249.795C434.876 246.784 434.804 243.749 435.017 240.726C435.449 237.098 441.068 233.471 451.008 231.052C460.949 228.633 466.135 239.113 466.135 239.113C473.051 242.338 469.948 259.157 467.787 257.545Z" fill="#2F2E41"/>
</svg>
