<svg width="550" height="618" viewBox="0 0 818 618" fill="none" xmlns="http://www.w3.org/2000/svg">
<path d="M384.404 518.797C384.404 518.797 394.815 501.721 408.181 511.818C421.547 521.914 446.301 538.95 446.301 538.95C446.301 538.95 451.371 549.846 438.249 545.753C425.126 541.66 382.289 535.074 382.289 535.074L384.404 518.797Z" fill="#FEB8B8"/>
<path d="M93.453 410.351C96.7707 383.68 113.304 357.401 138.747 348.722C128.713 376.174 128.715 406.289 138.753 433.739C142.663 444.312 148.112 455.664 144.435 466.319C142.147 472.95 136.549 478.022 130.293 481.194C124.035 484.366 117.091 485.878 110.234 487.359L108.884 488.475C97.9982 463.9 90.1353 437.022 93.453 410.351Z" fill="#F0F0F0"/>
<path d="M139 349.226C124.183 365.823 114.974 386.666 112.681 408.793C112.103 413.548 112.278 418.365 113.2 423.065C114.246 427.615 116.491 431.801 119.703 435.19C122.634 438.409 126.006 441.364 128.103 445.24C129.147 447.24 129.756 449.438 129.891 451.69C130.026 453.942 129.683 456.196 128.885 458.307C127.033 463.616 123.384 467.944 119.668 472.052C115.541 476.614 111.183 481.286 109.429 487.334C109.217 488.066 108.092 487.694 108.304 486.962C111.356 476.441 121.572 470.465 126.444 460.989C128.717 456.567 129.671 451.433 127.54 446.766C125.677 442.684 122.203 439.635 119.207 436.4C116.025 433.14 113.69 429.151 112.406 424.781C111.247 420.143 110.887 415.342 111.34 410.583C112.189 399.852 114.721 389.322 118.842 379.378C123.482 368.002 130.035 357.504 138.216 348.338C138.723 347.77 139.503 348.663 139 349.226V349.226Z" fill="white"/>
<path d="M113 401.625C109.338 400.736 106.112 398.576 103.898 395.528C101.683 392.481 100.623 388.746 100.909 384.991C100.969 384.231 102.153 384.289 102.093 385.05C101.82 388.547 102.807 392.026 104.876 394.859C106.944 397.692 109.957 399.693 113.371 400.5C114.113 400.677 113.737 401.8 113 401.625Z" fill="white"/>
<path d="M118.002 433.753C124.614 429.806 129.496 423.512 131.673 416.126C131.888 415.394 133.013 415.766 132.798 416.497C130.518 424.179 125.425 430.718 118.535 434.811C117.878 435.201 117.348 434.141 118.002 433.753V433.753Z" fill="white"/>
<path d="M124.581 369.124C125.926 369.763 127.409 370.058 128.896 369.983C130.383 369.907 131.828 369.464 133.101 368.692C133.753 368.294 134.282 369.355 133.634 369.75C132.223 370.596 130.627 371.084 128.984 371.171C127.341 371.258 125.702 370.941 124.209 370.249C124.063 370.196 123.943 370.088 123.873 369.95C123.803 369.811 123.789 369.65 123.833 369.501C123.883 369.352 123.989 369.229 124.129 369.159C124.269 369.088 124.432 369.076 124.581 369.124V369.124Z" fill="white"/>
<path d="M216.301 396.359C215.901 396.619 215.501 396.879 215.101 397.149C209.742 400.672 204.679 404.624 199.961 408.966C199.591 409.296 199.221 409.636 198.861 409.976C187.605 420.558 178.413 433.138 171.751 447.076C169.105 452.624 166.885 458.366 165.111 464.251C162.661 472.379 160.651 481.387 155.801 488.035C155.303 488.734 154.762 489.402 154.181 490.034H110.351C110.251 489.984 110.151 489.944 110.051 489.894L108.301 489.974C108.371 489.664 108.451 489.344 108.521 489.034C108.561 488.855 108.611 488.675 108.651 488.495C108.681 488.375 108.711 488.255 108.731 488.145C108.741 488.105 108.751 488.065 108.761 488.035C108.781 487.925 108.811 487.825 108.831 487.725C109.271 485.935 109.724 484.146 110.191 482.356C110.191 482.346 110.191 482.346 110.201 482.336C113.791 468.71 118.551 455.263 125.201 442.967C125.401 442.597 125.601 442.217 125.821 441.847C128.849 436.321 132.324 431.051 136.211 426.091C138.348 423.382 140.621 420.783 143.021 418.303C149.235 411.909 156.416 406.531 164.301 402.368C180.021 394.07 198.221 390.891 215.021 395.959C215.451 396.089 215.871 396.219 216.301 396.359Z" fill="#F0F0F0"/>
<path d="M216.202 396.915C194.377 401.249 174.472 412.348 159.315 428.635C155.989 432.083 153.229 436.034 151.134 440.342C149.229 444.604 148.501 449.299 149.025 453.938C149.426 458.273 150.339 462.661 149.679 467.018C149.308 469.243 148.471 471.365 147.223 473.244C145.974 475.123 144.342 476.718 142.434 477.922C137.758 481.047 132.238 482.306 126.796 483.349C120.755 484.508 114.461 485.615 109.419 489.388C108.808 489.845 108.134 488.871 108.744 488.414C117.517 481.85 129.273 483.228 138.87 478.594C143.348 476.432 147.202 472.907 148.311 467.898C149.281 463.517 148.344 458.991 147.899 454.605C147.322 450.088 147.86 445.497 149.466 441.235C151.335 436.834 153.939 432.784 157.166 429.257C164.307 421.2 172.669 414.316 181.949 408.856C192.504 402.567 204.059 398.129 216.111 395.734C216.857 395.586 216.943 396.769 216.202 396.915H216.202Z" fill="white"/>
<path d="M163.886 423.103C161.498 420.19 160.223 416.523 160.29 412.757C160.357 408.991 161.76 405.371 164.25 402.544C164.756 401.974 165.666 402.733 165.16 403.304C162.836 405.932 161.529 409.304 161.474 412.811C161.419 416.318 162.62 419.729 164.86 422.429C165.346 423.016 164.369 423.687 163.886 423.103H163.886Z" fill="white"/>
<path d="M148.532 451.766C156.189 452.595 163.877 450.508 170.063 445.921C170.676 445.466 171.349 446.44 170.738 446.895C164.291 451.656 156.286 453.812 148.32 452.932C147.561 452.848 147.776 451.683 148.532 451.766V451.766Z" fill="white"/>
<path d="M192.706 404.124C193.395 405.444 194.402 406.572 195.634 407.407C196.867 408.242 198.288 408.757 199.77 408.908C200.53 408.982 200.313 410.147 199.558 410.073C197.922 409.9 196.354 409.328 194.989 408.409C193.625 407.489 192.507 406.25 191.732 404.799C191.648 404.668 191.616 404.51 191.644 404.357C191.672 404.204 191.757 404.067 191.882 403.975C192.011 403.886 192.171 403.852 192.325 403.88C192.479 403.908 192.616 403.996 192.706 404.124V404.124Z" fill="white"/>
<path d="M446.945 587.118C448.231 576.782 454.639 566.598 464.499 563.234C460.611 573.873 460.611 585.544 464.502 596.183C466.017 600.28 468.129 604.68 466.704 608.809C465.683 611.362 463.721 613.425 461.223 614.574C458.744 615.699 456.131 616.502 453.449 616.963L452.926 617.396C448.707 607.872 445.66 597.455 446.945 587.118Z" fill="#F0F0F0"/>
<path d="M464.597 563.429C458.855 569.862 455.286 577.939 454.397 586.515C454.173 588.358 454.241 590.224 454.598 592.046C455.004 593.809 455.874 595.432 457.119 596.745C458.358 597.907 459.451 599.214 460.374 600.64C460.779 601.415 461.015 602.267 461.067 603.139C461.119 604.012 460.987 604.886 460.677 605.704C459.855 607.701 458.641 609.513 457.105 611.031C455.506 612.799 453.817 614.61 453.137 616.953C453.055 617.237 452.619 617.093 452.701 616.809C453.884 612.732 457.843 610.416 459.731 606.743C460.218 605.918 460.509 604.992 460.583 604.036C460.656 603.081 460.51 602.121 460.156 601.231C459.3 599.729 458.21 598.373 456.926 597.214C455.693 595.951 454.788 594.405 454.291 592.711C453.842 590.914 453.702 589.053 453.878 587.208C454.207 583.05 455.188 578.969 456.785 575.115C458.583 570.706 461.123 566.637 464.293 563.085C464.49 562.865 464.792 563.211 464.597 563.429H464.597Z" fill="white"/>
<path d="M454.521 583.737C453.102 583.392 451.852 582.555 450.993 581.374C450.135 580.193 449.724 578.746 449.835 577.29C449.858 576.996 450.317 577.018 450.294 577.313C450.188 578.668 450.571 580.016 451.372 581.115C452.174 582.213 453.342 582.988 454.665 583.301C454.952 583.369 454.807 583.805 454.521 583.737H454.521Z" fill="white"/>
<path d="M456.459 596.188C459.022 594.658 460.914 592.219 461.757 589.357C461.841 589.073 462.277 589.217 462.193 589.5C461.31 592.478 459.336 595.012 456.666 596.598C456.411 596.749 456.206 596.338 456.459 596.188V596.188Z" fill="white"/>
<path d="M459.009 571.141C459.53 571.389 460.105 571.503 460.681 571.474C461.258 571.444 461.818 571.273 462.311 570.973C462.564 570.819 462.769 571.23 462.518 571.383C461.971 571.711 461.352 571.901 460.716 571.934C460.079 571.968 459.444 571.845 458.865 571.577C458.809 571.556 458.762 571.515 458.735 571.461C458.708 571.407 458.702 571.345 458.719 571.287C458.739 571.229 458.78 571.182 458.834 571.154C458.888 571.127 458.951 571.122 459.009 571.141L459.009 571.141Z" fill="white"/>
<path d="M494.555 581.696C494.4 581.797 494.245 581.897 494.09 582.002C492.014 583.367 490.051 584.899 488.223 586.582C488.079 586.71 487.936 586.841 487.797 586.973C483.434 591.074 479.872 595.95 477.29 601.351C476.265 603.502 475.404 605.727 474.717 608.008C473.767 611.158 472.988 614.648 471.109 617.225C470.915 617.496 470.706 617.755 470.481 618H453.494C453.456 617.981 453.417 617.965 453.378 617.946L452.7 617.977C452.727 617.857 452.758 617.733 452.785 617.612C452.801 617.543 452.82 617.473 452.835 617.403C452.847 617.357 452.859 617.31 452.866 617.268C452.87 617.252 452.874 617.237 452.878 617.225C452.886 617.182 452.897 617.144 452.905 617.105C453.076 616.411 453.251 615.718 453.432 615.024L453.436 615.017C454.763 609.719 456.715 604.597 459.249 599.759C459.327 599.615 459.404 599.468 459.49 599.325C460.663 597.183 462.01 595.141 463.516 593.219C464.345 592.169 465.225 591.161 466.156 590.2C468.564 587.722 471.347 585.638 474.403 584.025C480.495 580.809 487.548 579.577 494.059 581.541C494.226 581.591 494.389 581.642 494.555 581.696Z" fill="#F0F0F0"/>
<path d="M494.517 581.912C486.058 583.591 478.344 587.892 472.47 594.205C471.181 595.541 470.111 597.072 469.3 598.742C468.561 600.394 468.279 602.213 468.482 604.011C468.772 605.684 468.857 607.386 468.736 609.08C468.592 609.942 468.268 610.765 467.784 611.493C467.3 612.221 466.667 612.839 465.928 613.306C464.069 614.406 462.008 615.121 459.867 615.409C457.526 615.858 455.087 616.287 453.133 617.75C452.896 617.927 452.635 617.549 452.871 617.372C456.271 614.828 460.827 615.362 464.547 613.566C465.432 613.2 466.223 612.636 466.857 611.918C467.491 611.199 467.952 610.345 468.206 609.421C468.426 607.706 468.373 605.967 468.046 604.269C467.822 602.518 468.031 600.739 468.653 599.088C469.377 597.382 470.387 595.812 471.637 594.445C474.405 591.323 477.646 588.655 481.242 586.539C485.333 584.102 489.811 582.382 494.482 581.454C494.771 581.396 494.804 581.855 494.517 581.912H494.517Z" fill="white"/>
<path d="M474.242 592.061C473.316 590.932 472.822 589.511 472.848 588.051C472.874 586.591 473.418 585.189 474.383 584.093C474.579 583.872 474.932 584.166 474.735 584.387C473.835 585.406 473.328 586.713 473.307 588.072C473.286 589.431 473.751 590.753 474.619 591.799C474.808 592.027 474.429 592.287 474.242 592.061Z" fill="white"/>
<path d="M468.291 603.169C471.259 603.49 474.238 602.681 476.636 600.904C476.873 600.727 477.134 601.105 476.897 601.281C474.399 603.126 471.297 603.962 468.209 603.621C467.915 603.588 467.999 603.137 468.291 603.169H468.291Z" fill="white"/>
<path d="M485.411 584.705C485.678 585.217 486.068 585.654 486.546 585.977C487.024 586.301 487.574 586.501 488.149 586.559C488.443 586.588 488.359 587.04 488.067 587.011C487.432 586.944 486.825 586.722 486.296 586.366C485.767 586.009 485.334 585.529 485.034 584.967C485.001 584.916 484.989 584.855 484.999 584.796C485.01 584.736 485.043 584.683 485.092 584.647C485.142 584.613 485.203 584.6 485.263 584.611C485.323 584.622 485.376 584.656 485.411 584.705V584.705Z" fill="white"/>
<path d="M738.788 367.557C733.689 326.563 708.276 286.171 669.169 272.83C684.591 315.025 684.588 361.314 669.159 403.506C663.15 419.757 654.774 437.206 660.426 453.584C663.943 463.774 672.547 471.571 682.164 476.446C691.782 481.322 702.455 483.645 712.995 485.922L715.07 487.637C731.802 449.865 743.888 408.552 738.788 367.557Z" fill="#F0F0F0"/>
<path d="M668.781 273.605C691.555 299.116 705.71 331.152 709.235 365.163C709.945 372.454 710.032 379.912 708.437 387.099C706.83 394.092 703.378 400.527 698.441 405.736C693.936 410.685 688.754 415.225 685.53 421.183C682.132 427.462 682.002 434.597 684.328 441.268C687.174 449.429 692.784 456.081 698.496 462.395C704.838 469.407 711.536 476.589 714.232 485.883C714.559 487.01 716.288 486.437 715.962 485.313C711.271 469.141 695.569 459.955 688.08 445.39C684.586 438.593 683.119 430.703 686.395 423.528C689.26 417.254 694.599 412.568 699.204 407.596C704.04 402.376 707.748 396.649 709.658 389.738C711.611 382.668 711.817 375.191 711.295 367.914C709.99 351.42 706.099 335.235 699.765 319.95C692.633 302.465 682.561 286.329 669.986 272.24C669.207 271.368 668.007 272.739 668.781 273.605L668.781 273.605Z" fill="white"/>
<path d="M708.744 354.145C714.372 352.779 719.33 349.458 722.735 344.774C726.139 340.091 727.767 334.35 727.328 328.577C727.235 327.409 725.416 327.499 725.509 328.668C725.927 334.043 724.41 339.39 721.231 343.745C718.052 348.1 713.421 351.175 708.173 352.416C707.033 352.687 707.611 354.414 708.744 354.145H708.744Z" fill="white"/>
<path d="M701.056 403.527C690.892 397.46 683.389 387.786 680.043 376.434C679.712 375.309 677.983 375.881 678.313 377.004C681.817 388.811 689.646 398.863 700.237 405.153C701.247 405.752 702.06 404.123 701.056 403.527V403.527Z" fill="white"/>
<path d="M690.943 304.19C688.876 305.172 686.597 305.625 684.311 305.509C682.025 305.393 679.804 304.712 677.847 303.525C676.845 302.914 676.033 304.544 677.028 305.151C679.196 306.452 681.65 307.202 684.176 307.336C686.701 307.47 689.22 306.983 691.514 305.919C691.739 305.837 691.924 305.672 692.031 305.458C692.139 305.245 692.161 304.998 692.093 304.769C692.017 304.54 691.853 304.351 691.637 304.243C691.422 304.135 691.173 304.115 690.943 304.19V304.19Z" fill="white"/>
<path d="M549.966 346.051C550.58 346.451 551.195 346.85 551.811 347.265C560.047 352.68 567.829 358.754 575.081 365.428C575.65 365.935 576.219 366.458 576.772 366.98C594.072 383.247 608.201 402.582 618.441 424.005C622.508 432.533 625.92 441.359 628.647 450.404C632.413 462.897 635.502 476.742 642.957 486.961C643.723 488.036 644.555 489.062 645.447 490.034H712.816C712.969 489.957 713.123 489.896 713.277 489.819L715.967 489.942C715.859 489.466 715.736 488.974 715.628 488.498C715.567 488.221 715.49 487.944 715.429 487.668C715.383 487.483 715.336 487.299 715.306 487.13C715.291 487.068 715.275 487.007 715.26 486.961C715.229 486.792 715.183 486.638 715.152 486.485C714.476 483.734 713.779 480.984 713.062 478.233C713.062 478.218 713.062 478.218 713.047 478.202C707.528 457.258 700.212 436.59 689.991 417.689C689.683 417.121 689.376 416.537 689.038 415.968C684.383 407.474 679.042 399.375 673.068 391.751C669.783 387.587 666.289 383.592 662.6 379.781C653.05 369.952 642.012 361.686 629.892 355.287C605.73 342.533 577.756 337.646 551.933 345.437C551.272 345.637 550.626 345.836 549.966 346.051Z" fill="#F0F0F0"/>
<path d="M550.117 346.906C583.664 353.567 614.259 370.627 637.556 395.661C642.514 401.055 647.075 406.957 650.13 413.655C653.058 420.206 654.177 427.422 653.372 434.552C652.755 441.215 651.352 447.96 652.366 454.657C653.435 461.716 657.627 467.492 663.502 471.417C670.689 476.22 679.174 478.155 687.538 479.759C696.824 481.54 706.497 483.242 714.248 489.041C715.187 489.744 716.222 488.246 715.285 487.544C701.801 477.455 683.731 479.572 668.98 472.45C662.097 469.127 656.174 463.709 654.469 456.009C652.978 449.276 654.419 442.32 655.102 435.578C655.819 428.5 655.33 421.695 652.693 415.027C649.996 408.207 645.656 402.113 640.858 396.616C629.883 384.233 617.029 373.652 602.766 365.26C586.542 355.593 568.782 348.771 550.257 345.091C549.11 344.863 548.978 346.68 550.117 346.906V346.906Z" fill="white"/>
<path d="M630.529 387.159C634.2 382.681 636.159 377.044 636.056 371.256C635.954 365.467 633.796 359.903 629.97 355.558C629.192 354.682 627.793 355.848 628.572 356.726C632.143 360.765 634.152 365.948 634.236 371.339C634.321 376.729 632.475 381.972 629.032 386.122C628.285 387.024 629.786 388.056 630.529 387.159L630.529 387.159Z" fill="white"/>
<path d="M654.13 431.215C642.361 432.488 630.544 429.28 621.036 422.23C620.094 421.531 619.058 423.029 619.998 423.727C629.907 431.045 642.211 434.358 654.456 433.006C655.623 432.877 655.291 431.086 654.13 431.215V431.215Z" fill="white"/>
<path d="M586.231 357.987C585.172 360.015 583.625 361.749 581.73 363.032C579.835 364.315 577.651 365.108 575.374 365.339C574.206 365.454 574.539 367.244 575.7 367.13C578.214 366.864 580.625 365.985 582.722 364.572C584.819 363.159 586.538 361.254 587.728 359.023C587.858 358.823 587.907 358.58 587.864 358.345C587.821 358.109 587.69 357.899 587.498 357.757C587.299 357.621 587.055 357.568 586.817 357.611C586.58 357.654 586.369 357.789 586.231 357.987V357.987Z" fill="white"/>
<path d="M817.327 491.034H1C0.734784 491.034 0.480429 490.929 0.292892 490.741C0.105356 490.554 0 490.299 0 490.034C0 489.769 0.105356 489.515 0.292892 489.327C0.480429 489.14 0.734784 489.034 1 489.034H817C817.265 489.034 817.52 489.14 817.707 489.327C817.895 489.515 818 489.769 818 490.034C818 490.586 817.879 491.034 817.327 491.034Z" fill="#CACACA"/>
<path d="M286.327 579.01H106C105.735 579.01 105.48 578.905 105.293 578.718C105.105 578.53 105 578.276 105 578.011C105 577.746 105.105 577.491 105.293 577.304C105.48 577.116 105.735 577.011 106 577.011H286C286.265 577.011 286.52 577.116 286.707 577.304C286.895 577.491 287 577.746 287 578.011C287 578.563 286.879 579.01 286.327 579.01Z" fill="#CACACA"/>
<path d="M569.327 618H389C388.735 618 388.48 617.895 388.293 617.707C388.105 617.52 388 617.265 388 617C388 616.735 388.105 616.481 388.293 616.293C388.48 616.106 388.735 616 389 616H569C569.265 616 569.52 616.106 569.707 616.293C569.895 616.481 570 616.735 570 617C570 617.552 569.879 618 569.327 618Z" fill="#CACACA"/>
<path d="M739.327 578.011H559C558.735 578.011 558.48 577.905 558.293 577.718C558.105 577.53 558 577.276 558 577.011C558 576.746 558.105 576.491 558.293 576.304C558.48 576.117 558.735 576.011 559 576.011H739C739.265 576.011 739.52 576.117 739.707 576.304C739.895 576.491 740 576.746 740 577.011C740 577.563 739.879 578.011 739.327 578.011Z" fill="#CACACA"/>
<path d="M333.258 540.021C322.056 540.021 311.801 538.948 303.653 536.411C293.968 533.396 287.887 528.521 285.577 521.909C284.491 519.102 284.167 516.058 284.637 513.085C285.107 510.112 286.355 507.317 288.254 504.981C302.581 486.317 352.3 481.053 358.971 480.431L372.505 454.811C373.371 448.698 369.274 444.07 376.353 443.954L460.087 442.817C467.039 442.671 465.066 446.975 466.257 452.935L479.014 475.703L424.108 498.87L432.409 519.093L431.867 519.408C415.798 528.727 369.585 540.019 333.258 540.021Z" fill="#2F2E41"/>
<path d="M471.413 476.675C471.413 476.675 548.093 467.902 543.092 502.994C538.092 538.085 479.748 562.942 391.399 502.994L401.401 485.448C401.401 485.448 434.323 483.811 454.327 475.038L471.413 476.675Z" fill="#2F2E41"/>
<path d="M362.854 317.698C362.854 317.698 348.279 315.049 344.305 337.567C340.33 360.084 333.963 413.422 333.963 413.422L314.194 481.938C311.862 483.175 309.931 485.05 308.625 487.344C307.32 489.638 306.694 492.256 306.821 494.892C306.948 497.528 307.823 500.074 309.343 502.231C310.863 504.389 312.966 506.069 315.406 507.077C317.846 508.084 320.522 508.377 323.122 507.921C325.722 507.464 328.139 506.278 330.09 504.5C332.04 502.721 333.445 500.425 334.139 497.879C334.833 495.333 334.788 492.641 334.009 490.12L360.461 417.401L365.503 354.791V321.984C365.503 321.094 365.255 320.222 364.787 319.465C364.319 318.708 363.65 318.096 362.854 317.698V317.698Z" fill="#FEB8B8"/>
<path d="M465.438 317.698C465.438 317.698 480.012 315.049 483.987 337.567C487.961 360.084 494.328 413.422 494.328 413.422L514.097 481.938C516.429 483.175 518.36 485.05 519.666 487.344C520.971 489.638 521.597 492.256 521.47 494.892C521.343 497.528 520.468 500.074 518.948 502.231C517.428 504.389 515.325 506.069 512.885 507.077C510.445 508.084 507.769 508.377 505.169 507.921C502.569 507.464 500.152 506.278 498.202 504.5C496.251 502.721 494.847 500.425 494.152 497.879C493.458 495.333 493.503 492.641 494.282 490.12L467.83 417.401L462.788 354.791V321.984C462.788 321.094 463.036 320.222 463.504 319.465C463.972 318.708 464.642 318.096 465.438 317.698V317.698Z" fill="#FEB8B8"/>
<path d="M464.327 299.085L436.76 288.778L383.327 288.088L360.327 299.085L366.786 336.202C366.786 336.202 353.744 358.28 368.104 380.362L371.327 459.043C371.327 459.043 422.843 488.908 466.327 453.044L456.499 379.89C456.499 379.89 472.937 345.949 460.196 333.34L464.327 299.085Z" fill="#17BDC6"/>
<path d="M453.099 310.619L464.327 299.085C464.327 299.085 488.831 311.971 488.327 355.07L457.415 345.546L453.099 310.619Z" fill="#17BDC6"/>
<path d="M372.801 310.619L360.871 298.693C360.871 298.693 339.822 314.971 340.327 358.07L368.484 345.546L372.801 310.619Z" fill="#17BDC6"/>
<path d="M450.564 510.271C450.564 510.271 441.977 492.209 427.637 500.868C413.297 509.526 386.912 523.908 386.912 523.908C386.912 523.908 380.741 534.221 394.216 531.508C407.692 528.796 450.981 526.679 450.981 526.679L450.564 510.271Z" fill="#FEB8B8"/>
<path d="M426.708 187.399C426.83 187.282 426.957 187.178 427.076 187.058C434.75 179.387 436.305 168.504 430.55 162.751C425.111 157.313 415.094 158.411 407.532 165.021C401.049 158.851 392.356 157.13 386.729 161.39C380.241 166.302 380.291 177.295 386.843 185.944C387.291 186.537 387.762 187.097 388.246 187.635C379.527 190.826 372 196.616 366.682 204.224C361.364 211.832 358.512 220.889 358.512 230.17V273.279C358.512 274.543 358.761 275.795 359.245 276.963C359.729 278.13 360.438 279.192 361.332 280.085C362.226 280.979 363.288 281.688 364.456 282.172C365.624 282.656 366.876 282.905 368.141 282.905H447.836C450.304 282.905 452.671 281.925 454.416 280.18C456.161 278.435 457.142 276.069 457.142 273.602V230.17C457.14 220.764 454.209 211.592 448.756 203.927C443.302 196.262 435.596 190.485 426.708 187.399Z" fill="#2F2E41"/>
<path d="M435.827 267.53C450.596 252.765 450.596 228.827 435.827 214.062C421.058 199.297 397.113 199.297 382.344 214.062C367.576 228.827 367.575 252.765 382.344 267.53C397.113 282.295 421.058 282.295 435.827 267.53Z" fill="#FFB6B6"/>
<path d="M369.348 217.015C377.99 222.97 388.247 226.139 398.742 226.097C394.999 228.692 390.736 230.445 386.25 231.235C400.204 234.228 414.627 234.309 428.614 231.473C431.723 230.975 434.723 229.945 437.483 228.428C438.858 227.66 440.056 226.612 440.999 225.351C441.942 224.09 442.609 222.645 442.957 221.109C443.886 215.801 439.749 210.978 435.449 207.727C428.866 202.827 421.275 199.451 413.227 197.843C405.178 196.235 396.873 196.435 388.911 198.43C383.712 199.774 378.505 202.044 375.128 206.217C371.751 210.391 370.751 216.826 373.968 221.124L369.348 217.015Z" fill="#2F2E41"/>
<path d="M167.069 141.569L168.261 139.962L200.01 163.506C198.285 158.249 192.178 141.583 182.166 134.933C170.206 126.99 161.791 129.461 157.207 136.359C152.623 143.257 153.604 151.97 165.565 159.914C175.703 166.649 193.763 165.712 199.033 165.271L167.069 141.569Z" fill="#F2F2F2"/>
<path d="M644.767 12.6687L646.241 14.0208L619.517 43.1404C624.926 41.9716 642.141 37.6327 649.798 28.3699C658.945 17.304 657.362 8.68019 650.976 3.40434C644.59 -1.8715 635.82 -1.80163 626.673 9.26429C618.919 18.6444 617.972 36.6996 617.863 41.9847L644.767 12.6687Z" fill="#F2F2F2"/>
<path d="M213.767 323.585L215.241 324.938L188.517 354.057C193.926 352.888 211.141 348.549 218.798 339.287C227.945 328.221 226.362 319.597 219.976 314.321C213.59 309.045 204.82 309.115 195.673 320.181C187.919 329.561 186.972 347.616 186.863 352.901L213.767 323.585Z" fill="#F2F2F2"/>
<path d="M439.744 46.0378L441.475 47.0395L421.678 81.2451C426.707 78.9351 442.577 70.9792 448.05 60.281C454.589 47.5003 451.179 39.4223 443.803 35.6509C436.428 31.8795 427.88 33.8426 421.341 46.6235C415.798 57.4573 418.777 75.2903 419.813 80.4741L439.744 46.0378Z" fill="#F2F2F2"/>
<path d="M624.744 259.98L626.475 260.982L606.678 295.188C611.707 292.878 627.577 284.922 633.05 274.224C639.589 261.443 636.179 253.365 628.803 249.594C621.428 245.822 612.88 247.785 606.341 260.566C600.798 271.4 603.777 289.233 604.813 294.417L624.744 259.98Z" fill="#F2F2F2"/>
</svg>
