<svg width="526" height="492" viewBox="0 0 526 492" fill="none" xmlns="http://www.w3.org/2000/svg">
<path d="M50.5833 414.467L45.9507 397.429C37.737 394.182 29.3335 391.37 20.7802 389.007L20.1955 396.925L17.8241 388.201C7.21649 385.373 0 384.129 0 384.129C0 384.129 9.74533 418.697 30.1922 445.124L54.0146 449.027L35.5077 451.515C38.0796 454.401 40.8437 457.134 43.7834 459.696C73.5244 485.441 106.651 497.253 117.772 486.078C128.894 474.904 113.8 444.976 84.0592 419.234C74.8393 411.252 63.2572 404.848 51.663 399.806L50.5833 414.467Z" fill="#F2F2F2"/>
<path d="M94.6392 395.96L100.118 379.141C94.8863 372.403 89.2514 365.945 83.24 359.799L78.3504 366.295L81.1554 357.684C73.6408 350.153 68.1531 345.609 68.1531 345.609C68.1531 345.609 57.3379 379.899 60.1909 412.377L78.421 427.202L61.1958 420.41C61.7985 424.121 62.6509 427.793 63.7479 431.405C74.9381 467.78 96.7486 493.86 112.463 489.655C128.177 485.451 131.845 452.555 120.654 416.18C117.186 404.903 110.82 393.837 103.69 383.933L94.6392 395.96Z" fill="#F2F2F2"/>
<path d="M367.04 116.555H364.15V42.7298C364.15 37.1184 362.965 31.562 360.662 26.3778C358.36 21.1936 354.985 16.4831 350.73 12.5153C346.475 8.54744 341.424 5.39998 335.865 3.25261C330.306 1.10524 324.348 0 318.331 0H150.607C138.455 0 126.801 4.50188 118.208 12.5153C109.615 20.5287 104.788 31.3971 104.788 42.7298V447.748C104.788 453.36 105.973 458.916 108.275 464.1C110.578 469.285 113.953 473.995 118.208 477.963C122.463 481.931 127.514 485.078 133.073 487.226C138.632 489.373 144.59 490.478 150.607 490.478H318.331C330.483 490.478 342.137 485.976 350.73 477.963C359.322 469.949 364.15 459.081 364.15 447.748V169.105H367.039L367.04 116.555Z" fill="#E6E6E6"/>
<path d="M320.18 11.1125H298.288C299.295 13.4146 299.679 15.9123 299.407 18.3855C299.135 20.8588 298.215 23.2316 296.727 25.295C295.24 27.3585 293.232 29.0491 290.879 30.2181C288.526 31.3871 285.901 31.9984 283.235 31.9983H187.148C184.482 31.9982 181.857 31.3867 179.504 30.2176C177.152 29.0486 175.143 27.3579 173.656 25.2945C172.169 23.2311 171.249 20.8583 170.977 18.3852C170.705 15.9121 171.089 13.4145 172.096 11.1125H151.648C142.573 11.1125 133.87 14.4745 127.453 20.4588C121.036 26.4431 117.431 34.5596 117.431 43.0227V447.453C117.431 455.916 121.036 464.033 127.453 470.017C133.87 476.001 142.573 479.363 151.648 479.363H320.18C329.255 479.363 337.958 476.001 344.375 470.017C350.792 464.033 354.397 455.916 354.397 447.453V43.0221C354.397 34.5591 350.792 26.4428 344.375 20.4586C337.958 14.4744 329.254 11.1125 320.18 11.1125Z" fill="white"/>
<path d="M214.438 172.217C214.438 169.39 215.236 166.613 216.752 164.165C218.268 161.717 220.449 159.685 223.075 158.273C220.45 156.859 217.473 156.115 214.442 156.114C211.411 156.114 208.433 156.858 205.808 158.271C203.183 159.684 201.003 161.717 199.487 164.165C197.971 166.613 197.174 169.39 197.174 172.216C197.174 175.043 197.971 177.82 199.487 180.268C201.003 182.716 203.183 184.748 205.808 186.161C208.433 187.575 211.411 188.318 214.442 188.318C217.473 188.318 220.45 187.573 223.075 186.16C220.449 184.748 218.268 182.716 216.752 180.268C215.236 177.821 214.438 175.044 214.438 172.217Z" fill="#CCCCCC"/>
<path d="M236.145 172.217C236.144 169.39 236.942 166.613 238.458 164.165C239.974 161.717 242.155 159.685 244.781 158.273C242.157 156.859 239.179 156.115 236.148 156.114C233.117 156.114 230.139 156.858 227.514 158.271C224.889 159.684 222.709 161.717 221.193 164.165C219.678 166.613 218.88 169.39 218.88 172.216C218.88 175.043 219.678 177.82 221.193 180.268C222.709 182.716 224.889 184.748 227.514 186.161C230.139 187.575 233.117 188.318 236.148 188.318C239.179 188.318 242.157 187.573 244.781 186.16C242.155 184.748 239.975 182.716 238.458 180.268C236.942 177.821 236.144 175.044 236.145 172.217Z" fill="#CCCCCC"/>
<path d="M257.358 188.318C266.894 188.318 274.624 181.109 274.624 172.216C274.624 163.324 266.894 156.115 257.358 156.115C247.822 156.115 240.092 163.324 240.092 172.216C240.092 181.109 247.822 188.318 257.358 188.318Z" fill="#17BDC6"/>
<path d="M286.214 222.509H185.583C184.625 222.508 183.706 222.153 183.029 221.521C182.351 220.889 181.97 220.033 181.969 219.139V125.294C181.97 124.4 182.351 123.544 183.029 122.912C183.706 122.28 184.625 121.925 185.583 121.924H286.214C287.172 121.925 288.09 122.28 288.768 122.912C289.445 123.544 289.826 124.4 289.827 125.294V219.139C289.826 220.033 289.445 220.889 288.768 221.521C288.09 222.153 287.172 222.508 286.214 222.509ZM185.583 123.273C185.008 123.273 184.457 123.486 184.05 123.865C183.644 124.244 183.415 124.758 183.415 125.294V219.14C183.415 219.676 183.644 220.19 184.05 220.569C184.457 220.948 185.008 221.161 185.583 221.162H286.214C286.789 221.161 287.34 220.948 287.746 220.569C288.153 220.19 288.381 219.676 288.382 219.14V125.294C288.381 124.758 288.153 124.244 287.746 123.865C287.34 123.486 286.789 123.273 286.214 123.273H185.583Z" fill="#CCCCCC"/>
<path d="M308.683 294.446H154.345V295.794H308.683V294.446Z" fill="#CCCCCC"/>
<path d="M159.219 286.03C161.911 286.03 164.093 283.995 164.093 281.484C164.093 278.974 161.911 276.939 159.219 276.939C156.527 276.939 154.345 278.974 154.345 281.484C154.345 283.995 156.527 286.03 159.219 286.03Z" fill="#17BDC6"/>
<path d="M308.683 339.898H154.345V341.246H308.683V339.898Z" fill="#CCCCCC"/>
<path d="M159.219 331.482C161.911 331.482 164.093 329.447 164.093 326.937C164.093 324.426 161.911 322.391 159.219 322.391C156.527 322.391 154.345 324.426 154.345 326.937C154.345 329.447 156.527 331.482 159.219 331.482Z" fill="#17BDC6"/>
<path d="M305.859 391.657H257.084C256.241 391.656 255.433 391.343 254.838 390.788C254.242 390.232 253.907 389.479 253.906 388.693V372.75C253.907 371.965 254.242 371.211 254.838 370.656C255.433 370.1 256.241 369.788 257.084 369.787H305.859C306.701 369.788 307.509 370.1 308.105 370.656C308.7 371.211 309.036 371.965 309.036 372.75V388.693C309.036 389.479 308.7 390.232 308.105 390.788C307.509 391.343 306.701 391.656 305.859 391.657Z" fill="#17BDC6"/>
<path d="M175.118 286.03C177.81 286.03 179.992 283.995 179.992 281.484C179.992 278.974 177.81 276.939 175.118 276.939C172.426 276.939 170.244 278.974 170.244 281.484C170.244 283.995 172.426 286.03 175.118 286.03Z" fill="#17BDC6"/>
<path d="M191.017 286.03C193.709 286.03 195.891 283.995 195.891 281.484C195.891 278.974 193.709 276.939 191.017 276.939C188.325 276.939 186.143 278.974 186.143 281.484C186.143 283.995 188.325 286.03 191.017 286.03Z" fill="#17BDC6"/>
<path d="M175.118 331.482C177.81 331.482 179.992 329.447 179.992 326.937C179.992 324.426 177.81 322.391 175.118 322.391C172.426 322.391 170.244 324.426 170.244 326.937C170.244 329.447 172.426 331.482 175.118 331.482Z" fill="#17BDC6"/>
<path d="M191.017 331.482C193.709 331.482 195.891 329.447 195.891 326.937C195.891 324.426 193.709 322.391 191.017 322.391C188.325 322.391 186.143 324.426 186.143 326.937C186.143 329.447 188.325 331.482 191.017 331.482Z" fill="#17BDC6"/>
<path d="M524.035 492H17.0049C15.9195 492 15.0403 491.64 15.0403 491.198C15.0403 490.755 15.9195 490.395 17.0049 490.395H524.035C525.12 490.395 526 490.755 526 491.198C526 491.641 525.12 492 524.035 492Z" fill="#3F3D56"/>
<path d="M398.766 322.343C399.112 322.491 399.445 322.664 399.762 322.861L431.436 310.254L432.567 302.473L445.223 302.401L444.475 320.247L402.669 330.557C402.581 330.828 402.475 331.094 402.353 331.353C401.748 332.556 400.776 333.565 399.559 334.255C398.341 334.944 396.933 335.282 395.509 335.227C394.086 335.172 392.712 334.727 391.56 333.946C390.408 333.165 389.529 332.084 389.033 330.839C388.537 329.594 388.447 328.24 388.774 326.947C389.1 325.654 389.83 324.48 390.869 323.572C391.909 322.664 393.214 322.063 394.618 321.845C396.023 321.626 397.466 321.799 398.766 322.343Z" fill="#FFB8B8"/>
<path d="M449.825 484.06H441.167L437.049 452.918L449.827 452.919L449.825 484.06Z" fill="#FFB8B8"/>
<path d="M434.983 481.753H451.68V491.557H424.47C424.47 488.957 425.578 486.463 427.549 484.625C429.521 482.786 432.195 481.753 434.983 481.753Z" fill="#2F2E41"/>
<path d="M483.496 481.779L474.88 482.571L467.507 451.955L480.223 450.787L483.496 481.779Z" fill="#FFB8B8"/>
<path d="M468.484 480.84L485.1 479.314L486.131 489.071L459.052 491.558C458.917 490.277 459.053 488.983 459.454 487.751C459.855 486.519 460.512 485.373 461.388 484.377C462.263 483.382 463.341 482.557 464.558 481.95C465.776 481.344 467.11 480.966 468.484 480.84Z" fill="#2F2E41"/>
<path d="M452.235 269.442C461.814 269.442 469.58 262.201 469.58 253.267C469.58 244.334 461.814 237.092 452.235 237.092C442.656 237.092 434.891 244.334 434.891 253.267C434.891 262.201 442.656 269.442 452.235 269.442Z" fill="#FFB8B8"/>
<path d="M439.233 477.762C438.489 477.764 437.768 477.521 437.197 477.075C436.627 476.63 436.243 476.011 436.115 475.327C431.633 452.129 416.986 376.276 416.635 374.174C416.628 374.126 416.624 374.077 416.624 374.028V368.373C416.624 368.167 416.693 367.966 416.822 367.798L418.757 365.271C418.849 365.149 418.969 365.049 419.109 364.978C419.249 364.906 419.405 364.866 419.564 364.859C430.596 364.377 466.726 362.963 468.472 364.997C470.225 367.041 469.605 373.234 469.463 374.454L469.47 374.582L485.702 471.388C485.829 472.16 485.625 472.947 485.134 473.58C484.643 474.213 483.905 474.64 483.079 474.769L472.941 476.327C472.185 476.44 471.412 476.297 470.761 475.923C470.109 475.549 469.624 474.97 469.392 474.29C466.256 464.946 455.742 433.513 452.098 421.35C452.075 421.273 452.023 421.206 451.951 421.163C451.88 421.119 451.793 421.101 451.708 421.112C451.624 421.123 451.546 421.163 451.49 421.223C451.434 421.284 451.404 421.362 451.405 421.441C451.587 433.036 452.027 462.617 452.179 472.834L452.196 473.934C452.202 474.679 451.909 475.4 451.374 475.953C450.839 476.506 450.101 476.852 449.305 476.922L439.529 477.75C439.43 477.758 439.33 477.762 439.233 477.762Z" fill="#2F2E41"/>
<path d="M441.227 275.803C438.2 277.481 436.389 280.564 435.35 283.702C433.426 289.511 432.267 295.518 431.901 301.588L430.802 319.765L417.205 367.952C428.99 377.252 435.788 375.138 451.653 367.532C467.517 359.925 469.33 370.068 469.33 370.068L472.502 329.067L477.035 284.263C476.018 283.12 474.866 282.088 473.602 281.184C469.412 278.146 464.538 276.035 459.346 275.009C454.154 273.982 448.781 274.068 443.63 275.26L441.227 275.803Z" fill="#17BDC6"/>
<path d="M436.811 332.075C437.176 332.203 437.531 332.358 437.87 332.538L469.189 317.92L469.708 310.001L482.627 309.17L483.319 327.223L441.467 340.13C441.125 341.497 440.345 342.735 439.231 343.678C438.117 344.622 436.721 345.227 435.229 345.412C433.737 345.598 432.22 345.356 430.879 344.718C429.539 344.08 428.438 343.076 427.724 341.841C427.01 340.605 426.716 339.196 426.881 337.801C427.047 336.406 427.664 335.091 428.65 334.031C429.637 332.971 430.946 332.216 432.403 331.866C433.861 331.517 435.398 331.59 436.811 332.075Z" fill="#FFB8B8"/>
<path d="M476.808 284.468C484.514 287.004 485.871 314.481 485.871 314.481C476.806 309.832 465.928 317.44 465.928 317.44C465.928 317.44 463.661 310.254 460.942 300.955C460.121 298.339 460.022 295.572 460.656 292.912C461.29 290.251 462.636 287.783 464.568 285.738C464.568 285.738 469.103 281.93 476.808 284.468Z" fill="#17BDC6"/>
<path d="M467.787 257.545C465.627 255.933 462.678 258.863 462.678 258.863L460.949 244.353C460.949 244.353 450.144 245.56 443.228 243.95C436.313 242.34 435.233 249.795 435.233 249.795C434.876 246.783 434.804 243.749 435.017 240.726C435.449 237.098 441.068 233.47 451.008 231.052C460.949 228.633 466.135 239.113 466.135 239.113C473.051 242.338 469.948 259.157 467.787 257.545Z" fill="#2F2E41"/>
7 257.545Z" fill="#2F2E41"/>
</svg>
