<svg width="26" height="24" viewBox="0 0 26 24" fill="none" xmlns="http://www.w3.org/2000/svg">
<path d="M25.5074 7.925C25.7055 7.73125 26 7.9125 26 8.21875V21C26 22.6562 24.9082 24 23.5625 24H2.4375C1.0918 24 0 22.6562 0 21V8.225C0 7.9125 0.289453 7.7375 0.492578 7.93125C1.63008 9.01875 3.13828 10.4 8.31797 15.0312C9.38945 15.9937 11.1973 18.0188 13 18.0063C14.8129 18.025 16.6562 15.9563 17.6871 15.0312C22.8668 10.4 24.3699 9.0125 25.5074 7.925ZM13 16C14.1781 16.025 15.8742 14.175 16.7273 13.4125C23.466 7.39375 23.9789 6.86875 25.5328 5.36875C25.8273 5.0875 26 4.65 26 4.1875V3C26 1.34375 24.9082 0 23.5625 0H2.4375C1.0918 0 0 1.34375 0 3V4.1875C0 4.65 0.172656 5.08125 0.467187 5.36875C2.02109 6.8625 2.53398 7.39375 9.27266 13.4125C10.1258 14.175 11.8219 16.025 13 16Z" fill="white"/>
</svg>
