<svg width="25" height="25" viewBox="0 0 25 25" fill="none" xmlns="http://www.w3.org/2000/svg">
<path d="M12.1094 0C5.41992 0 0 5.41992 0 12.1094C0 18.7988 5.41992 24.2188 12.1094 24.2188C18.7988 24.2188 24.2188 18.7988 24.2188 12.1094C24.2188 5.41992 18.7988 0 12.1094 0ZM16.0156 8.20312C16.8799 8.20312 17.5781 8.90137 17.5781 9.76562C17.5781 10.6299 16.8799 11.3281 16.0156 11.3281C15.1514 11.3281 14.4531 10.6299 14.4531 9.76562C14.4531 8.90137 15.1514 8.20312 16.0156 8.20312ZM8.20312 8.20312C9.06738 8.20312 9.76562 8.90137 9.76562 9.76562C9.76562 10.6299 9.06738 11.3281 8.20312 11.3281C7.33887 11.3281 6.64062 10.6299 6.64062 9.76562C6.64062 8.90137 7.33887 8.20312 8.20312 8.20312ZM17.7148 16.5137C16.3232 18.1836 14.2822 19.1406 12.1094 19.1406C9.93652 19.1406 7.89551 18.1836 6.50391 16.5137C5.83984 15.7178 7.04102 14.7217 7.70508 15.5127C8.79883 16.8262 10.4004 17.5732 12.1094 17.5732C13.8184 17.5732 15.4199 16.8213 16.5137 15.5127C17.168 14.7217 18.374 15.7178 17.7148 16.5137Z" fill="#86E7CF"/>
</svg>
