<svg width="369" height="345" viewBox="0 0 369 345" fill="none" xmlns="http://www.w3.org/2000/svg">
<g clip-path="url(#clip0_86_2)">
<path d="M35.4852 290.632L32.2354 278.685C26.4733 276.408 20.578 274.437 14.5777 272.779L14.1675 278.332L12.504 272.214C5.06252 270.231 0 269.359 0 269.359C0 269.359 6.83655 293.598 21.1805 312.13L37.8924 314.866L24.9094 316.611C26.7137 318.635 28.6527 320.551 30.715 322.348C51.5789 340.4 74.8178 348.683 82.6199 340.847C90.422 333.012 79.8332 312.026 58.9693 293.975C52.5013 288.378 44.3762 283.887 36.2427 280.352L35.4852 290.632Z" fill="#F2F2F2"/>
<path d="M66.3917 277.655L70.235 265.861C66.565 261.136 62.612 256.608 58.3949 252.298L54.9647 256.853L56.9324 250.815C51.6609 245.534 47.8111 242.348 47.8111 242.348C47.8111 242.348 40.224 266.392 42.2254 289.167L55.0142 299.562L42.9304 294.8C43.3532 297.402 43.9511 299.977 44.7207 302.509C52.5709 328.016 67.8714 346.304 78.8951 343.356C89.9188 340.408 92.492 317.34 84.6418 291.833C82.2084 283.926 77.7428 276.166 72.7408 269.221L66.3917 277.655Z" fill="#F2F2F2"/>
<path d="M257.486 81.7307H255.459V29.963C255.459 26.0282 254.628 22.1319 253.012 18.4966C251.397 14.8614 249.029 11.5583 246.044 8.77595C243.06 5.99363 239.516 3.78657 235.616 2.28079C231.717 0.775012 227.537 0 223.316 0H105.654C97.1291 0 88.9533 3.1568 82.9253 8.77595C76.8972 14.3951 73.5107 22.0163 73.5107 29.963V313.97C73.5107 317.905 74.3421 321.801 75.9575 325.436C77.5728 329.071 79.9405 332.375 82.9253 335.157C85.9101 337.939 89.4535 340.146 93.3533 341.652C97.2531 343.158 101.433 343.933 105.654 343.933H223.316C231.84 343.933 240.016 340.776 246.044 335.157C252.072 329.538 255.458 321.916 255.458 313.97V118.58H257.486L257.486 81.7307Z" fill="#E6E6E6"/>
<path d="M224.613 7.79242H209.255C209.961 9.40668 210.231 11.1581 210.04 12.8924C209.849 14.6267 209.204 16.2905 208.16 17.7375C207.117 19.1844 205.708 20.3699 204.057 21.1896C202.407 22.0093 200.565 22.438 198.695 22.4379H131.288C129.418 22.4379 127.576 22.009 125.926 21.1893C124.275 20.3695 122.867 19.184 121.823 17.7371C120.78 16.2902 120.135 14.6263 119.944 12.8921C119.753 11.1579 120.023 9.40661 120.729 7.79242H106.384C100.018 7.79242 93.9122 10.1499 89.4106 14.3462C84.9089 18.5425 82.3799 24.234 82.3799 30.1685V313.763C82.3799 319.697 84.9089 325.389 89.4106 329.585C93.9122 333.782 100.018 336.139 106.384 336.139H224.613C230.979 336.139 237.084 333.782 241.586 329.585C246.088 325.389 248.617 319.697 248.617 313.763V30.168C248.617 24.2336 246.088 18.5423 241.586 14.346C237.084 10.1498 230.979 7.79242 224.613 7.79242Z" fill="white"/>
<path d="M150.433 120.762C150.433 118.78 150.992 116.832 152.056 115.116C153.12 113.399 154.65 111.974 156.492 110.984C154.65 109.993 152.562 109.471 150.435 109.47C148.309 109.47 146.22 109.992 144.378 110.983C142.537 111.974 141.008 113.399 139.944 115.115C138.881 116.832 138.321 118.779 138.321 120.761C138.321 122.743 138.881 124.691 139.944 126.407C141.008 128.124 142.537 129.549 144.378 130.54C146.22 131.531 148.309 132.053 150.435 132.052C152.562 132.052 154.65 131.53 156.492 130.539C154.65 129.549 153.12 128.124 152.056 126.408C150.993 124.691 150.433 122.744 150.433 120.762Z" fill="#CCCCCC"/>
<path d="M165.661 120.762C165.66 118.78 166.22 116.832 167.283 115.116C168.347 113.399 169.877 111.974 171.719 110.984C169.878 109.993 167.789 109.471 165.663 109.47C163.536 109.47 161.447 109.992 159.606 110.983C157.764 111.974 156.235 113.399 155.172 115.115C154.109 116.832 153.549 118.779 153.549 120.761C153.549 122.743 154.109 124.691 155.172 126.407C156.235 128.124 157.764 129.549 159.606 130.54C161.447 131.531 163.536 132.053 165.663 132.052C167.789 132.052 169.878 131.53 171.719 130.539C169.877 129.549 168.347 128.124 167.284 126.408C166.22 124.691 165.66 122.744 165.661 120.762Z" fill="#CCCCCC"/>
<path d="M180.542 132.053C187.231 132.053 192.654 126.997 192.654 120.762C192.654 114.526 187.231 109.471 180.542 109.471C173.852 109.471 168.429 114.526 168.429 120.762C168.429 126.997 173.852 132.053 180.542 132.053Z" fill="#17BDC6"/>
<path d="M200.785 156.028H130.19C129.518 156.027 128.873 155.778 128.398 155.335C127.923 154.892 127.656 154.291 127.655 153.665V87.8583C127.656 87.2318 127.923 86.6312 128.398 86.1882C128.873 85.7452 129.518 85.496 130.19 85.4953H200.785C201.457 85.496 202.101 85.7452 202.576 86.1882C203.052 86.6312 203.319 87.2318 203.32 87.8583V153.665C203.319 154.291 203.052 154.892 202.576 155.335C202.101 155.778 201.457 156.027 200.785 156.028ZM130.19 86.4411C129.787 86.4414 129.4 86.5909 129.115 86.8567C128.83 87.1225 128.669 87.4829 128.669 87.8588V153.665C128.669 154.041 128.83 154.401 129.115 154.667C129.4 154.933 129.787 155.083 130.19 155.083H200.785C201.188 155.083 201.575 154.933 201.86 154.667C202.145 154.401 202.305 154.041 202.306 153.665V87.8588C202.305 87.4829 202.145 87.1225 201.86 86.8567C201.575 86.5909 201.188 86.4414 200.785 86.4411H130.19Z" fill="#CCCCCC"/>
<path d="M216.548 206.472H108.276V207.417H216.548V206.472Z" fill="#CCCCCC"/>
<path d="M111.696 200.57C113.584 200.57 115.115 199.143 115.115 197.382C115.115 195.622 113.584 194.195 111.696 194.195C109.807 194.195 108.276 195.622 108.276 197.382C108.276 199.143 109.807 200.57 111.696 200.57Z" fill="#17BDC6"/>
<path d="M216.548 238.343H108.276V239.288H216.548V238.343Z" fill="#CCCCCC"/>
<path d="M111.696 232.442C113.584 232.442 115.115 231.015 115.115 229.254C115.115 227.494 113.584 226.067 111.696 226.067C109.807 226.067 108.276 227.494 108.276 229.254C108.276 231.015 109.807 232.442 111.696 232.442Z" fill="#17BDC6"/>
<path d="M214.566 274.637H180.349C179.758 274.637 179.192 274.417 178.774 274.028C178.356 273.638 178.121 273.11 178.12 272.559V261.38C178.121 260.829 178.356 260.301 178.774 259.911C179.192 259.521 179.758 259.302 180.349 259.302H214.566C215.157 259.302 215.724 259.521 216.142 259.911C216.56 260.301 216.795 260.829 216.795 261.38V272.559C216.795 273.11 216.56 273.638 216.142 274.028C215.724 274.417 215.157 274.637 214.566 274.637Z" fill="#17BDC6"/>
<path d="M122.849 200.57C124.737 200.57 126.268 199.143 126.268 197.382C126.268 195.622 124.737 194.195 122.849 194.195C120.961 194.195 119.43 195.622 119.43 197.382C119.43 199.143 120.961 200.57 122.849 200.57Z" fill="#17BDC6"/>
<path d="M134.003 200.57C135.891 200.57 137.422 199.143 137.422 197.382C137.422 195.622 135.891 194.195 134.003 194.195C132.114 194.195 130.583 195.622 130.583 197.382C130.583 199.143 132.114 200.57 134.003 200.57Z" fill="#17BDC6"/>
<path d="M122.849 232.442C124.737 232.442 126.268 231.015 126.268 229.254C126.268 227.494 124.737 226.067 122.849 226.067C120.961 226.067 119.43 227.494 119.43 229.254C119.43 231.015 120.961 232.442 122.849 232.442Z" fill="#17BDC6"/>
<path d="M134.003 232.442C135.891 232.442 137.422 231.015 137.422 229.254C137.422 227.494 135.891 226.067 134.003 226.067C132.114 226.067 130.583 227.494 130.583 229.254C130.583 231.015 132.114 232.442 134.003 232.442Z" fill="#17BDC6"/>
<path d="M367.622 345H11.9295C11.1681 345 10.5513 344.748 10.5513 344.438C10.5513 344.127 11.1681 343.875 11.9295 343.875H367.622C368.383 343.875 369 344.127 369 344.438C369 344.748 368.383 345 367.622 345Z" fill="#3F3D56"/>
<path d="M279.743 226.033C279.986 226.137 280.219 226.258 280.442 226.397L302.661 217.556L303.455 212.1L312.333 212.05L311.808 224.563L282.481 231.793C282.419 231.983 282.345 232.17 282.259 232.351C281.835 233.195 281.153 233.903 280.299 234.386C279.445 234.869 278.456 235.107 277.458 235.068C276.46 235.029 275.496 234.717 274.688 234.169C273.879 233.622 273.262 232.864 272.915 231.991C272.567 231.118 272.504 230.168 272.733 229.261C272.962 228.355 273.474 227.532 274.203 226.895C274.933 226.259 275.848 225.837 276.833 225.684C277.819 225.531 278.831 225.652 279.743 226.033Z" fill="#FFB8B8"/>
<path d="M315.562 339.432H309.488L306.599 317.595L315.563 317.595L315.562 339.432Z" fill="#FFB8B8"/>
<path d="M305.15 337.815H316.863V344.69H297.775C297.775 342.866 298.552 341.118 299.935 339.828C301.318 338.539 303.194 337.815 305.15 337.815Z" fill="#2F2E41"/>
<path d="M339.183 337.833L333.138 338.388L327.966 316.92L336.887 316.101L339.183 337.833Z" fill="#FFB8B8"/>
<path d="M328.651 337.174L340.308 336.104L341.031 342.946L322.034 344.69C321.94 343.792 322.035 342.884 322.316 342.02C322.598 341.157 323.059 340.353 323.673 339.655C324.287 338.957 325.043 338.379 325.897 337.953C326.751 337.527 327.687 337.263 328.651 337.174Z" fill="#2F2E41"/>
<path d="M317.253 188.938C323.973 188.938 329.42 183.86 329.42 177.596C329.42 171.332 323.973 166.254 317.253 166.254C310.533 166.254 305.085 171.332 305.085 177.596C305.085 183.86 310.533 188.938 317.253 188.938Z" fill="#FFB8B8"/>
<path d="M308.131 335.016C307.609 335.018 307.104 334.847 306.703 334.535C306.303 334.222 306.034 333.788 305.944 333.309C302.8 317.042 292.525 263.852 292.279 262.378C292.273 262.345 292.271 262.31 292.271 262.276V258.31C292.271 258.166 292.319 258.025 292.409 257.908L293.767 256.135C293.831 256.05 293.916 255.98 294.014 255.93C294.112 255.88 294.222 255.851 294.333 255.847C302.073 255.508 327.419 254.517 328.643 255.943C329.873 257.376 329.438 261.719 329.339 262.575L329.344 262.664L340.731 330.546C340.82 331.088 340.677 331.64 340.332 332.084C339.988 332.527 339.47 332.827 338.89 332.917L331.778 334.01C331.248 334.089 330.706 333.988 330.249 333.726C329.792 333.464 329.451 333.058 329.288 332.581C327.089 326.029 319.713 303.988 317.156 295.459C317.14 295.405 317.104 295.358 317.054 295.327C317.003 295.297 316.943 295.284 316.883 295.292C316.824 295.3 316.769 295.328 316.73 295.37C316.691 295.413 316.67 295.467 316.671 295.523C316.798 303.653 317.107 324.396 317.213 331.56L317.225 332.332C317.23 332.854 317.024 333.359 316.649 333.747C316.273 334.135 315.755 334.378 315.197 334.427L308.339 335.008C308.27 335.014 308.2 335.016 308.131 335.016Z" fill="#2F2E41"/>
<path d="M309.53 193.398C307.407 194.575 306.136 196.737 305.407 198.938C304.057 203.011 303.245 207.223 302.987 211.48L302.217 224.226L292.678 258.015C300.945 264.536 305.714 263.054 316.844 257.72C327.973 252.386 329.245 259.499 329.245 259.499L331.47 230.748L334.65 199.331C333.936 198.529 333.128 197.805 332.242 197.172C329.303 195.042 325.883 193.561 322.241 192.841C318.599 192.122 314.829 192.182 311.216 193.018L309.53 193.398Z" fill="#17BDC6"/>
<path d="M306.432 232.857C306.689 232.947 306.937 233.056 307.176 233.183L329.146 222.932L329.511 217.378L338.573 216.796L339.059 229.455L309.699 238.506C309.459 239.465 308.912 240.332 308.13 240.994C307.348 241.656 306.369 242.08 305.322 242.21C304.276 242.34 303.212 242.17 302.271 241.723C301.331 241.275 300.559 240.572 300.058 239.705C299.557 238.839 299.351 237.851 299.467 236.873C299.583 235.894 300.015 234.972 300.707 234.229C301.399 233.486 302.318 232.956 303.34 232.711C304.363 232.466 305.441 232.517 306.432 232.857Z" fill="#FFB8B8"/>
<path d="M334.491 199.474C339.897 201.253 340.849 220.52 340.849 220.52C334.489 217.26 326.858 222.595 326.858 222.595C326.858 222.595 325.268 217.556 323.36 211.035C322.784 209.201 322.715 207.261 323.16 205.395C323.605 203.53 324.549 201.799 325.904 200.365C325.904 200.365 329.085 197.695 334.491 199.474Z" fill="#17BDC6"/>
<path d="M328.163 180.596C326.647 179.465 324.579 181.52 324.579 181.52L323.366 171.345C323.366 171.345 315.785 172.191 310.934 171.062C306.083 169.934 305.325 175.161 305.325 175.161C305.075 173.049 305.024 170.921 305.173 168.802C305.476 166.258 309.418 163.714 316.392 162.018C323.366 160.322 327.004 167.671 327.004 167.671C331.856 169.932 329.679 181.726 328.163 180.596Z" fill="#2F2E41"/>
</g>
<defs>
<clipPath id="clip0_86_2">
<rect width="369" height="345" fill="white"/>
</clipPath>
</defs>
</svg>
