<svg width="483" height="349" viewBox="0 0 483 349" fill="none" xmlns="http://www.w3.org/2000/svg">
<g clip-path="url(#clip0_69_147)">
<path d="M71.604 247.396C71.2077 246.796 70.6847 246.291 70.0718 245.915C69.4589 245.54 68.7711 245.303 68.0567 245.222C67.3424 245.14 66.6189 245.217 65.9372 245.445C65.2555 245.673 64.6322 246.048 64.1112 246.543L48.5811 238.532L49.5465 247.557L64.1462 253.781C65.0366 254.601 66.1968 255.065 67.4071 255.087C68.6174 255.109 69.7936 254.686 70.7129 253.899C71.6322 253.112 72.2306 252.015 72.3949 250.817C72.5591 249.618 72.2777 248.401 71.604 247.396H71.604Z" fill="#A0616A"/>
<path d="M57.8024 251.029C57.5214 251.157 57.2164 251.226 56.9073 251.229C56.5981 251.232 56.2917 251.171 56.008 251.048L41.2566 244.653C36.2128 242.467 32.1351 238.524 29.782 233.559L22.0268 217.199C21.4545 216.464 21.0327 215.623 20.7856 214.726C20.5385 213.828 20.4709 212.89 20.5867 211.966C20.7025 211.042 20.9994 210.15 21.4604 209.341C21.9215 208.531 22.5376 207.821 23.2736 207.25C24.0096 206.679 24.851 206.258 25.7497 206.012C26.6484 205.766 27.5868 205.7 28.5112 205.817C29.4356 205.934 30.3279 206.232 31.1371 206.693C31.9463 207.155 32.6564 207.772 33.2269 208.508L46.8587 233.784L59.4458 243.287C59.8061 243.56 60.0737 243.937 60.2125 244.368C60.3513 244.798 60.3545 245.26 60.2218 245.692L58.9863 249.68C58.8536 250.108 58.5937 250.485 58.2411 250.761C58.1059 250.867 57.9587 250.957 57.8024 251.029Z" fill="#CCCCCC"/>
<path d="M21.6854 197.959C28.3195 197.959 33.6975 192.584 33.6975 185.954C33.6975 179.324 28.3195 173.949 21.6854 173.949C15.0513 173.949 9.67334 179.324 9.67334 185.954C9.67334 192.584 15.0513 197.959 21.6854 197.959Z" fill="#A0616A"/>
<path d="M26.5513 343.436L32.5468 343.435L35.3995 320.322L26.5498 320.323L26.5513 343.436Z" fill="#A0616A"/>
<path d="M44.1103 348.999L25.2661 349L25.2658 341.724L36.8293 341.723C38.7602 341.723 40.6122 342.49 41.9776 343.854C43.3431 345.219 44.1103 347.069 44.1104 348.999L44.1103 348.999Z" fill="#2F2E41"/>
<path d="M6.98828 343.436L12.9838 343.435L15.8366 320.322L6.98682 320.323L6.98828 343.436Z" fill="#A0616A"/>
<path d="M24.5478 348.999L5.7036 349L5.70326 341.724L17.2668 341.723C19.1977 341.723 21.0497 342.49 22.4151 343.854C23.7806 345.219 24.5478 347.069 24.5479 348.999L24.5478 348.999Z" fill="#2F2E41"/>
<path d="M4.89467 336.82C4.68807 336.584 4.53428 336.307 4.44361 336.007C4.35293 335.707 4.32747 335.391 4.36892 335.08L14.8666 256.395L40.9481 260.821L43.7316 259.152L36.5337 333.81C36.4738 334.314 36.2418 334.782 35.8769 335.135C35.512 335.488 35.0364 335.704 34.5304 335.747L26.633 336.405C26.319 336.431 26.0031 336.39 25.7065 336.283C25.41 336.177 25.1397 336.008 24.9141 335.789C24.6884 335.569 24.5126 335.303 24.3986 335.01C24.2845 334.716 24.2349 334.402 24.253 334.087L26.2976 298.533C26.3012 298.472 26.2823 298.412 26.2444 298.365C26.2066 298.318 26.1526 298.286 26.0928 298.277C26.0331 298.267 25.9718 298.28 25.9209 298.313C25.8701 298.345 25.8332 298.396 25.8174 298.454L15.7019 335.943C15.5754 336.41 15.2988 336.822 14.9148 337.116C14.5308 337.41 14.0607 337.57 13.577 337.571H6.55054C6.23694 337.571 5.92695 337.504 5.64136 337.374C5.35577 337.245 5.10118 337.056 4.89467 336.82Z" fill="#2F2E41"/>
<path d="M22.9567 261.902C22.6574 261.631 22.2725 261.474 21.8691 261.457C21.4656 261.44 21.0689 261.565 20.748 261.81L15.5336 265.864C15.2499 266.085 14.9161 266.233 14.5617 266.295C14.2072 266.358 13.8429 266.332 13.5007 266.221C13.1585 266.109 12.8489 265.916 12.599 265.657C12.3491 265.398 12.1665 265.082 12.0674 264.736C9.50968 255.784 3.71486 233.25 5.14243 217.39C5.95162 208.4 13.7193 201.568 22.458 202.141C28.4323 202.539 32.3626 205.984 34.1399 212.378C38.5037 228.079 43.2994 256.879 44.2164 262.493C44.2888 262.928 44.2277 263.376 44.0413 263.776C43.8548 264.176 43.5516 264.511 43.1715 264.736C40.7043 266.216 37.8855 267.009 35.008 267.032C31.5262 267.032 27.3515 265.82 22.9567 261.902Z" fill="#CCCCCC"/>
<path d="M24.9248 267.487C24.9831 266.771 24.8837 266.051 24.6334 265.377C24.3832 264.704 23.9882 264.093 23.4762 263.589C22.9643 263.084 22.3479 262.698 21.6705 262.457C20.9931 262.217 20.2711 262.127 19.5553 262.195L12.282 246.314L7.46875 254.011L15.1136 267.912C15.3081 269.106 15.9342 270.187 16.8731 270.951C17.812 271.715 18.9986 272.107 20.208 272.055C21.4173 272.003 22.5654 271.509 23.4348 270.667C24.3041 269.825 24.8343 268.694 24.9248 267.487Z" fill="#A0616A"/>
<path d="M11.8213 261.834C11.5206 261.762 11.2385 261.627 10.9932 261.439C10.7479 261.251 10.545 261.014 10.3976 260.742L2.7391 246.612C0.120024 241.781 -0.65414 236.164 0.560613 230.805L4.56046 213.149C4.56409 212.218 4.7513 211.297 5.11138 210.438C5.47146 209.58 5.99737 208.8 6.65902 208.145C7.32067 207.489 8.10511 206.971 8.96747 206.618C9.82984 206.266 10.7532 206.087 11.6849 206.091C12.6165 206.096 13.5381 206.284 14.397 206.645C15.2559 207.005 16.0352 207.532 16.6904 208.194C17.3456 208.856 17.8639 209.64 18.2155 210.502C18.5672 211.364 18.7454 212.288 18.7399 213.219L13.8583 241.515L17.8949 256.755C18.0097 257.193 17.9873 257.655 17.8309 258.079C17.6744 258.503 17.3915 258.869 17.0202 259.127L13.5854 261.503C13.217 261.758 12.7796 261.894 12.3316 261.894C12.1597 261.894 11.9884 261.874 11.8213 261.834Z" fill="#CCCCCC"/>
<path opacity="0.2" d="M17.7654 225.152L13.3638 243.725L19.7217 259.366L15.3201 244.214L17.7654 225.152Z" fill="black"/>
<path d="M14.8312 195.825C13.7626 195.845 12.7008 195.653 11.707 195.261C11.2697 195.092 10.8158 194.954 10.3793 194.785C6.52458 193.297 3.98534 189.194 3.89439 185.065C3.80345 180.936 5.94295 176.929 9.11993 174.288C12.2969 171.647 16.4119 170.291 20.5324 169.977C24.9708 169.639 29.9686 170.764 32.4488 174.458C33.109 175.442 33.5707 176.635 33.1795 177.822C33.0623 178.18 32.853 178.501 32.5726 178.754C31.465 179.738 30.3608 178.998 29.2317 178.932C27.6798 178.842 26.2858 180.098 25.7849 181.569C25.2839 183.039 25.5044 184.659 25.9089 186.159C26.2171 187.061 26.4114 187.999 26.4872 188.95C26.5199 189.426 26.4302 189.903 26.2266 190.336C26.023 190.768 25.7123 191.141 25.324 191.42C24.3542 192.006 23.0806 191.667 22.1103 191.082C21.1399 190.497 20.3015 189.684 19.2533 189.254C18.2052 188.823 16.797 188.919 16.1869 189.873C15.9931 190.22 15.8618 190.599 15.7993 190.992C15.2524 193.482 15.3781 193.335 14.8311 195.825L14.8312 195.825Z" fill="#2F2E41"/>
<path d="M370.39 112.653H73.5241C72.3933 112.654 71.3091 113.104 70.5095 113.903C69.7099 114.702 69.2603 115.785 69.2593 116.915V317.959C69.2603 319.089 69.7099 320.173 70.5095 320.972C71.3091 321.771 72.3933 322.22 73.5241 322.221H370.39C371.007 322.221 371.616 322.087 372.176 321.829C372.735 321.571 373.232 321.194 373.633 320.725C373.666 320.689 373.697 320.649 373.725 320.608C373.98 320.297 374.186 319.949 374.337 319.577C374.551 319.064 374.661 318.514 374.659 317.959V192.808H373.442V317.959C373.442 318.553 373.267 319.135 372.938 319.63C372.646 320.067 372.249 320.423 371.784 320.667C371.353 320.889 370.875 321.005 370.39 321.004H73.5241C72.7163 321.003 71.9418 320.682 71.3705 320.111C70.7993 319.54 70.4779 318.766 70.4769 317.959V116.915C70.4779 116.108 70.7993 115.334 71.3705 114.763C71.9418 114.192 72.7163 113.871 73.5241 113.87H370.39C371.199 113.87 371.974 114.191 372.546 114.762C373.118 115.333 373.44 116.107 373.442 116.915V143.93H374.659V116.915C374.658 115.785 374.208 114.7 373.407 113.901C372.607 113.102 371.522 112.653 370.39 112.653Z" fill="#3F3D56"/>
<path d="M374.047 129.737H69.8662V130.956H374.047V129.737Z" fill="#3F3D56"/>
<path d="M80.2293 125.449C82.2492 125.449 83.8867 123.812 83.8867 121.793C83.8867 119.774 82.2492 118.138 80.2293 118.138C78.2093 118.138 76.5718 119.774 76.5718 121.793C76.5718 123.812 78.2093 125.449 80.2293 125.449Z" fill="#CCCCCC"/>
<path d="M90.7444 125.449C92.7644 125.449 94.4019 123.812 94.4019 121.793C94.4019 119.774 92.7644 118.138 90.7444 118.138C88.7244 118.138 87.0869 119.774 87.0869 121.793C87.0869 123.812 88.7244 125.449 90.7444 125.449Z" fill="#CCCCCC"/>
<path d="M101.26 125.449C103.279 125.449 104.917 123.812 104.917 121.793C104.917 119.774 103.279 118.138 101.26 118.138C99.2396 118.138 97.6021 119.774 97.6021 121.793C97.6021 123.812 99.2396 125.449 101.26 125.449Z" fill="#CCCCCC"/>
<path d="M174.723 297.579C173.464 297.573 172.227 297.254 171.122 296.649C170.018 296.045 169.082 295.175 168.399 294.118C167.716 293.061 167.307 291.85 167.211 290.596C167.114 289.341 167.331 288.082 167.844 286.933L176.557 267.504C169.695 261.438 164.203 253.981 160.447 245.63C156.691 237.279 154.757 228.224 154.774 219.068C154.774 183.297 183.893 154.194 219.686 154.194C255.48 154.194 284.599 183.297 284.599 219.068C284.599 254.839 255.48 283.942 219.686 283.942C213.425 283.936 207.198 283.019 201.2 281.221L178.963 296.266C177.713 297.119 176.236 297.576 174.723 297.579ZM219.686 163.246C208.102 163.24 196.803 166.835 187.355 173.533C177.907 180.232 170.778 189.702 166.956 200.631C163.135 211.56 162.81 223.407 166.027 234.529C169.244 245.651 175.843 255.497 184.91 262.702L187.655 264.89L178.28 285.797L199.795 271.24L201.919 271.953C209.593 274.53 217.737 275.408 225.784 274.527C233.832 273.645 241.591 271.026 248.525 266.849C255.459 262.673 261.402 257.04 265.94 250.34C270.479 243.64 273.506 236.034 274.811 228.049C276.116 220.064 275.668 211.891 273.499 204.096C271.329 196.301 267.489 189.071 262.245 182.906C257.001 176.742 250.479 171.791 243.13 168.396C235.782 165.001 227.782 163.244 219.686 163.246Z" fill="#3F3D56"/>
<path d="M219.687 225.103C224.689 225.103 228.744 221.05 228.744 216.051C228.744 211.051 224.689 206.999 219.687 206.999C214.684 206.999 210.629 211.051 210.629 216.051C210.629 221.05 214.684 225.103 219.687 225.103Z" fill="#3F3D56"/>
<path d="M194.023 225.103C199.026 225.103 203.081 221.05 203.081 216.051C203.081 211.051 199.026 206.999 194.023 206.999C189.021 206.999 184.966 211.051 184.966 216.051C184.966 221.05 189.021 225.103 194.023 225.103Z" fill="#3F3D56"/>
<path d="M245.35 225.103C250.352 225.103 254.407 221.05 254.407 216.051C254.407 211.051 250.352 206.999 245.35 206.999C240.347 206.999 236.292 211.051 236.292 216.051C236.292 221.05 240.347 225.103 245.35 225.103Z" fill="#3F3D56"/>
<path d="M447.457 180.223H361.38C360.343 180.223 359.347 179.811 358.614 179.077C357.88 178.344 357.468 177.349 357.468 176.312C357.468 175.275 357.88 174.281 358.614 173.547C359.347 172.814 360.343 172.402 361.38 172.402H447.457C448.494 172.402 449.49 172.814 450.223 173.547C450.957 174.281 451.369 175.275 451.369 176.312C451.369 177.349 450.957 178.344 450.223 179.077C449.49 179.811 448.494 180.223 447.457 180.223Z" fill="#CCCCCC"/>
<path d="M391.214 163.604H361.38C360.343 163.604 359.347 163.192 358.614 162.459C357.88 161.726 357.468 160.731 357.468 159.694C357.468 158.657 357.88 157.662 358.614 156.929C359.347 156.196 360.343 155.784 361.38 155.784H391.214C392.251 155.784 393.246 156.196 393.98 156.929C394.714 157.662 395.126 158.657 395.126 159.694C395.126 160.731 394.714 161.726 393.98 162.459C393.246 163.192 392.251 163.604 391.214 163.604Z" fill="#CCCCCC"/>
<path d="M322.393 184.987C331.577 184.987 339.021 177.547 339.021 168.369C339.021 159.191 331.577 151.75 322.393 151.75C313.209 151.75 305.765 159.191 305.765 168.369C305.765 177.547 313.209 184.987 322.393 184.987Z" fill="#17BDC6"/>
<path d="M456.085 142.952H301.05C298.845 142.956 296.732 143.832 295.174 145.39C293.615 146.947 292.738 149.059 292.735 151.262V185.476C292.738 187.679 293.615 189.79 295.174 191.348C296.732 192.906 298.845 193.782 301.05 193.785H456.085C458.289 193.782 460.402 192.906 461.961 191.348C463.519 189.79 464.396 187.679 464.399 185.476V151.262C464.396 149.059 463.519 146.947 461.961 145.39C460.402 143.832 458.289 142.956 456.085 142.952ZM463.421 185.476C463.419 187.42 462.645 189.283 461.27 190.658C459.894 192.032 458.03 192.805 456.085 192.808H301.05C299.105 192.805 297.24 192.032 295.865 190.658C294.49 189.283 293.716 187.42 293.713 185.476V151.262C293.716 149.318 294.49 147.454 295.865 146.08C297.24 144.706 299.105 143.932 301.05 143.93H456.085C458.03 143.932 459.894 144.706 461.27 146.08C462.645 147.454 463.419 149.318 463.421 151.262V185.476Z" fill="#3F3D56"/>
<path d="M463.421 156.638C469.633 156.638 474.67 151.605 474.67 145.396C474.67 139.188 469.633 134.154 463.421 134.154C457.209 134.154 452.172 139.188 452.172 145.396C452.172 151.605 457.209 156.638 463.421 156.638Z" fill="#17BDC6"/>
<path d="M463.075 151.719C463.029 151.673 462.993 151.619 462.969 151.56C462.944 151.501 462.932 151.437 462.932 151.373V138.931C462.932 138.801 462.983 138.677 463.075 138.585C463.167 138.494 463.291 138.442 463.421 138.442C463.55 138.442 463.675 138.494 463.766 138.585C463.858 138.677 463.91 138.801 463.91 138.931V151.373C463.91 151.47 463.881 151.564 463.827 151.645C463.774 151.725 463.697 151.788 463.608 151.825C463.518 151.862 463.42 151.871 463.325 151.852C463.23 151.834 463.143 151.787 463.075 151.719Z" fill="white"/>
<path d="M456.85 145.498C456.782 145.429 456.735 145.342 456.716 145.247C456.698 145.152 456.707 145.054 456.744 144.965C456.781 144.876 456.844 144.799 456.924 144.746C457.005 144.692 457.099 144.663 457.196 144.663H469.646C469.776 144.663 469.9 144.715 469.992 144.806C470.083 144.898 470.135 145.022 470.135 145.152C470.135 145.282 470.083 145.406 469.992 145.498C469.9 145.589 469.776 145.641 469.646 145.641H457.196C457.132 145.641 457.068 145.628 457.009 145.604C456.95 145.579 456.896 145.543 456.85 145.498Z" fill="white"/>
<path d="M476.887 294.818H453.406C453.406 295.493 429.207 296.04 429.207 296.04C428.827 296.326 428.481 296.654 428.175 297.018C427.256 298.114 426.754 299.498 426.757 300.928V301.906C426.757 303.526 427.402 305.08 428.548 306.225C429.694 307.371 431.249 308.015 432.87 308.015H476.887C478.508 308.014 480.062 307.37 481.208 306.224C482.354 305.079 482.999 303.526 483 301.906V300.928C482.998 299.308 482.353 297.756 481.207 296.61C480.061 295.465 478.507 294.821 476.887 294.818Z" fill="#3F3D56"/>
<path d="M458.299 307.773H451.941V348.83H458.299V307.773Z" fill="#3F3D56"/>
<path d="M476.395 348.607C476.395 349.293 466.761 348.872 454.876 348.872C442.991 348.872 433.357 349.293 433.357 348.607C433.357 347.92 442.991 342.476 454.876 342.476C466.761 342.476 476.395 347.92 476.395 348.607Z" fill="#3F3D56"/>
<path d="M457.16 239.798C464.723 239.798 470.854 233.671 470.854 226.112C470.854 218.554 464.723 212.426 457.16 212.426C449.597 212.426 443.466 218.554 443.466 226.112C443.466 233.671 449.597 239.798 457.16 239.798Z" fill="#2F2E41"/>
<path d="M423.082 343.207L417.086 343.206L414.233 320.093L423.083 320.093L423.082 343.207Z" fill="#FFB8B8"/>
<path d="M412.803 341.494H424.366V348.77H405.522C405.522 346.841 406.289 344.99 407.654 343.625C409.02 342.261 410.872 341.494 412.803 341.494Z" fill="#2F2E41"/>
<path d="M413.722 339.862L408.001 338.068L412.204 315.161L420.647 317.809L413.722 339.862Z" fill="#FFB8B8"/>
<path d="M404.428 335.153L415.461 338.613L413.281 345.555L395.301 339.917C395.879 338.075 397.166 336.539 398.877 335.646C400.589 334.752 402.585 334.575 404.428 335.153Z" fill="#2F2E41"/>
<path d="M460.828 290.812C460.69 289.647 460.441 288.498 460.085 287.381L458.965 285.973L456.05 282.317L455.923 282.322C455.708 282.332 454.813 282.38 453.429 282.488H453.414C452.558 282.556 451.512 282.644 450.323 282.757C450.01 282.791 449.683 282.82 449.345 282.855V287.957H455.458C455.756 287.958 456.042 288.066 456.266 288.262C456.489 288.458 456.633 288.728 456.671 289.023C456.676 289.077 456.681 289.126 456.681 289.179C456.681 289.503 456.552 289.814 456.323 290.043C456.094 290.272 455.783 290.401 455.458 290.401H419.952C419.499 290.701 419.065 291.028 418.651 291.379C417.4 292.347 416.499 293.695 416.083 295.221C414.01 304.331 410.229 321.321 409.114 326.312C409.033 326.688 409.052 327.078 409.167 327.445C409.283 327.812 409.492 328.142 409.774 328.404C409.982 328.598 410.227 328.749 410.493 328.848L414.905 330.5C415.086 330.567 415.275 330.612 415.467 330.632C415.491 330.632 415.511 330.637 415.536 330.637C415.581 330.641 415.627 330.643 415.672 330.642C416.119 330.64 416.554 330.504 416.921 330.251C417.288 329.998 417.571 329.641 417.731 329.225L421.214 320.094L426.579 306.018L428.701 300.45C431.161 301.027 451.8 305.592 458.711 298.236C459.392 297.512 459.93 296.664 460.295 295.739C460.877 294.165 461.06 292.473 460.828 290.812Z" fill="#2F2E41"/>
<path d="M466.814 292.141C466.707 291.706 466.585 291.257 466.443 290.802L462.408 285.738L462.281 285.743C462.026 285.758 460.819 285.821 458.965 285.973C456.862 286.149 453.923 286.432 450.621 286.877C450.524 286.887 450.421 286.902 450.323 286.916C450 286.96 449.673 287.004 449.345 287.053V287.957H455.458C455.756 287.958 456.042 288.066 456.265 288.262C456.489 288.458 456.633 288.728 456.671 289.023C456.676 289.077 456.681 289.126 456.681 289.179C456.681 289.503 456.552 289.814 456.323 290.043C456.094 290.272 455.783 290.401 455.458 290.401H433.851C432.907 290.709 431.998 291.032 431.127 291.379C426.559 293.187 423.141 295.558 422.441 298.642C422.206 299.678 421.947 300.817 421.673 302.029C420.656 306.536 419.419 312.054 418.299 317.069V317.074C418.069 318.11 417.839 319.117 417.619 320.094C416.685 324.298 415.893 327.861 415.472 329.733C415.462 329.787 415.452 329.836 415.442 329.889V329.899C415.394 330.278 415.441 330.663 415.58 331.019L415.584 331.023V331.028C415.719 331.369 415.938 331.67 416.22 331.903C416.409 332.059 416.622 332.183 416.851 332.27L421.263 333.922C421.508 334.014 421.768 334.062 422.03 334.064C422.398 334.064 422.76 333.972 423.082 333.795C423.544 333.544 423.902 333.137 424.089 332.646L433.587 307.738L435.059 303.872C437.519 304.449 458.158 309.009 465.069 301.658C466.434 300.181 467.213 298.257 467.26 296.247C467.308 294.864 467.158 293.482 466.814 292.141Z" fill="#2F2E41"/>
<path d="M466.272 249.021C466.194 248.929 466.111 248.836 466.023 248.748C464.72 247.379 463.112 246.338 461.329 245.71C459.546 245.083 457.64 244.886 455.767 245.136C454.133 245.35 452.514 245.669 450.92 246.089C448.862 246.618 446.977 247.674 445.452 249.153C444.265 250.304 443.329 251.689 442.705 253.221C442.081 254.752 441.783 256.396 441.828 258.049C441.848 258.719 441.853 259.403 441.843 260.097C441.843 260.42 441.838 260.747 441.833 261.075H446.655C446.865 261.074 447.073 261.099 447.277 261.148C447.865 261.289 448.389 261.623 448.764 262.097C449.14 262.572 449.344 263.158 449.345 263.763V286.501C449.673 286.594 450.001 286.687 450.324 286.784C450.426 286.819 450.524 286.848 450.622 286.877C450.734 286.911 450.847 286.946 450.954 286.98C451.947 287.288 452.917 287.614 453.864 287.957H455.459C455.756 287.958 456.043 288.066 456.266 288.262C456.489 288.458 456.633 288.728 456.672 289.023C457.004 289.155 457.327 289.287 457.645 289.419C458.775 289.888 459.846 290.357 460.829 290.812C462.154 291.418 463.333 291.995 464.321 292.498C464.631 292.656 464.975 292.74 465.323 292.742C465.781 292.741 466.226 292.594 466.595 292.322C466.671 292.266 466.745 292.205 466.815 292.141C467.077 291.896 467.274 291.591 467.391 291.252C467.508 290.913 467.54 290.55 467.485 290.196C466.98 286.356 466.833 282.479 467.045 278.612C467.182 275.362 467.475 272.028 467.857 268.807C468.062 267.062 468.292 265.351 468.532 263.704C468.762 262.13 469.006 260.62 469.246 259.193C469.56 257.383 469.456 255.525 468.94 253.762C468.425 251.999 467.512 250.377 466.272 249.021Z" fill="#17BDC6"/>
<path d="M446.225 249.422C445.974 249.315 445.716 249.225 445.452 249.153C444.149 248.803 442.763 248.932 441.547 249.518C440.331 250.104 439.367 251.107 438.83 252.345L435.47 260.097L435.05 261.075H446.655C446.865 261.074 447.073 261.099 447.277 261.148L447.668 260.244L449.155 256.813C449.745 255.444 449.768 253.897 449.219 252.512C448.67 251.126 447.593 250.015 446.225 249.422Z" fill="#17BDC6"/>
<path d="M456.66 241.319C463.294 241.319 468.672 235.944 468.672 229.314C468.672 222.684 463.294 217.309 456.66 217.309C450.025 217.309 444.647 222.684 444.647 229.314C444.647 235.944 450.025 241.319 456.66 241.319Z" fill="#FFB8B8"/>
<path d="M444.432 223.416C450.121 226.887 456.536 229 463.176 229.589L461.2 227.223C462.639 227.754 464.153 228.055 465.685 228.113C467.216 228.089 468.82 227.5 469.689 226.24C470.076 225.614 470.307 224.903 470.36 224.168C470.413 223.434 470.288 222.697 469.995 222.022C469.393 220.674 468.455 219.503 467.272 218.62C465.175 216.962 462.701 215.848 460.069 215.378C457.437 214.908 454.729 215.096 452.187 215.926C450.444 216.446 448.882 217.447 447.682 218.814C446.543 220.218 444.351 221.469 444.934 223.179L444.432 223.416Z" fill="#2F2E41"/>
<path d="M458.679 213.728C454.891 209.889 450.306 206.926 445.248 205.048C442.001 203.846 438.467 203.103 435.073 203.786C431.678 204.468 428.468 206.815 427.521 210.144C426.747 212.865 427.547 215.796 428.748 218.358C429.95 220.92 431.554 223.296 432.526 225.953C433.518 228.665 433.816 231.581 433.394 234.437C432.972 237.294 431.842 239.999 430.108 242.308C428.374 244.618 426.091 246.458 423.465 247.661C420.839 248.865 417.954 249.394 415.072 249.201C418.407 249.648 421.481 251.214 424.741 252.048C428.001 252.881 431.849 252.825 434.271 250.491C436.834 248.021 436.886 244.006 436.762 240.45C436.578 235.164 436.393 229.878 436.209 224.592C436.115 221.896 436.035 219.114 437.008 216.598C437.981 214.081 440.292 211.878 442.991 211.901C445.037 211.918 446.847 213.157 448.488 214.378C450.128 215.599 451.865 216.902 453.902 217.084C455.94 217.266 458.266 215.759 458.114 213.72L458.679 213.728Z" fill="#2F2E41"/>
<path d="M468.531 263.704L461.675 263.89L461.176 268.704L461.063 269.819L450.323 274.638L449.345 275.078V283.646L450.323 283.368L453.414 282.488H453.429L467.045 278.612L467.201 278.568C468.301 278.25 469.27 277.587 469.962 276.675C470.655 275.764 471.035 274.654 471.045 273.509L471.079 267.825L471.109 263.636L468.531 263.704Z" fill="#FFB8B8"/>
<path d="M470.762 254.183C470.67 252.695 469.991 251.304 468.873 250.316C467.756 249.328 466.291 248.825 464.802 248.916C463.313 249.008 461.921 249.687 460.933 250.803C459.945 251.92 459.441 253.384 459.533 254.872L460.281 267.072C460.301 267.393 460.392 267.706 460.546 267.988C460.701 268.27 460.916 268.515 461.176 268.704C461.589 269.013 462.099 269.163 462.614 269.13L467.857 268.807L469.446 268.709C469.736 268.695 470.019 268.622 470.28 268.496C470.54 268.369 470.772 268.19 470.962 267.971C471.004 267.925 471.043 267.876 471.079 267.825C471.39 267.409 471.543 266.896 471.51 266.378L470.762 254.183Z" fill="#17BDC6"/>
<path d="M450.954 286.98H450.323V286.916C450 286.96 449.673 287.004 449.345 287.053V287.957H453.864C452.915 287.615 451.945 287.289 450.954 286.98ZM450.954 286.98H450.323V286.916C450 286.96 449.673 287.004 449.345 287.053V287.957H453.864C452.915 287.615 451.945 287.289 450.954 286.98ZM455.459 286.98H450.323V263.763C450.322 262.968 450.062 262.195 449.583 261.561C449.104 260.926 448.432 260.464 447.668 260.244C447.339 260.145 446.998 260.095 446.655 260.097H403.128C402.156 260.098 401.223 260.485 400.536 261.172C399.848 261.859 399.461 262.791 399.46 263.763V287.713C399.46 288.685 399.847 289.617 400.535 290.305C401.223 290.992 402.155 291.378 403.128 291.379H455.459C456 291.378 456.523 291.177 456.926 290.816C457.329 290.454 457.585 289.957 457.645 289.419C457.655 289.339 457.659 289.259 457.659 289.179C457.659 288.596 457.426 288.037 457.014 287.625C456.601 287.213 456.042 286.981 455.459 286.98ZM456.681 289.179C456.681 289.503 456.552 289.814 456.323 290.043C456.094 290.272 455.783 290.401 455.459 290.401H403.128C402.415 290.401 401.731 290.117 401.226 289.613C400.722 289.109 400.439 288.426 400.438 287.713V263.763C400.439 263.05 400.722 262.367 401.226 261.862C401.731 261.358 402.415 261.075 403.128 261.075H446.655C446.865 261.074 447.073 261.099 447.276 261.148C447.865 261.289 448.389 261.623 448.764 262.097C449.139 262.572 449.344 263.158 449.345 263.763V287.957H455.459C455.756 287.958 456.042 288.066 456.266 288.262C456.489 288.458 456.633 288.728 456.671 289.023C456.676 289.077 456.681 289.126 456.681 289.179ZM450.954 286.98H450.323V286.916C450 286.96 449.673 287.004 449.345 287.053V287.957H453.864C452.915 287.615 451.945 287.289 450.954 286.98Z" fill="#3F3D56"/>
<path d="M424.89 278.671C426.511 278.671 427.825 277.358 427.825 275.739C427.825 274.119 426.511 272.806 424.89 272.806C423.27 272.806 421.956 274.119 421.956 275.739C421.956 277.358 423.27 278.671 424.89 278.671Z" fill="#17BDC6"/>
<path d="M162.789 34.883C162.778 35.1063 162.785 35.3301 162.809 35.5524L147.452 48.4336L142.872 46.7764L139.466 53.3571L149.479 58.1204L166.269 39.291C167.116 39.4447 167.991 39.3368 168.776 38.9817C169.561 38.6265 170.219 38.041 170.663 37.3029C171.107 36.5648 171.315 35.7092 171.261 34.8498C171.206 33.9904 170.891 33.168 170.357 32.4919C169.824 31.8158 169.097 31.3181 168.273 31.065C167.45 30.8119 166.568 30.8153 165.747 31.0749C164.925 31.3345 164.202 31.8378 163.674 32.5181C163.146 33.1983 162.837 34.0232 162.789 34.883L162.789 34.883Z" fill="#FFB8B8"/>
<path d="M142.192 56.5136L127.361 51.1638C126 50.6727 124.889 49.6611 124.274 48.3517C123.659 47.0422 123.589 45.5422 124.081 44.1815C124.572 42.8208 125.584 41.7109 126.894 41.096C128.205 40.4812 129.706 40.4117 131.067 40.9028L145.898 46.2526C146.122 46.3337 146.329 46.4581 146.505 46.619C146.682 46.7798 146.825 46.9738 146.927 47.1899C147.028 47.406 147.086 47.64 147.097 47.8785C147.108 48.117 147.072 48.3553 146.991 48.5798L144.52 55.4208C144.356 55.8739 144.019 56.2434 143.582 56.4483C143.146 56.6532 142.645 56.6767 142.192 56.5137V56.5136Z" fill="#CCCCCC"/>
<path d="M131.33 108.632L136.286 108.631L138.644 89.5248L131.329 89.5253L131.33 108.632Z" fill="#FFB8B8"/>
<path d="M145.845 113.23L130.268 113.231L130.268 107.216L139.826 107.216C141.423 107.216 142.954 107.849 144.082 108.977C145.211 110.105 145.845 111.635 145.845 113.23L145.845 113.23Z" fill="#2F2E41"/>
<path d="M119.081 102.232L123.135 105.082L136.061 90.8078L130.077 86.6034L119.081 102.232Z" fill="#FFB8B8"/>
<path d="M127.819 113.361L115.076 104.407L118.538 99.4869L126.357 104.981C127.663 105.899 128.55 107.297 128.825 108.869C129.099 110.44 128.737 112.056 127.819 113.361L127.819 113.361Z" fill="#2F2E41"/>
<path d="M142.175 74.2139C142.175 74.2139 154.544 72.7555 152.324 80.777C150.104 88.7986 125.366 95.7262 125.366 95.7262L142.175 74.2139Z" fill="#FFB8B8"/>
<path d="M133.662 33.2841C139.146 33.2841 143.592 28.8411 143.592 23.3605C143.592 17.8798 139.146 13.4369 133.662 13.4369C128.178 13.4369 123.732 17.8798 123.732 23.3605C123.732 28.8411 128.178 33.2841 133.662 33.2841Z" fill="#FFB8B8"/>
<path d="M101.996 94.0837C96.3458 87.5086 94.3686 77.4175 103.379 69.0246C105.604 67.0028 108.124 65.3305 110.852 64.0649L118.114 43.7683C118.868 41.6488 120.251 39.8096 122.079 38.496C123.906 37.1824 126.09 36.4569 128.341 36.4163C130.526 36.322 132.687 36.9062 134.526 38.0885C136.366 39.2708 137.794 40.9933 138.615 43.0194C139.502 45.0806 139.603 47.395 138.9 49.5258C136.738 56.2539 133.899 62.7456 130.427 68.9011L130.802 71.9034L149.158 73.5337L148.987 73.8119C148.897 73.9571 139.914 87.6364 128.421 96.7162C124.492 99.8207 120.428 101.107 116.593 101.107C110.778 101.107 105.488 98.1477 101.996 94.0837Z" fill="#CCCCCC"/>
<path d="M100.263 26.4738C102.02 24.3817 102.774 21.6453 103.38 18.9823C104.339 14.7686 105.081 10.4116 107.212 6.65137C109.342 2.89122 113.258 -0.224455 117.575 0.0127039C121.868 0.248509 125.339 3.7001 127.181 7.62731C127.627 7.45416 128.105 7.37659 128.583 7.39962C129.061 7.42266 129.528 7.54578 129.956 7.76102C131.284 8.48767 131.78 10.553 130.675 11.587C131.837 11.0338 133.103 10.7314 134.39 10.6993C135.677 10.6672 136.956 10.9063 138.145 11.4009C139.673 12.0511 140.992 13.11 141.957 14.4612C142.922 15.8123 143.496 17.4033 143.615 19.0591C143.661 19.7312 143.569 20.4056 143.343 21.0405C143.118 21.6754 142.765 22.2574 142.306 22.7503C140.4 24.7104 137.706 24.0343 135.31 23.535C133.047 23.0634 130.291 22.936 129.016 25.0909C128.513 25.9888 128.373 27.0445 128.623 28.0425C129.111 30.1936 130.705 31.692 132.251 33.126L132.503 33.5955C127.045 34.6593 121.084 30.9335 119.652 25.5627C118.22 20.1918 121.535 13.9958 126.8 12.2041C126.45 12.215 126.103 12.1322 125.795 11.9643C125.487 11.7963 125.23 11.5493 125.05 11.2488C124.87 10.9483 124.773 10.6051 124.77 10.2548C124.767 9.90446 124.858 9.55966 125.033 9.25602C123.575 8.44012 121.926 8.02888 120.256 8.06501C117.537 8.24331 115.183 10.1779 113.768 12.5055C112.353 14.8331 111.712 17.5348 111.063 20.18C110.413 22.8253 109.711 25.5211 108.198 27.7863C107.149 29.3552 105.749 30.6576 104.108 31.5895C102.467 32.5214 100.63 33.0571 98.745 33.1537C96.8599 33.2503 94.9782 32.9053 93.2503 32.1461C91.5223 31.3869 89.9957 30.2346 88.7925 28.7811C90.694 29.7026 92.8452 29.9759 94.917 29.5592C96.9887 29.1425 98.8666 28.0587 100.263 26.4738Z" fill="#2F2E41"/>
<path d="M173.194 53.5179C181.165 53.5179 187.627 47.0598 187.627 39.0932C187.627 31.1267 181.165 24.6685 173.194 24.6685C165.223 24.6685 158.761 31.1267 158.761 39.0932C158.761 47.0598 165.223 53.5179 173.194 53.5179Z" fill="#17BDC6"/>
<path d="M172.75 47.2055C172.692 47.1474 172.646 47.0783 172.614 47.0021C172.582 46.926 172.566 46.8445 172.566 46.7621V30.7972C172.566 30.6309 172.633 30.4714 172.75 30.3537C172.868 30.2361 173.027 30.1701 173.194 30.1701C173.36 30.1701 173.52 30.2361 173.638 30.3537C173.755 30.4714 173.821 30.6309 173.821 30.7972V46.7621C173.821 46.8861 173.785 47.0073 173.716 47.1105C173.647 47.2136 173.549 47.294 173.434 47.3414C173.319 47.3889 173.193 47.4013 173.071 47.3771C172.95 47.353 172.838 47.2932 172.75 47.2055H172.75Z" fill="white"/>
<path d="M164.763 39.2231C164.675 39.1354 164.615 39.0237 164.591 38.902C164.567 38.7804 164.579 38.6543 164.627 38.5397C164.674 38.4251 164.755 38.3272 164.858 38.2583C164.961 38.1894 165.082 38.1526 165.207 38.1526H181.181C181.347 38.1526 181.507 38.2186 181.625 38.3362C181.742 38.4538 181.809 38.6133 181.809 38.7797C181.809 38.946 181.742 39.1055 181.625 39.2231C181.507 39.3407 181.347 39.4068 181.181 39.4068H165.207C165.124 39.4069 165.043 39.3907 164.966 39.3592C164.89 39.3277 164.821 39.2815 164.763 39.2231Z" fill="white"/>
<path d="M163.287 48.7414C163.182 48.9389 163.093 49.1444 163.02 49.3559L143.64 54.492L140.2 51.0465L134.318 55.5564L141.356 64.1214L164.561 54.2093C165.263 54.7086 166.101 54.9824 166.962 54.9944C167.824 55.0064 168.669 54.756 169.384 54.2764C170.1 53.7969 170.653 53.111 170.969 52.3099C171.285 51.5088 171.35 50.6305 171.154 49.7919C170.959 48.9532 170.512 48.1939 169.874 47.615C169.236 47.036 168.437 46.6648 167.583 46.5508C166.729 46.4367 165.861 46.5853 165.093 46.9766C164.326 47.3679 163.696 47.9834 163.287 48.7414L163.287 48.7414Z" fill="#FFB8B8"/>
<path d="M135.443 59.5716L124.294 48.4293C123.786 47.9231 123.383 47.3218 123.107 46.6596C122.832 45.9975 122.69 45.2876 122.689 44.5705C122.688 43.8534 122.829 43.1433 123.104 42.4806C123.378 41.818 123.78 41.216 124.288 40.7089C124.795 40.2019 125.397 39.7998 126.06 39.5257C126.723 39.2515 127.434 39.1107 128.151 39.1114C128.869 39.112 129.579 39.254 130.242 39.5292C130.904 39.8045 131.506 40.2076 132.013 40.7155L143.161 51.8578C143.33 52.0266 143.464 52.227 143.556 52.4475C143.647 52.6681 143.694 52.9045 143.694 53.1433C143.694 53.382 143.647 53.6184 143.556 53.839C143.464 54.0596 143.33 54.26 143.161 54.4288L138.016 59.5716C137.674 59.9119 137.212 60.1031 136.729 60.1031C136.247 60.1031 135.785 59.9119 135.443 59.5716V59.5716Z" fill="#CCCCCC"/>
</g>
<defs>
<clipPath id="clip0_69_147">
<rect width="483" height="349" fill="white"/>
</clipPath>
</defs>
</svg>
