<svg width="20" height="24" viewBox="0 0 20 24" fill="none" xmlns="http://www.w3.org/2000/svg">
<path d="M19.4296 16.9592L15.0546 14.7092C14.8677 14.6136 14.6599 14.5935 14.4627 14.6518C14.2654 14.7102 14.0893 14.8438 13.9608 15.0327L12.0233 17.8733C8.98248 16.1529 6.53535 13.2163 5.10165 9.5674L7.46888 7.24236C7.62657 7.08846 7.73818 6.87709 7.78681 6.64026C7.83545 6.40344 7.81846 6.15404 7.73842 5.92984L5.86338 0.679743C5.77554 0.438055 5.62016 0.240726 5.42406 0.12178C5.22796 0.00283371 5.00341 -0.0302726 4.78915 0.0281692L0.726575 1.15319C0.519997 1.21043 0.335688 1.35001 0.203728 1.54914C0.0717689 1.74827 -4.75872e-05 1.9952 2.36575e-08 2.24961C2.36575e-08 14.2733 8.12123 24 18.1253 24C18.3374 24.0002 18.5433 23.914 18.7093 23.7557C18.8753 23.5973 18.9917 23.3761 19.0394 23.1281L19.9769 18.253C20.0253 17.9947 19.9971 17.7241 19.8972 17.488C19.7973 17.2519 19.632 17.0649 19.4296 16.9592Z" fill="white"/>
</svg>
